<svg width="40" height="40" viewBox="0 0 40 40" fill="none" xmlns="http://www.w3.org/2000/svg">
<path d="M25.1667 4.1665H14.8334C11.0997 4.1665 9.23286 4.1665 7.80678 4.89313C6.55237 5.53228 5.5325 6.55215 4.89334 7.80657C4.16672 9.23264 4.16672 11.0995 4.16672 14.8332V25.1665C4.16672 28.9002 4.16672 30.767 4.89334 32.1931C5.5325 33.4475 6.55237 34.4674 7.80678 35.1065C9.23286 35.8332 11.0997 35.8332 14.8334 35.8332H25.1667C28.9004 35.8332 30.7672 35.8332 32.1933 35.1065C33.4477 34.4674 34.4676 33.4475 35.1067 32.1931C35.8334 30.767 35.8334 28.9002 35.8334 25.1665V14.8332C35.8334 11.0995 35.8334 9.23264 35.1067 7.80657C34.4676 6.55215 33.4477 5.53228 32.1933 4.89313C30.7672 4.1665 28.9004 4.1665 25.1667 4.1665Z" stroke="black" stroke-width="2" stroke-linecap="round" stroke-linejoin="round"/>
<path d="M21.6667 28.3335H29.1667" stroke="black" stroke-width="2" stroke-linecap="round" stroke-linejoin="round"/>
<path d="M11.6667 18.3335L16.5559 22.0022C17.4447 22.6691 17.4443 24.0024 16.5553 24.6689L11.6667 28.3335" stroke="black" stroke-width="2" stroke-linecap="round" stroke-linejoin="round"/>
</svg>
