<svg width="80" height="80" viewBox="0 0 80 80" fill="none" xmlns="http://www.w3.org/2000/svg">
<g clip-path="url(#clip0_167_25952)">
<path d="M68.7267 62.612C69.0548 60.21 69.1064 57.8261 69.4375 55.5138C69.5836 54.3528 69.7741 53.1991 69.9774 52.0412C70.1864 50.9391 70.4114 49.7561 70.6416 48.547C70.8625 47.3717 71.017 46.184 71.1044 44.9899C71.1797 43.7947 71.1571 42.5951 71.0367 41.4038C70.8181 39.0163 70.1779 36.6743 69.3549 34.4301L69.0494 33.5894L68.7355 32.754L68.0988 31.0957L66.8289 27.7949C65.9665 25.6038 65.1103 23.3737 63.9879 21.21C63.428 20.1194 62.7855 19.0765 62.0666 18.0911C61.3262 17.1101 60.4963 16.2053 59.5884 15.3893C58.6798 14.572 57.6929 13.8534 56.643 13.2447C56.1105 12.9572 55.5771 12.674 55.0356 12.4172C54.4791 12.1886 53.9395 11.9302 53.3766 11.7341C52.8136 11.5379 52.2631 11.321 51.6978 11.1532C51.1351 10.9757 50.5782 10.7953 50.0144 10.6432C49.4564 10.4711 48.8969 10.313 48.3359 10.1688C47.779 10.0058 47.2193 9.86152 46.6586 9.71889C44.3996 9.1471 42.1044 8.74197 39.7901 8.50652C35.1318 8.0658 30.2146 8.92159 26.1429 11.3558C24.0952 12.5322 22.1618 13.8294 20.2388 15.1309L18.7955 16.1101L18.0773 16.6078L17.3596 17.1092C16.4031 17.7809 15.4591 18.4782 14.5465 19.221C12.7282 20.7111 11.1141 22.4508 9.74864 24.3924C8.38408 26.3273 7.3108 28.463 6.28798 30.5804L3.2393 36.9099C2.21745 39.0129 1.20428 41.1684 0.635247 43.5003C0.347537 44.6707 0.15748 45.8646 0.0671771 47.0687L0.00754103 47.98C-0.00724745 48.2831 0.00464763 48.593 0.00255795 48.8975C0.0131761 49.5135 0.0543811 50.1286 0.12601 50.7403C0.212703 51.359 0.345445 51.9698 0.523048 52.5672C0.708743 53.172 0.96762 53.75 1.2935 54.2873C1.62472 54.8222 2.05412 55.2844 2.55727 55.6476C2.96466 55.9197 3.42086 56.1037 3.89852 56.1886C3.98934 56.2251 4.0763 56.2668 4.17178 56.297C4.3216 56.3443 4.46755 56.3754 4.61592 56.4166C6.61104 57.2611 8.79037 57.5265 10.92 57.1842C13.2456 56.8423 15.4428 55.9389 17.5124 54.9924C19.5889 54.0367 21.5735 53.0248 23.5466 52.2431C25.5125 51.4658 27.4111 50.822 29.3152 50.5999C30.269 50.4693 31.2306 50.4097 32.1926 50.4214C32.683 50.3939 33.1731 50.4621 33.6741 50.4796C34.1678 50.5529 34.6838 50.5727 35.1763 50.7085L35.9247 50.8935L36.6751 51.0972C37.1959 51.1989 37.6252 51.4883 38.1004 51.6971L38.7937 52.0502C39.0138 52.1873 39.2254 52.3386 39.4273 52.5031C39.831 52.8331 40.2692 53.1161 40.6207 53.5121C40.9722 53.9082 41.314 54.3093 41.6376 54.721C41.9385 55.1651 42.1905 55.6503 42.4649 56.104C42.9632 57.0733 43.3937 58.0608 43.8224 59.1008C44.7143 61.2504 45.8557 63.2793 47.2213 65.1426C48.7291 67.1365 50.5542 68.8491 52.6179 70.2065L54.2075 71.1454C54.717 71.4828 55.302 71.672 55.8353 71.9502C56.9022 72.5289 58.0402 72.8535 59.1354 73.3185C59.2936 73.3891 59.4551 73.4512 59.6194 73.5047C59.8284 73.5505 60.0373 73.609 60.2487 73.6485C60.6813 73.6951 61.1182 73.6692 61.5429 73.5718C62.3155 73.371 63.0382 73.0025 63.6632 72.4906C64.7013 71.6629 65.5957 70.6578 66.308 69.5185C67.6648 67.3705 68.3939 65.0081 68.7267 62.612Z" fill="#B27B92" fill-opacity="0.3"/>
<path d="M48.5158 68.0388C47.9957 68.1087 46.8806 68.2457 46.3603 68.2899L45.58 68.3552L44.7996 68.4052C43.759 68.4679 42.7185 68.5077 41.6781 68.5245L40.1174 68.5381C39.5971 68.534 39.0769 68.5475 38.5568 68.5265C38.0364 68.5126 37.5163 68.5023 36.9959 68.4655C36.4758 68.4403 35.9556 68.3965 35.4353 68.3522L32.3138 68.0611C31.7934 68.0111 31.2734 67.9899 30.7531 67.9563L29.1923 67.9063L27.6316 67.908L26.071 67.9518L25.2905 67.9851L24.5101 68.0293L22.9495 68.1189C21.909 68.1804 20.8685 68.2355 19.828 68.2522C18.7876 68.2834 17.747 68.2762 16.7065 68.2169C15.6661 68.1739 14.6256 68.1002 13.5851 68.0911C12.5446 68.0781 11.5041 68.0888 10.4637 68.1232L7.34232 68.2047L4.69824 68.1987C4.71351 67.3156 4.72878 66.4295 4.74454 65.5151C4.8397 63.3579 5.13032 61.2008 5.18272 59.0438C5.18787 58.6631 5.19285 58.2924 5.19784 57.9203C5.19462 57.4904 5.19141 57.0627 5.18819 56.6273L6.75689 56.5815L7.43298 56.5463L7.9927 56.504C8.73887 56.4428 9.48521 56.3642 10.2314 56.2755C11.2719 56.1517 12.3122 56.0634 13.3529 56.0029C14.3934 55.9529 15.4337 55.9604 16.4742 55.9809C17.5149 56.0083 18.5552 56.0677 19.5957 56.1461L21.1564 56.2592L22.7172 56.3493C23.2374 56.3687 23.7577 56.3982 24.2779 56.3993C24.798 56.4058 25.3184 56.4182 25.8385 56.4027C26.8792 56.396 27.9195 56.3215 28.96 56.2377C30.0007 56.1496 31.041 56.0499 32.0815 56.0003L32.8619 55.9654L33.6422 55.9531L34.0323 55.9468L34.4226 55.9509L35.203 55.9596C36.2435 55.9741 37.2838 56.0211 38.3243 56.0781L41.4458 56.271C43.5267 56.4043 45.6078 56.427 47.6888 56.421C49.7698 56.415 51.8506 56.3532 53.9316 56.203C53.9316 56.203 54.1435 56.4518 54.1121 57.0257C54.0681 57.8336 54.3816 58.2544 54.3816 58.2544C52.3007 58.2534 49.7696 58.1852 47.6888 58.1439L44.5672 58.0794L41.4458 57.9594L38.3243 57.823C37.2838 57.7787 36.2435 57.7527 35.203 57.7532C34.6827 57.7582 34.1623 57.7458 33.6422 57.7658L32.8619 57.7865L32.0815 57.8291C31.041 57.889 30.0007 57.9984 28.96 58.0957C27.9195 58.1895 26.8792 58.2739 25.8385 58.2915C25.3184 58.3122 24.798 58.3059 24.2779 58.3052C23.7577 58.3102 23.2374 58.2877 22.7172 58.2747L21.1564 58.2052L19.5957 58.1126C18.5552 58.0479 17.5149 57.9998 16.4742 57.9813C15.4337 57.9696 14.3934 57.9681 13.3529 58.0246C12.3122 58.0904 11.2717 58.1855 10.2314 58.31C9.20262 58.4252 8.12402 58.5446 7.13641 58.5998C7.13102 58.6059 7.12788 58.6139 7.12753 58.6222C7.12718 58.6305 7.12964 58.6386 7.13448 58.6453C7.1385 58.6501 7.13448 58.6471 7.13448 58.6471H7.12419C7.11825 58.7776 7.1123 58.9094 7.10635 59.0437C7.00765 61.2006 6.60483 63.3578 6.51996 65.5149C6.51176 65.67 6.50388 65.8185 6.49617 65.9668L6.49263 66.339H6.50565C6.62878 66.3374 6.75673 66.3285 6.87858 66.3167L7.057 66.2972L7.14782 66.2869L7.34297 66.2765C8.3833 66.2036 9.4238 66.0716 10.4643 65.9688C11.5014 65.8585 12.5432 65.8029 13.5858 65.8022C13.8459 65.8022 14.106 65.8022 14.3662 65.8161C14.6263 65.8243 14.8865 65.8366 15.1465 65.8575L16.7071 65.9873C17.7445 66.0907 18.7866 66.1334 19.8286 66.1151C20.8691 66.1181 21.9096 66.0874 22.9501 66.0484C25.0311 65.9784 27.1119 65.8763 29.1929 65.9073C31.2741 65.921 33.3549 66.0997 35.4359 66.2282L36.9966 66.3024C37.5169 66.3262 38.0371 66.3297 38.5574 66.3357C39.0776 66.3474 39.5977 66.3319 40.1181 66.3304L41.6787 66.3044C42.7192 66.2803 43.7597 66.2374 44.8002 66.1759C45.8406 66.1161 46.8812 66.0324 47.9217 65.907C47.8813 66.1592 47.8959 66.4177 47.9645 66.6633C48.033 66.9089 48.1538 67.1355 48.318 67.3264C48.3977 67.4239 48.4566 67.5378 48.4907 67.6606C48.5248 67.7834 48.5334 67.9123 48.5158 68.0388Z" fill="#503D3F"/>
<path d="M57.5984 56.2574L61.8752 56.2054L66.1519 56.1398L70.3601 56.0918L70.3773 58.2794C70.3895 59.0586 70.402 59.839 70.4144 60.625C70.4353 61.3582 70.4563 62.0956 70.4777 62.8411C70.5028 63.562 70.5275 64.2726 70.5518 64.9729C70.5583 65.4241 70.5647 65.8717 70.5711 66.3179C70.5722 67.0304 70.5734 67.7391 70.5747 68.4499L68.3527 68.4321L67.6118 68.4136L67.0568 68.3879C66.3173 68.3487 65.5766 68.2894 64.8367 68.2046C64.1241 68.1398 63.4113 68.0765 62.6988 68.0513L61.6296 68.0152L60.56 67.9917C59.1345 67.9658 57.709 67.9727 56.2832 68.0358V65.7589C57.709 66.0052 59.1345 66.1588 60.56 66.2838C61.9858 66.4029 63.4112 66.5004 64.8367 66.5192L66.9746 66.5319L68.0161 66.539L68.6494 66.5557L68.7488 66.5585L68.7881 64.9734C68.7971 64.2603 68.8061 63.5497 68.815 62.8418C68.824 61.3906 68.8002 59.8259 68.7645 58.4687L68.7385 57.7725L66.1515 57.8459L61.8747 57.9883L59.7368 58.077L57.5989 58.1796L57.5984 56.2574Z" fill="#503D3F"/>
<path d="M78.2525 19.3737C77.5146 19.4229 76.7738 19.3994 76.0402 19.3037C75.3348 19.2171 74.6349 19.0878 73.9441 18.9163C73.2609 18.7447 72.587 18.5483 71.9275 18.3125L70.9405 17.9527L69.9581 17.5812C68.6507 17.0792 67.3547 16.5453 66.07 15.9796L65.1084 15.5508L64.151 15.1111L63.1938 14.6704L62.8241 14.4979C62.7496 14.4683 62.6719 14.4481 62.5928 14.4376C62.4185 14.4213 62.2433 14.4549 62.0862 14.5347C61.9291 14.6145 61.7961 14.7375 61.7018 14.8902C61.6333 15.021 61.5719 15.1556 61.518 15.2936L61.3073 15.7905C61.1672 16.1237 61.0279 16.4555 60.8894 16.7857C60.3369 18.1142 59.8018 19.4495 59.2967 20.7969L58.5549 22.8242L57.8476 24.8652C57.6233 25.541 57.3963 26.2247 57.1667 26.9163L56.8322 27.9444L56.6647 28.4583C56.621 28.5804 56.5901 28.7069 56.5726 28.8359C56.5409 29.0663 56.5536 29.3009 56.6101 29.5262C56.6667 29.7515 56.7658 29.9628 56.9018 30.148L58.1521 31.8543C58.995 33.006 59.8106 34.1785 60.5878 35.3797L61.3415 36.5283L62.3814 38.0847L61.6458 40.0029C61.1381 41.349 60.6501 42.7031 60.1819 44.0651C59.7059 45.4301 59.2318 46.7897 58.7595 48.1439C58.2705 49.4976 57.7584 50.842 57.2231 52.1774C56.1461 54.8459 54.8989 57.4467 53.8592 60.1297C53.3329 61.4686 52.8567 62.8274 52.4138 64.1992C52.3066 64.5388 52.1979 64.8826 52.0877 65.2306C52.0001 65.5401 51.8242 66.0181 51.8491 66.1146C51.8474 66.1922 51.8615 66.2693 51.8904 66.3409C51.9194 66.4125 51.9625 66.477 52.0171 66.5302C52.0717 66.5834 52.1365 66.624 52.2073 66.6495C52.278 66.675 52.3532 66.6847 52.4278 66.6781C52.4869 66.6703 52.5438 66.65 52.5951 66.6184C52.6464 66.5869 52.6908 66.5448 52.7258 66.4948C52.7553 66.4512 52.776 66.402 52.7869 66.35L52.921 65.9001C53.1431 65.1961 53.359 64.5116 53.572 63.837C54.0262 62.4695 54.53 61.121 55.0442 59.7778C55.5644 58.4365 56.1112 57.106 56.674 55.7812L57.5147 53.793C57.788 53.1288 58.0681 52.4483 58.3359 51.7973C58.6009 51.1285 58.8741 50.4628 59.1236 49.7878C59.3776 49.115 59.6364 48.4435 59.872 47.7631C60.3633 46.4103 60.7977 45.0352 61.2242 43.6567C61.647 42.2767 62.0601 40.8932 62.5153 39.526L62.9778 38.1992L63.478 38.0797L64.8522 37.76L66.8967 37.3031L70.9915 36.4143L72.0175 36.2032L72.2648 36.1514C72.3152 36.1402 72.3655 36.1284 72.4147 36.1121C72.5137 36.0804 72.6095 36.0392 72.701 35.9889C72.885 35.885 73.0474 35.7445 73.1791 35.5755C73.3332 35.3684 73.451 35.1348 73.5271 34.8854C74.0646 33.55 74.5975 32.226 75.1385 30.8814L76.782 26.8902C77.0553 26.2418 77.3415 25.5628 77.6206 24.901L78.4992 22.928C78.6481 22.6071 78.7993 22.2813 78.9543 21.9476C79.1013 21.6791 79.1802 21.3764 79.1837 21.0678C79.1787 20.7314 79.0883 20.4024 78.9217 20.1137C78.755 19.825 78.518 19.5868 78.2345 19.4232L78.3121 19.2123C79.0856 19.3636 79.7749 20.0741 79.9546 20.9687C80.0364 21.4159 80.0076 21.8774 79.871 22.31L79.5698 23.3512C79.1647 24.7384 78.7048 26.1032 78.2157 27.4572C77.2525 30.1702 76.198 32.8477 75.1193 35.5149C75.0183 35.7887 74.896 36.0534 74.7534 36.3065C74.5919 36.5782 74.3937 36.8244 74.1648 37.0378C73.7128 37.4599 73.156 37.7427 72.5573 37.8543L69.6639 38.4305L66.7792 39.0512L65.3417 39.3844L64.6243 39.5579L64.1978 39.6713C63.9739 40.3722 63.7477 41.0806 63.5122 41.8163C63.2588 42.6311 63.017 43.4505 62.7868 44.2745C62.3689 45.6565 61.9437 47.0353 61.4616 48.3917C61.2306 49.0738 60.9768 49.7473 60.7277 50.4222C60.4716 51.0917 60.2145 51.7637 59.9561 52.4383C59.6925 53.0955 59.42 53.7741 59.1524 54.4408L58.3289 56.4358C57.7774 57.7652 57.24 59.0993 56.7275 60.4438C56.2206 61.7905 55.7222 63.1405 55.273 64.5095C55.0626 65.1845 54.8486 65.8705 54.6289 66.5756L54.5509 66.8349C54.521 66.9437 54.4851 67.0506 54.4435 67.1552C54.3276 67.4398 54.1575 67.6974 53.9433 67.9123C53.7235 68.1322 53.4632 68.3038 53.1779 68.4169C52.8926 68.53 52.5882 68.5823 52.283 68.5706C51.9671 68.5575 51.657 68.4781 51.3716 68.3372C51.0861 68.1963 50.8312 67.9968 50.6223 67.7508C50.407 67.4968 50.2438 67.2 50.1425 66.8786C50.0412 66.5572 50.0039 66.2178 50.033 65.881C50.047 65.7099 50.0784 65.5409 50.1269 65.3768L50.218 65.0717L50.3765 64.5541L50.7053 63.5239C51.1571 62.1552 51.6414 60.8001 52.1828 59.4669C53.2629 56.7999 54.6083 54.2379 55.6761 51.5659C55.9466 50.8994 56.199 50.2255 56.4453 49.5497C56.6915 48.8739 56.9124 48.1875 57.1381 47.5032C57.5737 46.1284 57.9596 44.7337 58.3702 43.3493C58.7807 41.9648 59.2189 40.5906 59.7204 39.2421L59.9082 38.7361L60.0046 38.4843C60.0094 38.4728 60.0159 38.4622 60.0239 38.453L60.0541 38.4066L60.0381 38.34L58.9648 36.6056C58.2226 35.3779 57.4271 34.1895 56.5962 33.0295L55.341 31.2643C55.0662 30.8607 54.8719 30.4044 54.7694 29.922C54.6669 29.4396 54.6583 28.9408 54.7441 28.455C54.7864 28.2225 54.8483 27.9944 54.929 27.7731L55.1039 27.2621L55.453 26.2398C55.6872 25.5575 55.921 24.8764 56.1545 24.1967C56.6258 22.836 57.1071 21.4792 57.6152 20.133L59.1387 16.0944L59.5213 15.0853L59.7142 14.5816C59.7785 14.4165 59.8288 14.2667 59.9608 13.9817C60.2088 13.4892 60.5807 13.0753 61.0372 12.7841C61.4937 12.4929 62.0177 12.3352 62.5537 12.3276C62.819 12.3269 63.0832 12.3626 63.3394 12.4338C63.4563 12.4683 63.6116 12.5244 63.691 12.5576L63.9332 12.6594L64.9022 13.0683L66.8376 13.8926L70.6988 15.5673C73.2736 16.6812 75.8395 17.8193 78.302 19.2399L78.2525 19.3737Z" fill="#503D3F"/>
<path d="M32.5688 37.8978C32.8759 38.251 33.1533 38.6307 33.3979 39.0329C33.6071 39.3693 33.7968 39.7184 33.966 40.0781C34.129 40.4114 34.2656 40.7385 34.39 41.0456C34.4436 41.1979 34.5059 41.3468 34.5765 41.4915C34.6325 41.6307 34.6989 41.7652 34.7752 41.8937C35.0566 42.4077 35.3267 42.703 35.6144 42.8668C35.7074 42.8875 35.7977 42.9194 35.8837 42.9616C35.9979 42.9863 36.1142 43.0002 36.2309 43.0031C36.3653 43.0298 36.5039 43.0241 36.6359 42.9864L37.0836 42.9239C37.3005 42.8813 37.5089 42.8014 37.7004 42.6876C37.7743 42.6335 37.8351 42.5623 37.878 42.4797C37.9209 42.397 37.9447 42.3052 37.9476 42.2114C38.018 41.6742 37.819 40.8986 37.5569 40.1821L37.1228 39.0812C36.9621 38.7093 36.8116 38.3622 36.6406 37.966C36.2959 37.2024 35.9894 36.4209 35.7223 35.6246C35.4406 34.7896 35.2695 33.9189 35.2138 33.0362L35.2021 32.6965C35.2021 32.5157 35.1933 32.3284 35.2079 32.1543C35.2331 31.8032 35.2841 31.4623 35.3248 31.1182C35.4292 30.5118 35.6047 29.9209 35.8475 29.3586C36.2883 28.3397 36.7748 27.5924 37.3135 26.565C37.4345 26.4373 37.5685 26.3235 37.7131 26.2256C38.0058 27.0892 38.3239 27.9555 38.6755 28.8593L39.074 29.9063L39.4758 30.7421L39.882 31.5808L39.9839 31.7924L40.0584 31.9168L40.2053 32.1616L41.3578 34.1539C42.1316 35.5014 42.8823 36.9601 43.665 38.4094C44.4349 39.8649 45.1634 41.3991 45.6333 43.0749C45.8662 43.9069 46.0081 44.7635 46.0565 45.6284C46.0965 46.5001 46.0335 47.3736 45.8689 48.2294C45.6981 49.1684 45.3295 50.0566 44.7892 50.8308C44.5017 51.2313 44.1607 51.5874 43.7765 51.8885C43.4025 52.1762 42.9957 52.4148 42.5652 52.5988C42.1591 52.7721 41.7397 52.9096 41.3114 53.0099C40.8934 53.1304 40.4803 53.1647 40.069 53.2517C39.6608 53.2873 39.2492 53.3658 38.8454 53.3952L38.2357 53.4628L37.5813 53.4723L36.9153 53.4791C36.6961 53.4575 36.4779 53.4178 36.2572 53.3843L35.5937 53.2677C35.3813 53.201 35.1716 53.1232 34.9607 53.0454L34.3302 52.8013L33.7527 52.4544C33.5598 52.3391 33.3669 52.2211 33.1832 52.0923L32.6715 51.6537L32.1669 51.208L31.7169 50.7072C31.4084 50.3826 31.1355 50.0237 30.9032 49.6369C30.6482 49.2681 30.4282 48.8747 30.2462 48.462C30.1498 48.2588 30.0474 48.0591 29.9609 47.852C29.8919 47.6398 29.8225 47.426 29.7519 47.208L29.559 46.562L29.4423 45.8943L29.3354 45.2293C29.3288 45.0056 29.3221 44.7805 29.3152 44.5525L29.3076 43.8809L29.3904 43.2125L29.4775 42.551L29.6543 41.9087C29.7572 41.4804 29.9128 41.0675 30.1173 40.6803C30.2933 40.285 30.5164 39.914 30.7813 39.5761C31.0573 39.2498 31.2788 38.8898 31.6133 38.6317C31.9348 38.3626 32.261 38.111 32.5923 37.8845L32.7594 38.0533C32.6196 38.4284 32.4589 38.7948 32.2782 39.1507C32.184 39.3157 32.1101 39.4922 32.0581 39.6762L31.8536 40.1956C31.7157 40.5312 31.6026 40.8772 31.5151 41.2305C31.3975 41.5671 31.3124 41.915 31.2613 42.2691C30.9961 43.6906 31.0649 45.1575 31.4618 46.5457C31.8643 47.9934 32.6694 49.2862 33.7765 50.2624C34.8832 51.2279 36.3421 51.7774 37.7229 51.6211L38.2326 51.5978L38.78 51.5233C39.1482 51.49 39.4927 51.4103 39.8479 51.3762C40.1836 51.294 40.5366 51.2633 40.8486 51.1645C41.1593 51.089 41.4639 50.9887 41.7597 50.8646C42.0362 50.7485 42.299 50.6 42.543 50.4221C42.7862 50.2408 43.0031 50.0243 43.1871 49.7792C43.5886 49.2173 43.8569 48.5654 43.9704 47.8762C44.1074 47.1276 44.1535 46.3641 44.1075 45.6036C44.054 44.8457 43.9148 44.0969 43.6928 43.3726C43.4825 42.683 43.2251 42.0097 42.9225 41.358C42.6473 40.7123 42.322 40.0916 42.0133 39.4305C41.3694 38.1198 40.7214 36.5978 39.8962 35.1969L39.2599 34.1503L38.589 33.1157L38.4122 32.8599L38.3233 32.7341L38.2731 32.6708C38.2066 32.5875 38.1415 32.514 38.0802 32.448C38.0253 32.3886 37.9676 32.3321 37.9071 32.2787C37.8789 32.2637 37.8477 32.2555 37.816 32.2548C37.7933 32.2563 37.7713 32.2631 37.7515 32.2747C37.7318 32.2862 37.7147 32.3022 37.7017 32.3214C37.6919 32.3337 37.6856 32.3194 37.6763 32.3067C37.6679 32.3252 37.6602 32.3366 37.6461 32.3184C37.6278 32.3104 37.6119 32.2977 37.5996 32.2816C37.5631 32.2529 37.5032 32.2139 37.4492 32.2416C37.3839 32.2489 37.3334 32.3274 37.3017 32.4315C37.2866 32.4878 37.2765 32.5455 37.2714 32.6037L37.2738 32.9577C37.3057 33.6886 37.4345 34.4114 37.6567 35.1059C38.0767 36.5388 38.7833 37.8885 39.3556 39.4595C39.6229 40.2576 39.9516 41.0766 39.9555 42.2476C39.9533 42.9238 39.7181 43.5769 39.2922 44.0891C38.8974 44.5194 38.4075 44.8435 37.8648 45.0336C36.9835 45.3068 35.9663 45.5271 34.9012 45.1414C33.8432 44.733 33.1745 43.8219 32.8134 42.9854C32.1269 41.3845 31.9884 39.5886 32.4209 37.895L32.5688 37.8978Z" fill="#503D3F"/>
<path d="M8.69093 36.9826C8.92499 37.1725 9.13512 37.3921 9.31639 37.6362L8.72694 37.0251L8.93124 36.8688C9.19008 36.6848 9.47076 36.5363 9.76631 36.4269C10.0363 36.3275 10.317 36.2624 10.6022 36.2331C10.7414 36.2164 10.8804 36.2134 11.0201 36.2028L11.438 36.1861C11.9956 36.1713 12.5534 36.1928 13.1083 36.2504L13.5263 36.2991L13.9442 36.3602L14.7793 36.4905C15.8831 36.6935 16.9993 36.8156 18.1197 36.8561L18.9556 36.8516L19.3687 36.8336C19.429 36.8289 19.4889 36.8198 19.5479 36.8064C19.6602 36.791 19.7698 36.7591 19.8734 36.7118C19.8498 36.61 19.8252 36.5072 19.8029 36.4084L19.7633 36.2632C19.7588 36.244 19.7529 36.2251 19.7458 36.2068L19.7397 35.9761C19.7286 35.6684 19.7443 35.3611 19.7617 35.0539C19.7951 34.4382 19.8993 33.8289 20.0723 33.2388C20.2382 32.6468 20.4544 32.0743 20.6402 31.4966C20.8374 30.9199 21.0195 30.3872 21.2296 29.7725C21.4151 29.2405 21.7528 28.4885 21.7721 28.4175C21.7975 28.3527 21.8726 28.2862 21.7959 28.2327L21.7371 28.1401L21.708 28.0881L21.6919 28.0591L21.6267 27.9743C20.9355 27.0635 20.388 26.0146 19.6656 25.1342C18.9286 24.2545 18.0796 23.4828 17.1419 22.8404C16.6795 22.5057 16.2346 22.1455 15.8093 21.7615C15.5025 21.4828 15.2183 21.1784 14.9596 20.8514C14.931 20.7903 14.901 20.7261 14.8682 20.6568C14.8498 20.629 14.8254 20.5362 14.8039 20.5465L14.727 20.5603C14.6522 20.5841 14.5813 20.6197 14.5169 20.6658L14.3924 20.7691L14.1313 21.0937C13.9601 21.3148 13.7994 21.5419 13.6547 21.7787C13.4983 22.0085 13.3579 22.2495 13.2347 22.5C12.9746 22.9956 12.7631 23.517 12.6036 24.0565C12.4376 24.6216 12.2643 25.2123 12.1302 25.6685L12.0066 26.0651L11.8632 26.4525C11.7644 26.7246 11.6751 26.9691 11.5813 27.2285C11.3762 27.74 11.2371 28.2749 11.0466 28.7929C10.8783 29.3185 10.71 29.8453 10.5575 30.3785C10.3807 30.9057 10.2484 31.4449 10.0944 31.984C9.95245 32.5243 9.80505 33.0682 9.6906 33.6197C9.63257 33.8697 9.562 34.1739 9.49867 34.448L9.29244 35.2828C9.14584 35.861 8.96328 36.4287 8.7459 36.9824H8.5125C8.39063 36.698 8.29264 36.4032 8.21963 36.1013L8.12125 35.6561L8.06628 35.2097C7.99555 34.6168 7.99237 34.0173 8.05679 33.4236C8.16434 32.2378 8.40715 31.0695 8.78014 29.943C9.49497 27.6729 10.4284 25.5707 11.0028 23.2223C11.1688 22.6462 11.3876 22.0878 11.6563 21.5549C11.7836 21.286 11.9282 21.0263 12.0892 20.7776C12.2397 20.5223 12.4044 20.2759 12.5764 20.0355L13.2747 19.1045L14.1357 18.0496L14.5441 17.5531C14.579 17.5364 14.6076 17.4156 14.647 17.4864L14.7608 17.6242L14.9858 17.8947C15.2938 18.2571 15.5806 18.5956 15.8611 18.9246C16.2901 19.4373 16.7475 19.9236 17.2311 20.381C17.6577 20.7578 18.1049 21.1146 18.5727 21.4513C19.038 21.7829 19.4867 22.1388 19.9171 22.5177C20.3373 22.8983 20.7227 23.3181 21.0687 23.7719C21.7567 24.6851 22.2225 25.8137 22.9208 26.7171C23.1184 26.9746 23.4622 27.3626 23.7406 27.6669L23.9685 27.909C23.9917 27.9513 24.0822 27.9855 24.0513 28.0346L23.9817 28.1796L23.7049 28.7721C23.4396 29.3625 23.248 29.9856 23.1349 30.6263C23.032 31.1545 22.9009 31.6763 22.7422 32.1894C22.7076 32.3179 22.6661 32.4443 22.618 32.568C22.5709 32.6926 22.5312 32.8194 22.4773 32.9429L22.175 33.6956C21.9737 34.2 21.8504 34.7342 21.8098 35.2785C21.7869 35.5489 21.7633 35.8195 21.7654 36.0915C21.7654 36.2833 21.7658 36.4777 21.7667 36.6746C21.7732 36.9257 21.78 37.1801 21.7869 37.438C21.8012 37.8728 21.8157 38.3137 21.8302 38.7543L19.4994 38.8351C18.9368 38.8546 18.5852 38.8641 18.1178 38.8536L16.4476 38.8148L14.7774 38.7481C13.6639 38.69 12.5505 38.6047 11.4369 38.492C10.5215 38.4386 9.61361 38.2891 8.72726 38.0458L8.25451 37.9033L8.33006 37.6341C8.3913 37.4161 8.46155 37.1983 8.54305 36.9804L8.69093 36.9826Z" fill="#503D3F"/>
<path d="M18.039 15.0248C18.4176 14.9899 18.799 15.0155 19.17 15.1006C19.474 15.1687 19.7682 15.2775 20.0451 15.4242C20.2971 15.5583 20.5322 15.7239 20.7453 15.9173C20.8517 16.0094 20.9472 16.1122 21.0487 16.2092L21.3423 16.5101C21.7291 16.9176 22.0905 17.35 22.4245 17.8048L22.672 18.1505L22.9107 18.5049C23.0617 18.7334 23.2174 18.969 23.3825 19.2191C23.9842 20.1841 24.6516 21.1033 25.3796 21.9698L25.9346 22.5793C26.0211 22.6639 26.1123 22.743 26.2079 22.8162C26.2513 22.8551 26.3006 22.8863 26.3539 22.9085C26.4738 22.7482 26.5697 22.6033 26.6442 22.492L26.6538 22.477C26.6538 22.477 26.6585 22.471 26.6469 22.479L26.6668 22.4596L26.7472 22.3828L26.9094 22.2294C27.0173 22.1264 27.1272 22.0259 27.2417 21.9313C27.4664 21.7357 27.7013 21.553 27.9452 21.3841C28.4222 21.0279 28.9407 20.7358 29.4884 20.5146C30.0275 20.2738 30.5924 20.1045 31.1349 19.8911L32.782 19.2949L33.8941 18.9367C33.9272 18.9312 33.9598 18.9229 33.9916 18.9117L33.9992 18.806L34.017 18.6981L34.03 18.6404C34.0409 18.5982 34.0463 18.5548 34.0461 18.5111C34.1411 17.3701 34.4319 16.2283 34.4841 15.088C34.5248 13.9364 34.4123 12.7846 34.15 11.6648C34.0326 11.0996 33.9448 10.5283 33.8871 9.95325C33.8627 9.66798 33.8524 9.38272 33.8507 9.09746V8.89901L33.8535 8.86568L33.8654 8.7922C33.8846 8.72655 33.9048 8.65757 33.9267 8.58292C33.9463 8.50211 33.8736 8.51127 33.8262 8.46628C33.7497 8.42573 33.6676 8.39763 33.5829 8.38297C33.4142 8.37947 33.0725 8.39047 32.8274 8.40896C32.5607 8.43612 32.2934 8.46462 32.0299 8.5151C31.7641 8.55171 31.5012 8.60846 31.2434 8.6849C30.7218 8.82203 30.2154 9.01508 29.7324 9.26092C29.2416 9.48986 28.7723 9.77096 28.2871 9.9889L27.9277 10.1652L27.5612 10.3202L26.8282 10.6279C26.3339 10.8209 25.8638 11.068 25.3741 11.2766C24.8919 11.5009 24.4106 11.729 23.934 11.9699C23.4478 12.1945 22.9741 12.4451 22.4983 12.6987C22.016 12.9413 21.5473 13.2121 21.0765 13.4842L20.3679 13.8956L19.6413 14.2955C19.1361 14.5704 18.6141 14.8108 18.0786 15.015L17.9209 14.8369C18.038 14.5536 18.1787 14.2814 18.3414 14.0234L18.589 13.652L18.8643 13.3102C19.2341 12.8608 19.6521 12.4566 20.1104 12.1055C21.0161 11.3957 21.9984 10.7973 23.0374 10.3227C25.111 9.3479 27.2042 8.62574 29.2333 7.4792C29.7465 7.21336 30.2839 7.00088 30.8375 6.84485C31.111 6.75911 31.3899 6.69292 31.6721 6.64674C31.9518 6.58725 32.2355 6.54876 32.5186 6.51194L33.4274 6.44129C33.8822 6.4018 34.3345 6.39447 34.7632 6.37464L35.3961 6.35014L35.7055 6.33581C35.749 6.34248 35.8254 6.31065 35.8413 6.34848L35.8342 6.5251C35.8204 7.00448 35.8077 7.45154 35.7953 7.88576C35.7939 8.29383 35.7926 8.69206 35.7913 9.09929C35.7965 9.38455 35.8096 9.66982 35.837 9.95508C35.9009 10.53 35.9928 11.1013 36.1123 11.6667C36.2337 12.2318 36.327 12.8031 36.3919 13.3782C36.4485 13.947 36.4539 14.52 36.4079 15.0898C36.3091 16.2308 35.9061 17.3726 35.8214 18.5129C35.796 18.852 35.7916 19.3619 35.7942 19.7793C35.8011 19.9932 35.808 20.2125 35.8159 20.4568C35.6827 20.5623 35.4367 20.5734 35.2472 20.6376C34.8293 20.7502 34.4813 20.8772 34.073 21.013C33.7828 21.1393 33.5803 21.2476 33.336 21.3732C32.8795 21.6177 32.4106 21.8363 31.9314 22.0281C31.8129 22.0757 31.6962 22.128 31.5732 22.1639L31.2064 22.2818L30.4593 22.5063C29.9573 22.6518 29.482 22.8826 29.0529 23.1894C28.8329 23.3315 28.6207 23.4861 28.4172 23.6525C28.3132 23.7326 28.2134 23.8191 28.1155 23.9064L27.7618 24.223C27.2502 24.6959 26.7318 25.1953 26.2026 25.7128L24.8625 24.3132L24.3331 23.7443L23.971 23.3372L22.871 22.0602L21.79 20.7647C21.0795 19.8913 20.3883 18.9993 19.7164 18.0887C19.0324 17.1889 18.3681 16.2715 17.9322 15.1323L18.039 15.0248Z" fill="#503D3F"/>
<path d="M39.9547 7.2662C40.2549 7.51343 40.5167 7.80687 40.7311 8.13632C40.9087 8.4061 41.052 8.6985 41.1574 9.00627C41.2533 9.2874 41.316 9.5795 41.3444 9.87622C41.3604 10.0213 41.3633 10.1663 41.3736 10.3113C41.3796 10.4674 41.3847 10.6055 41.3897 10.7462C41.404 11.327 41.3832 11.9082 41.3276 12.4864L41.2807 12.9213L41.2217 13.3564C41.1815 13.635 41.1401 13.9219 41.096 14.2263C40.9002 15.3763 40.7824 16.5392 40.7433 17.7063C40.7448 17.9965 40.7462 18.2823 40.7477 18.5764C40.7538 18.7068 40.7684 18.8367 40.7912 18.9651C40.8123 19.0116 40.7855 19.0974 40.8507 19.0984L41.0457 19.0901L41.2169 19.0779L41.3 19.0729L41.5072 19.0964C42.099 19.1718 42.6835 19.2991 43.2545 19.477C43.8303 19.643 44.3838 19.8828 44.9023 20.1908C45.4269 20.4859 45.9198 20.8338 46.4252 21.1496L47.9256 22.1285C48.1768 22.292 48.4173 22.4713 48.6579 22.6517L48.7481 22.7194C48.732 22.7045 48.7613 22.725 48.7613 22.725L48.8095 22.7553L48.8992 22.8125C48.9352 22.8426 48.9695 22.8747 49.0021 22.9088C49.0749 22.8448 49.1529 22.7872 49.2351 22.7369L49.2917 22.7044L49.4391 22.5772L49.7674 22.2998L50.4383 21.7589C50.8902 21.4089 51.3224 21.0323 51.7328 20.6312C52.5333 19.805 53.2223 18.8702 53.7808 17.8524C54.0737 17.3493 54.3922 16.8628 54.735 16.3949C54.9081 16.1657 55.0915 15.9465 55.2815 15.7334L55.4249 15.5746L55.4621 15.538L55.5198 15.492L55.6998 15.3813C55.693 15.3233 55.6812 15.266 55.6648 15.2101C55.652 15.1692 55.6365 15.1293 55.6181 15.0908L55.5768 15.0183L55.4387 14.862C55.2473 14.662 55.07 14.4414 54.8651 14.256C54.6601 14.0705 54.4621 13.8739 54.2465 13.7013C54.036 13.5218 53.8151 13.3558 53.585 13.2042C53.1288 12.8919 52.645 12.6253 52.1401 12.4079L50.6227 11.7781L50.2518 11.6123L49.89 11.4303C49.6423 11.3229 49.4078 11.1886 49.1655 11.0684C48.6852 10.821 48.1876 10.6129 47.7 10.3794C47.209 10.1533 46.7129 9.9387 46.2119 9.73175C45.7187 9.49848 45.2071 9.32119 44.7009 9.11058C44.1902 8.92146 43.6795 8.71301 43.1555 8.55172L42.3723 8.28028C42.1103 8.18831 41.8464 8.10083 41.5834 7.99569C41.0376 7.79456 40.5048 7.55735 39.9883 7.28553L40.0081 7.04459C40.2933 6.94327 40.5864 6.86746 40.8842 6.81798L41.3228 6.75416L41.7588 6.73617C42.3377 6.71394 42.9171 6.76288 43.4848 6.88196C44.6212 7.09587 45.7288 7.44939 46.7844 7.93504C48.9156 8.8743 50.8616 10.0298 53.0818 10.829C53.6215 11.0564 54.1402 11.334 54.6317 11.6584C54.879 11.816 55.1175 11.9881 55.346 12.1738C55.5791 12.3531 55.7961 12.5541 56.0181 12.7473C56.2401 12.9406 56.4368 13.1659 56.6466 13.373L56.7988 13.5351L57.0427 13.7802L57.5151 14.2856L58.4132 15.2429C58.1399 15.5761 57.7903 15.9019 57.5 16.2245L56.6991 17.1076C56.5119 17.323 56.3306 17.5443 56.1595 17.7756C55.8239 18.2445 55.5089 18.7332 55.2145 19.2419C54.9247 19.7478 54.6104 20.2382 54.2729 20.7112C53.9331 21.1738 53.5533 21.6033 53.138 21.9942C52.7057 22.3775 52.25 22.7316 51.7738 23.0543L51.0733 23.5665L50.737 23.8362C50.6764 23.8896 50.6187 23.9405 50.5637 23.989L50.3261 24.2223C50.0131 24.5312 49.7209 24.8485 49.4269 25.1789C49.3223 25.2922 49.2179 25.4288 49.113 25.536L48.4806 25.0015L47.9502 24.6016L47.6708 24.3971L47.5158 24.2846L47.4256 24.237C47.1845 24.1102 46.9458 23.987 46.7023 23.8727C46.2226 23.6351 45.7521 23.4062 45.3106 23.1283C45.1967 23.0644 45.0864 22.9941 44.9799 22.9178L44.6555 22.693L44.0087 22.2211C43.5772 21.9032 43.0984 21.6606 42.5913 21.5028C42.092 21.3283 41.5791 21.1992 41.0582 21.1169L40.4911 21.0218L39.7432 20.9133L38.9877 20.799C38.8043 20.8287 38.8832 20.6292 38.8591 20.5187L38.8475 20.1332C38.8361 19.6018 38.825 19.0853 38.8143 18.5777C38.8077 18.2876 38.8064 17.9977 38.8128 17.7076L38.8503 15.9677C38.871 15.4012 38.8927 14.8063 38.9146 14.2276C38.9708 13.0676 39.0532 11.9075 39.1618 10.7475C39.2542 9.58762 39.3735 8.42758 39.8048 7.26754L39.9547 7.2662Z" fill="#503D3F"/>
<path d="M57.9597 23.488L56.0298 25.7049L54.1095 27.9312L53.6296 28.4879C53.5892 28.529 53.5524 28.5736 53.5195 28.6212L53.4826 28.674C53.4417 28.7057 53.4587 28.7428 53.4929 28.7796C53.5571 28.8682 53.6094 28.9653 53.6485 29.0684C54.1054 30.0213 54.498 31.0058 54.8234 32.015C55.1332 32.9188 55.3453 33.8554 55.4558 34.8076C55.5112 35.2837 55.5364 35.7631 55.5312 36.2426C55.5122 36.3486 55.4727 36.3159 55.4204 36.4426C55.4179 36.4752 55.4261 36.5077 55.4437 36.5349C55.4858 36.5856 55.5446 36.6182 55.6086 36.6263C55.8488 36.6533 56.0888 36.6755 56.3288 36.6882L57.0489 36.7242L57.7691 36.7486C58.729 36.7746 59.689 36.7678 60.6493 36.7045V38.9821C59.7 38.7485 58.7383 38.5733 57.7691 38.4574C57.2889 38.3977 56.8088 38.3436 56.3288 38.3019L55.6088 38.2498L54.5934 38.2219L53.7246 38.2106V36.5239C53.7148 36.0407 53.6964 35.7381 53.6739 35.3358C53.6118 34.3715 53.4611 33.4155 53.2238 32.4809C52.9775 31.5471 52.6325 30.6443 52.1951 29.7889L51.7548 28.9509L51.502 28.4844C51.5081 28.3402 51.6966 28.2198 51.7861 28.0845L52.9088 26.7658L54.7741 24.4879L55.6948 23.3365L56.6057 22.1758L57.9597 23.488Z" fill="#503D3F"/>
<path d="M59.1295 43.7309L57.1835 43.7829L56.2105 43.8162C55.9027 43.8272 55.4632 43.8382 55.5111 43.8495L55.3504 43.8819L55.3825 44.072C55.391 43.9943 55.4031 44.517 55.4196 44.8096C55.4401 45.1352 55.461 45.4686 55.483 45.8182C55.6105 47.1627 55.6576 48.5076 55.3438 49.8524C55.3132 50.0267 55.283 50.1995 55.2555 50.3566C55.2431 50.4456 55.2314 50.5299 55.2205 50.6087L55.2067 50.7327L55.1959 50.7702C55.1795 50.8245 55.1679 50.8803 55.161 50.9368C55.152 50.9951 55.1408 51.0599 55.1374 51.1201L55.1308 51.1982C55.2311 51.2071 55.3319 51.2078 55.4323 51.2002L55.5908 51.1814L56.0271 51.1471V53.4237L55.5908 53.2712L54.8175 53.1426L53.4512 52.9386C53.4642 52.8113 53.4769 52.6865 53.4894 52.5632C53.5434 51.9735 53.5942 51.4185 53.6394 50.9245C53.6796 50.4609 53.7076 50.2168 53.7166 49.8522C53.7326 49.1797 53.722 48.5074 53.7513 47.8351C53.7744 47.1626 53.8128 46.4904 53.8201 45.8189C53.8247 45.4826 53.8201 45.1464 53.8117 44.8103C53.7979 44.4402 53.7839 44.0628 53.7696 43.6758L53.7203 42.1936L55.0768 42.1436L56.2103 42.0725L57.1833 42.0012L58.1563 41.9127L59.1293 41.8101L59.1295 43.7309Z" fill="#503D3F"/>
<path d="M59.3254 51.12L61.7545 51.0682L64.1837 51.0025L64.7141 50.9882L64.9789 50.981C65.002 50.9805 65.025 50.9781 65.0477 50.9738L65.211 50.9452L65.2028 50.8877L65.1867 50.7869L65.1768 50.7419L65.174 50.7314L65.1711 50.6539L65.1652 50.4965C65.1445 50.0857 65.1236 49.6685 65.1019 49.2374C64.9744 47.5589 64.9273 45.8801 65.2411 44.2014C65.2571 44.0552 65.2722 44.1215 65.2872 44.0692C65.3031 44.0415 65.3172 44.0127 65.3293 43.9829C65.3568 43.9149 65.3769 43.8438 65.3889 43.7711L65.4015 43.7083L65.28 43.6852C65.2165 43.6733 65.1525 43.6652 65.0882 43.6607L64.9467 43.6525L64.6426 43.6478L64.0353 43.6495C63.6306 43.6558 63.2257 43.6733 62.8207 43.705V41.4282C63.2257 41.5514 63.6306 41.6513 64.0353 41.7361L64.6426 41.8528L64.9463 41.9046C65.0395 41.9213 65.2565 41.9379 65.4 41.9529L66.961 42.0909C66.912 42.844 66.8773 43.5905 66.8672 44.2012C66.8511 45.0407 66.8617 45.8799 66.8324 46.7192C66.8094 47.559 66.7861 48.4111 66.7636 49.2373C66.7664 49.6577 66.7693 50.0722 66.772 50.4963C66.7858 51.0426 66.7999 51.5969 66.8141 52.159L66.8265 52.6206L64.1835 52.7081L61.7544 52.8507L60.5398 52.9392L59.3252 53.0418L59.3254 51.12Z" fill="#503D3F"/>
<path d="M8.72691 52.1142C8.90488 51.813 9.12609 51.5416 9.38291 51.3094C9.57974 51.1299 9.80078 50.981 10.0391 50.8676C10.2472 50.7693 10.4684 50.704 10.6952 50.6738C10.8045 50.6571 10.9138 50.6539 11.0233 50.6433C11.1328 50.6326 11.2419 50.6283 11.3512 50.6266C11.7896 50.6119 12.2285 50.6335 12.6635 50.6911L12.9916 50.7396L13.3197 50.8009L13.9759 50.931C14.8384 51.1335 15.7167 51.2559 16.6002 51.2966L17.2563 51.2923C17.4751 51.2771 17.6937 51.2745 17.9125 51.2471C18.3499 51.2086 18.7873 51.1363 19.2246 51.0805C19.2868 51.0813 19.3483 51.0663 19.4035 51.0368L19.483 50.9985C19.5241 50.9766 19.5678 50.9601 19.613 50.9497L19.6492 50.9377C19.6407 50.8969 19.6405 50.8548 19.6483 50.8139C19.6562 50.773 19.6721 50.7342 19.695 50.6999C19.7111 50.6667 19.7229 50.6314 19.73 50.595L19.7675 50.2549C19.7914 50.0281 19.8114 49.8013 19.8157 49.5747C19.8284 49.1211 19.8181 48.6671 19.7848 48.2145C19.7577 47.7452 19.7318 47.2981 19.7061 46.8542C19.6959 46.4001 19.7133 45.9459 19.7583 45.4941C19.8085 45.0527 19.887 44.6153 19.9933 44.1847C20.102 43.9171 20.1705 43.6338 20.1963 43.3446C19.9285 43.3136 19.6574 43.3319 19.3957 43.3988C19.0371 43.4631 18.5426 43.567 18.1229 43.6907C17.6918 43.8119 17.2534 43.9029 16.8106 43.9631C16.3744 44.0061 15.9357 44.0136 15.4984 43.9854C15.0584 43.9553 14.6203 43.9002 14.1861 43.8201L13.53 43.707C13.3113 43.6775 13.0926 43.636 12.874 43.6169C12.6553 43.5977 12.4364 43.568 12.2178 43.5669C11.9992 43.5604 11.7804 43.548 11.5616 43.5634C11.1206 43.5803 10.6817 43.6355 10.2495 43.7283C10.1087 43.7505 10.099 43.7732 10.0682 43.7958C10.0421 43.8157 10.0175 43.8377 9.99487 43.8616C9.9657 43.8944 9.93884 43.9292 9.91449 43.9659L9.89938 43.9896L9.90983 44.0196L9.92205 44.0812C9.93555 44.1229 9.92076 44.1464 9.92092 44.1812C9.91684 44.2054 9.91507 44.2299 9.91562 44.2544L9.91208 44.5945C9.90549 44.8176 9.89922 45.0367 9.89231 45.2746C9.86418 45.728 9.85116 46.1814 9.81033 46.6348C9.76404 47.0898 9.72047 47.5187 9.67225 47.9951L9.4972 49.3553C9.46505 49.5552 9.42583 49.8108 9.39063 50.0354C9.34401 50.262 9.2982 50.4888 9.23776 50.7156C9.12264 51.1866 8.95723 51.6428 8.7446 52.0758H8.51248C8.38765 51.8601 8.28357 51.6323 8.20176 51.3956L8.09326 51.0557L8.01128 50.7156C7.91162 50.2694 7.85896 49.8133 7.85423 49.3553C7.832 48.4463 7.876 47.5369 7.98588 46.6348C8.05629 45.9911 8.12332 45.3474 8.1582 44.7038C8.16495 44.5371 8.17154 44.3767 8.17797 44.2182C8.17974 43.9919 8.18135 43.7715 8.18296 43.5485C8.18087 43.101 8.16688 42.6488 8.13795 42.1622C8.47455 42.1376 8.81307 42.1024 9.17153 42.0548L9.72546 41.9733C9.9022 41.951 10.0774 41.917 10.25 41.8716C10.6813 41.7684 11.1202 41.7025 11.5621 41.6743C11.7809 41.6537 11.9997 41.6599 12.2183 41.6607C12.4369 41.6557 12.6557 41.6782 12.8744 41.691C13.0932 41.7038 13.3118 41.738 13.5304 41.7607L14.1866 41.8533C14.6216 41.9199 15.0596 41.9637 15.4989 41.9846C15.9367 42.0043 16.3753 41.9898 16.8111 41.9413C17.2538 41.8746 17.6921 41.7793 18.1234 41.6558L18.7794 41.4892L19.1075 41.4192C19.2447 41.3898 19.3841 41.3723 19.5241 41.3669C20.3884 41.3086 21.2552 41.3033 22.1201 41.3511C22.0655 42.2591 21.9658 43.1637 21.8215 44.0611C21.802 44.201 21.7715 44.339 21.7303 44.4738C21.7012 44.5925 21.6733 44.7071 21.6471 44.8139C21.5946 45.0377 21.5567 45.265 21.5334 45.4941C21.5105 45.7199 21.5014 45.947 21.5064 46.1741C21.5152 46.4017 21.5353 46.6287 21.5667 46.8542C21.6371 47.3076 21.7644 47.7612 21.8636 48.2145C21.9692 48.6597 22.0232 49.1163 22.0243 49.5747C22.0267 49.6882 22.0222 49.8018 22.0108 49.9148C22.0036 50.0288 21.9903 50.1424 21.971 50.2549L21.9113 50.595C21.8891 50.7927 21.8665 50.9959 21.8457 51.1803C21.7617 51.8111 21.7195 52.4472 21.7194 53.084L21.3658 53.087L20.2603 53.1037L19.7037 53.125L19.2251 53.1518C18.3533 53.2468 17.4773 53.2945 16.6007 53.2948L15.2885 53.2561L13.9763 53.1903C13.1015 53.132 12.2266 53.0466 11.3517 52.934C10.4769 52.8382 9.60217 52.7146 8.7274 52.2675L8.72691 52.1142Z" fill="#503D3F"/>
</g>
<defs>
<clipPath id="clip0_167_25952">
<rect width="80" height="80" fill="white"/>
</clipPath>
</defs>
</svg>
