<svg width="80" height="80" viewBox="0 0 80 80" fill="none" xmlns="http://www.w3.org/2000/svg">
<path d="M62.1481 17.5405H17.8521C16.5825 17.5405 15.5862 18.6165 15.6992 19.8657L17.2732 37.2607C17.3729 38.3619 18.3068 39.2058 19.4261 39.2058H19.9028L23.3338 76.499C23.516 78.4811 25.2257 80.0003 27.2741 80.0003H52.717C54.7654 80.0003 56.4749 78.4813 56.6573 76.499L60.0881 39.2058H60.5741C61.6932 39.2058 62.6274 38.3619 62.727 37.2607L64.3009 19.8657C64.414 18.6163 63.4177 17.5405 62.1481 17.5405Z" fill="#FFEACF"/>
<path d="M32.0684 76.499L28.6374 39.2058H28.1607C27.0416 39.2058 26.1075 38.3619 26.008 37.2607L24.4339 19.8657C24.321 18.6165 25.3171 17.5405 26.5867 17.5405H17.852C16.5824 17.5405 15.586 18.6165 15.6992 19.8657L17.2732 37.2607C17.3729 38.3619 18.3068 39.2058 19.426 39.2058H19.9026L23.3336 76.499C23.5159 78.4811 25.2255 80.0003 27.2738 80.0003H36.0085C33.9603 80.0003 32.2506 78.4813 32.0684 76.499Z" fill="#FFD59A"/>
<path d="M26.938 77.1533C26.3757 77.1533 25.9156 76.7611 25.8678 76.2413L22.2939 37.3946C22.24 36.8081 21.7421 36.3589 21.1459 36.3589H20.4082C20.0325 36.3589 19.7239 36.0803 19.6906 35.7106L18.7162 24.9421C18.7013 24.7791 18.7798 24.6678 18.8278 24.616C18.8758 24.5641 18.981 24.4771 19.1469 24.4771H60.1817C60.3476 24.4771 60.4528 24.5641 60.5008 24.616C60.5488 24.6678 60.6271 24.7791 60.6124 24.9423L59.638 35.7106C59.6047 36.0803 59.2961 36.3589 58.9204 36.3589H58.1734C57.5772 36.3589 57.0793 36.8081 57.0254 37.3946L53.4515 76.2413C53.4036 76.7611 52.9436 77.1533 52.3813 77.1533H26.938Z" fill="#58BFF1" fill-opacity="0.39"/>
<path d="M50.3919 76.2382C50.3561 76.2382 50.3198 76.2363 50.2834 76.2327C49.714 76.1742 49.3005 75.6707 49.3596 75.1083L51.5411 54.4048C51.6003 53.8423 52.1077 53.4343 52.6794 53.4923C53.2488 53.5508 53.6622 54.0543 53.6031 54.6167L51.4217 75.3202C51.3662 75.8467 50.9164 76.2382 50.3919 76.2382Z" fill="#E58D23"/>
<path d="M53.0662 51.3735C53.0304 51.3735 52.9941 51.3718 52.9577 51.3681C52.3883 51.3095 51.9749 50.8061 52.0339 50.2436L52.5659 45.1942C52.6253 44.6319 53.1327 44.2218 53.7042 44.2817C54.2736 44.3402 54.687 44.8437 54.6279 45.4061L54.096 50.4556C54.0404 50.982 53.5905 51.3735 53.0662 51.3735Z" fill="#E58D23"/>
<path d="M18.8278 24.616C18.7799 24.6678 18.7015 24.7789 18.7162 24.9421L19.6905 35.7106C19.7239 36.0803 20.0324 36.3589 20.4082 36.3589H21.1459C21.7421 36.3589 22.2399 36.8081 22.2938 37.3946L25.8677 76.2413C25.9156 76.7611 26.3755 77.1533 26.9378 77.1533H32.1904C32.1322 76.9418 32.0892 76.7237 32.0686 76.4988L28.6376 39.2056H28.1609C27.0418 39.2056 26.1077 38.3617 26.0082 37.2605L24.8516 24.4771H19.1467C18.9808 24.4771 18.8756 24.5641 18.8278 24.616Z" fill="#238ABC" fill-opacity="0.54"/>
<path d="M39.8662 32.0548L32.1093 36.503C30.8715 37.2128 29.2857 36.7971 28.5672 35.5743L24.1515 28.0606C23.433 26.8379 23.8538 25.2715 25.0916 24.5617L32.8487 20.1135C34.0866 19.4038 35.6723 19.8195 36.3908 21.0422L40.8066 28.5559C41.5249 29.7786 41.1041 31.345 39.8662 32.0548Z" fill="#FFA730"/>
<path d="M33.7811 33.1061L28.9069 24.8123C28.315 23.8051 28.6719 22.5087 29.7043 21.9165L24.7195 24.7751C23.6871 25.3671 23.3302 26.6636 23.9221 27.6709L28.7963 35.9647C29.3882 36.9719 30.7051 37.3086 31.7374 36.7166L36.7222 33.858C35.6899 34.45 34.373 34.1133 33.7811 33.1061Z" fill="#E58D23"/>
<path d="M35.183 73.9613L28.5791 67.966C27.5253 67.0093 27.4562 65.3899 28.4247 64.3491L34.4941 57.8257C35.4626 56.7848 37.1019 56.7165 38.1556 57.6732L44.7595 63.6686C45.8133 64.6252 45.8824 66.2446 44.9139 67.2854L38.8445 73.8088C37.876 74.8496 36.2367 74.9179 35.183 73.9613Z" fill="#FFA730"/>
<path d="M32.3769 68.5142L39.0282 61.3653C39.836 60.4971 41.2032 60.4402 42.0822 61.238L37.8384 57.3854C36.9594 56.5874 35.5921 56.6444 34.7843 57.5127L28.133 64.6615C27.3252 65.5298 27.3829 66.8803 28.2619 67.6783L32.5058 71.531C31.6268 70.7332 31.5691 69.3825 32.3769 68.5142Z" fill="#E58D23"/>
<path d="M38.4088 24.477L36.4047 21.0672C35.6781 19.8308 34.0745 19.4105 32.8229 20.1281L25.2393 24.4768H38.4088V24.477Z" fill="#FFB74B"/>
<path d="M29.7032 21.917L25.2393 24.4768H28.7497C28.4016 23.5332 28.7827 22.4453 29.7032 21.917Z" fill="#FFA730"/>
<path d="M32.4938 43.4732C33.8805 43.4732 35.0047 42.3628 35.0047 40.993C35.0047 39.6232 33.8805 38.5127 32.4938 38.5127C31.1071 38.5127 29.9829 39.6232 29.9829 40.993C29.9829 42.3628 31.1071 43.4732 32.4938 43.4732Z" fill="#238ABC" fill-opacity="0.54"/>
<path d="M39.9995 71.4306C38.7107 71.4306 37.666 70.3987 37.666 69.1256V2.30501C37.666 1.03194 38.7107 0 39.9995 0C41.2883 0 42.333 1.03194 42.333 2.30501V69.1258C42.333 70.3987 41.2883 71.4306 39.9995 71.4306Z" fill="#FF9079"/>
<path d="M40.1223 69.1258V2.30501C40.1223 1.47769 40.5649 0.754458 41.2276 0.347791C40.8705 0.128673 40.4507 0 39.9995 0C38.7107 0 37.666 1.03194 37.666 2.30501V69.1258C37.666 70.3989 38.7107 71.4308 39.9995 71.4308C40.4507 71.4308 40.8705 71.3022 41.2276 71.083C40.5649 70.6764 40.1223 69.953 40.1223 69.1258Z" fill="#FF624B"/>
<path d="M45.2597 54.1679L36.4122 52.7122C35.0004 52.4799 34.0466 51.1611 34.2817 49.7665L35.7554 41.0269C35.9905 39.6323 37.3256 38.6901 38.7374 38.9224L47.5849 40.3781C48.9967 40.6103 49.9505 41.9291 49.7154 43.3237L48.2418 52.0634C48.0066 53.4579 46.6715 54.4001 45.2597 54.1679Z" fill="#FFA730"/>
<path d="M39.8969 51.1208L41.5117 41.5433C41.7077 40.3801 42.8214 39.5942 43.9989 39.7879L38.3134 38.8526C37.1358 38.6589 36.0222 39.4447 35.8261 40.6079L34.2113 50.1855C34.0153 51.3487 34.8108 52.4487 35.9883 52.6424L41.6739 53.5777C40.4963 53.384 39.7008 52.284 39.8969 51.1208Z" fill="#E58D23"/>
</svg>
