<svg width="80" height="80" viewBox="0 0 80 80" fill="none" xmlns="http://www.w3.org/2000/svg">
<path d="M79.9109 32.8536C78.3925 46.3452 56.7979 41.9644 25.5818 42.3004C-5.63434 42.6363 1.78335 25.7584 17.4787 17.6554C18.836 16.9566 21.107 16.1504 22.7464 15.6128C24.7217 14.9544 26.8852 14.9544 28.7531 15.8547C28.7531 15.8547 28.78 15.8547 28.7934 15.8682L33.6982 16.0697C35.3108 15.5591 37.4339 15.2769 39.6512 16.0832H39.6781C40.0543 16.2041 40.444 16.3654 40.8203 16.5669C40.9815 16.6476 41.1428 16.7416 41.2906 16.8357H41.304C41.4384 16.9163 41.5594 17.0104 41.6803 17.1044C46.1282 20.1817 47.3511 27.3306 47.3645 27.4113C47.4854 28.0697 48.0498 28.54 48.6948 28.54C48.762 28.54 48.8427 28.54 48.9099 28.54C49.6489 28.4191 50.1461 27.7203 50.0252 26.9947C49.9714 26.6587 48.8427 20.1145 44.6635 16.0966C46.5179 15.2635 49.743 14.39 53.0218 16.11C58.1685 18.7976 59.5661 26.8738 59.5795 26.9544C59.687 27.6128 60.2514 28.0832 60.8964 28.0832C60.977 28.0832 61.0442 28.0697 61.1114 28.0563C61.8505 27.9353 62.3477 27.25 62.2267 26.5109C62.173 26.2019 61.1517 20.222 57.4294 16.1907C65.64 15.9622 81.3219 20.3564 79.9109 32.867V32.8536Z" fill="#E59E51"/>
<path d="M50.0249 26.9813C50.1458 27.707 49.6486 28.4058 48.9095 28.5267C48.8423 28.5267 48.7617 28.5267 48.6945 28.5267C48.0495 28.5267 47.4851 28.0564 47.3642 27.3979C47.3507 27.3173 46.1279 20.1684 41.68 17.0911C41.559 16.997 41.4381 16.903 41.3037 16.8358H41.2903C41.1425 16.7283 40.9812 16.6342 40.82 16.5536C40.4437 16.352 40.054 16.1908 39.6777 16.0698H44.6632C48.8423 20.0877 49.9711 26.632 50.0249 26.9679V26.9813Z" fill="#A86A54"/>
<path d="M38.7375 26.9004C38.8584 27.6664 38.3478 28.392 37.5818 28.5264C37.5012 28.5264 37.4206 28.5264 37.3534 28.5264C36.668 28.5264 36.0768 28.0426 35.9558 27.3438C35.9424 27.2767 34.8405 20.8399 30.9838 17.3327C30.4194 16.822 29.8013 16.3651 29.1025 16.0023C28.995 15.9486 28.901 15.8948 28.7935 15.8545L33.6983 16.0561C37.6087 20.289 38.6837 26.5645 38.7375 26.887V26.9004Z" fill="#A86A54"/>
<path d="M62.2264 26.4971C62.3473 27.2362 61.8501 27.9215 61.1111 28.0424C61.0439 28.0559 60.9767 28.0693 60.8961 28.0693C60.251 28.0693 59.6867 27.599 59.5792 26.9405C59.5657 26.8599 58.1682 18.7838 53.0215 16.0962L54.9565 16.1365L57.4291 16.1768C61.1514 20.2082 62.1727 26.188 62.2264 26.4971Z" fill="#A86A54"/>
<path d="M75.9734 55.0123C74.455 68.5039 52.8604 64.1231 21.6443 64.4591C-9.57184 64.795 -2.15415 47.9171 13.5412 39.8141C14.8985 39.1153 17.1695 38.309 18.8089 37.7715C20.7842 37.1131 22.9477 37.1131 24.8156 38.0134C24.8156 38.0134 24.8425 38.0134 24.8559 38.0269L29.7607 38.2284C31.3733 37.7178 33.4964 37.4356 35.7137 38.2419H35.7406C36.1168 38.3628 36.5065 38.5241 36.8828 38.7256C37.044 38.8062 37.2053 38.9003 37.3531 38.9944H37.3665C37.5009 39.075 37.6219 39.1691 37.7428 39.2631C42.1907 42.3404 43.4136 49.4893 43.427 49.57C43.5479 50.2284 44.1123 50.6987 44.7573 50.6987C44.8245 50.6987 44.9052 50.6987 44.9724 50.6987C45.7114 50.5778 46.2086 49.879 46.0877 49.1534C46.0339 48.8174 44.9052 42.2732 40.726 38.2553C42.5804 37.4222 45.8055 36.5487 49.0843 38.2687C54.231 40.9563 55.6286 49.0324 55.642 49.1131C55.7495 49.7715 56.3139 50.2419 56.9589 50.2419C57.0395 50.2419 57.1067 50.2284 57.1739 50.215C57.913 50.094 58.4102 49.4087 58.2892 48.6696C58.2355 48.3606 57.2142 42.3807 53.4919 38.3494C61.7025 38.1209 77.3844 42.5151 75.9734 55.0257V55.0123Z" fill="#FFBB5C"/>
<path d="M46.0883 49.14C46.2093 49.8657 45.7121 50.5645 44.973 50.6854C44.9058 50.6854 44.8252 50.6854 44.758 50.6854C44.113 50.6854 43.5486 50.2151 43.4277 49.5566C43.4142 49.476 42.1914 42.3271 37.7434 39.2498C37.6225 39.1557 37.5016 39.0617 37.3672 38.9945H37.3538C37.2059 38.887 37.0447 38.7929 36.8834 38.7123C36.5072 38.5107 36.1175 38.3495 35.7412 38.2285H40.7267C44.9058 42.2464 46.0346 48.7907 46.0883 49.1266V49.14Z" fill="#BF7B5F"/>
<path d="M34.8 49.0596C34.9209 49.8255 34.4103 50.5512 33.6443 50.6856C33.5637 50.6856 33.4831 50.6856 33.4159 50.6856C32.7305 50.6856 32.1393 50.2018 32.0183 49.503C32.0049 49.4358 30.903 42.9991 27.0463 39.4918C26.4819 38.9812 25.8638 38.5243 25.165 38.1615C25.0575 38.1077 24.9635 38.054 24.856 38.0137L29.7608 38.2152C33.6712 42.4482 34.7462 48.7236 34.8 49.0461V49.0596Z" fill="#BF7B5F"/>
<path d="M58.2889 48.6563C58.4098 49.3953 57.9126 50.0807 57.1736 50.2016C57.1064 50.215 57.0392 50.2285 56.9586 50.2285C56.3135 50.2285 55.7492 49.7582 55.6417 49.0997C55.6282 49.0191 54.2307 40.9429 49.084 38.2554L51.019 38.2957L53.4916 38.336C57.2139 42.3674 58.2352 48.3472 58.2889 48.6563Z" fill="#BF7B5F"/>
</svg>
