<svg width="80" height="80" viewBox="0 0 80 80" fill="none" xmlns="http://www.w3.org/2000/svg">
<path d="M80 35.4263V49.5953L0 49.8532V35.4263H80Z" fill="#947979"/>
<path d="M80 49.5952V58.3775L0 58.6353V49.8531L80 49.5952Z" fill="#FF4D80"/>
<path d="M80 58.3774V73.9075H0V58.6353L80 58.3774Z" fill="#FCDDB0"/>
<path d="M80 35.4259H0L40.9742 18.6064C39.5845 23.1337 42.3209 26.5721 47.765 26.5721H53.51C58.6963 26.5721 61.4183 23.4775 60.4871 19.2798L80 35.4259Z" fill="#795757"/>
<path d="M53.4953 26.5722H47.7503C42.3062 26.5722 39.5841 23.1338 40.9595 18.6066C41.1601 17.9619 41.4323 17.3029 41.8048 16.6152L45.2575 10.1969C48.2088 4.72409 53.0225 4.72409 55.9738 10.1969L59.4409 16.6152C59.9423 17.5321 60.2718 18.4347 60.4724 19.28C61.3893 23.4777 58.6672 26.5722 53.4953 26.5722Z" fill="#FF4D80"/>
</svg>
