<svg width="80" height="80" viewBox="0 0 80 80" fill="none" xmlns="http://www.w3.org/2000/svg">
<path d="M74.0959 63.5615H19.7178L20.9331 65.9936C21.3848 66.8969 22.0791 67.6565 22.9382 68.1874C23.7973 68.7183 24.7873 68.9994 25.7972 68.9993H68.0164C69.0263 68.9994 70.0163 68.7183 70.8754 68.1874C71.7345 67.6565 72.4288 66.8969 72.8805 65.9936L74.0959 63.5615Z" fill="#BACED3"/>
<path d="M63.2205 30.9351V35.0134H70.8906C71.4901 35.0132 72.0838 35.1312 72.6377 35.3605C73.1917 35.5899 73.695 35.9261 74.1189 36.3501C74.5429 36.774 74.8791 37.2773 75.1085 37.8313C75.3378 38.3852 75.4558 38.9789 75.4556 39.5785C75.4555 41.0512 75.1562 42.5085 74.576 43.8621L74.2022 44.7349C73.3638 46.6912 71.9699 48.3586 70.193 49.5304C68.4162 50.7021 66.3346 51.3268 64.2061 51.3268H57.7827V55.4052H65.3236C67.9353 55.4048 70.4907 54.6469 72.6803 53.2232C74.8698 51.7996 76.5993 49.7713 77.6593 47.3844C78.8945 44.6046 79.5331 41.5967 79.534 38.5548V38.219C79.534 36.2872 78.7665 34.4345 77.4005 33.0685C76.0345 31.7025 74.1818 30.9351 72.25 30.9351H63.2205Z" fill="#BACED3"/>
<path d="M25.1562 28.2163H68.6587V41.8108C68.6587 47.5796 66.3671 53.1121 62.2879 57.1913C58.2088 61.2704 52.6763 63.5621 46.9075 63.5621C41.1387 63.5621 35.6062 61.2704 31.527 57.1913C27.4479 53.1121 25.1563 47.5796 25.1562 41.8108V28.2163Z" fill="#D6E4E8"/>
<path d="M47.1603 59.2114L26.5156 52.686L5.87099 59.2114C4.36814 59.6866 3.05557 60.6278 2.12338 61.8987C1.19118 63.1697 0.687763 64.7044 0.686035 66.2806C0.686035 67.0017 0.97249 67.6932 1.48238 68.2031C1.99228 68.713 2.68384 68.9995 3.40494 68.9995H49.6263C50.3474 68.9995 51.039 68.713 51.5489 68.2031C52.0588 67.6932 52.3452 67.0017 52.3452 66.2806C52.3435 64.7044 51.8401 63.1697 50.9079 61.8987C49.9757 60.6278 48.6631 59.6866 47.1603 59.2114Z" fill="#F4933B"/>
<path d="M43.1458 50.5637L26.5156 48.6074L9.88547 50.5637C9.09382 50.657 8.33235 50.9231 7.655 51.3434C6.97764 51.7636 6.40096 52.3276 5.9658 52.9955C5.53063 53.6634 5.24761 54.4187 5.13679 55.2081C5.02597 55.9975 5.09006 56.8016 5.32451 57.5635L8.25277 67.0797C8.42369 67.6353 8.76821 68.1216 9.23577 68.467C9.70334 68.8125 10.2693 68.999 10.8507 68.9992H42.1806C42.762 68.999 43.328 68.8125 43.7955 68.467C44.2631 68.1216 44.6076 67.6353 44.7785 67.0797L47.7068 57.5635C47.9412 56.8016 48.0053 55.9975 47.8945 55.2081C47.7837 54.4187 47.5007 53.6634 47.0655 52.9955C46.6303 52.3276 46.0537 51.7636 45.3763 51.3434C44.6989 50.9231 43.9375 50.657 43.1458 50.5637Z" fill="#E2771E"/>
<path d="M38.0806 44.5298H14.9509C14.5437 44.5299 14.1418 44.6214 13.7748 44.7975C13.4078 44.9737 13.085 45.2301 12.8303 45.5477C12.5755 45.8653 12.3954 46.236 12.3032 46.6325C12.2109 47.0291 12.2089 47.4413 12.2972 47.8387L16.5265 66.871C16.6605 67.4739 16.9957 68.0132 17.4771 68.4001C17.9584 68.787 18.5571 68.9986 19.1747 68.9999H33.8568C34.4753 68.9998 35.0753 68.7888 35.5577 68.4018C36.0401 68.0148 36.3762 67.4748 36.5104 66.871L40.7397 47.8387C40.8281 47.4408 40.826 47.0282 40.7334 46.6312C40.6409 46.2343 40.4602 45.8632 40.2049 45.5455C39.9496 45.2278 39.6261 44.9716 39.2584 44.7958C38.8907 44.6199 38.4882 44.529 38.0806 44.5298Z" fill="#F4933B"/>
<path d="M42.8287 24.1375C43.1892 24.1375 43.535 23.9943 43.79 23.7393C44.0449 23.4844 44.1881 23.1386 44.1881 22.778V21.4186C44.1881 20.6975 44.4746 20.0059 44.9845 19.496C45.4944 18.9861 46.1859 18.6997 46.907 18.6997C48.3492 18.6997 49.7324 18.1268 50.7522 17.107C51.7719 16.0872 52.3449 14.7041 52.3449 13.2619V11.9024C52.3449 11.5419 52.2016 11.1961 51.9467 10.9411C51.6917 10.6862 51.346 10.543 50.9854 10.543C50.6249 10.543 50.2791 10.6862 50.0241 10.9411C49.7692 11.1961 49.626 11.5419 49.626 11.9024V13.2619C49.626 13.983 49.3395 14.6745 48.8296 15.1844C48.3197 15.6943 47.6281 15.9808 46.907 15.9808C45.4649 15.9808 44.0817 16.5537 43.0619 17.5735C42.0421 18.5933 41.4692 19.9764 41.4692 21.4186V22.778C41.4692 23.1386 41.6125 23.4844 41.8674 23.7393C42.1224 23.9943 42.4681 24.1375 42.8287 24.1375Z" fill="#D6E4E8"/>
<path d="M57.7828 24.1375C58.1433 24.1375 58.4891 23.9943 58.7441 23.7393C58.999 23.4844 59.1422 23.1386 59.1422 22.778V21.4186C59.1422 20.6975 59.4287 20.0059 59.9386 19.496C60.4485 18.9861 61.1401 18.6997 61.8611 18.6997C63.3033 18.6997 64.6865 18.1268 65.7063 17.107C66.726 16.0872 67.299 14.7041 67.299 13.2619V11.9024C67.299 11.5419 67.1557 11.1961 66.9008 10.9411C66.6458 10.6862 66.3001 10.543 65.9395 10.543C65.579 10.543 65.2332 10.6862 64.9782 10.9411C64.7233 11.1961 64.5801 11.5419 64.5801 11.9024V13.2619C64.5801 13.983 64.2936 14.6745 63.7837 15.1844C63.2738 15.6943 62.5822 15.9808 61.8611 15.9808C60.419 15.9808 59.0358 16.5537 58.016 17.5735C56.9963 18.5933 56.4233 19.9764 56.4233 21.4186V22.778C56.4233 23.1386 56.5666 23.4844 56.8215 23.7393C57.0765 23.9943 57.4222 24.1375 57.7828 24.1375Z" fill="#D6E4E8"/>
<path d="M27.8751 24.1375C28.2356 24.1375 28.5814 23.9943 28.8364 23.7393C29.0913 23.4844 29.2345 23.1386 29.2345 22.778V21.4186C29.2345 20.6975 29.521 20.0059 30.0309 19.496C30.5408 18.9861 31.2323 18.6997 31.9534 18.6997C33.3956 18.6997 34.7788 18.1268 35.7985 17.107C36.8183 16.0872 37.3912 14.7041 37.3912 13.2619V11.9024C37.3912 11.5419 37.248 11.1961 36.9931 10.9411C36.7381 10.6862 36.3923 10.543 36.0318 10.543C35.6712 10.543 35.3255 10.6862 35.0705 10.9411C34.8156 11.1961 34.6723 11.5419 34.6723 11.9024V13.2619C34.6723 13.983 34.3859 14.6745 33.876 15.1844C33.3661 15.6943 32.6745 15.9808 31.9534 15.9808C30.5112 15.9808 29.1281 16.5537 28.1083 17.5735C27.0885 18.5933 26.5156 19.9764 26.5156 21.4186V22.778C26.5156 23.1386 26.6589 23.4844 26.9138 23.7393C27.1687 23.9943 27.5145 24.1375 27.8751 24.1375Z" fill="#D6E4E8"/>
</svg>
