<svg width="80" height="80" viewBox="0 0 80 80" fill="none" xmlns="http://www.w3.org/2000/svg">
<path d="M14.4068 32.9182C14.1128 34.9976 14.0594 37.0621 13.7629 39.0639C13.6315 40.069 13.4617 41.0674 13.2806 42.0696C13.0945 43.0233 12.8945 44.0473 12.6902 45.0934C12.4939 46.1107 12.3552 47.139 12.2748 48.173C12.2051 49.2079 12.2204 50.2471 12.3208 51.2794C12.5021 53.3483 13.0506 55.3792 13.7583 57.3262L14.0216 58.0556L14.2918 58.7805C14.4815 59.2782 14.6622 59.7531 14.8396 60.2191L15.9311 63.0828C16.6734 64.984 17.4095 66.9189 18.3783 68.7973C18.8614 69.7442 19.4164 70.6501 20.0383 71.5064C20.6788 72.359 21.3975 73.1459 22.1844 73.8561C22.9713 74.5674 23.8268 75.1936 24.7374 75.725C25.1997 75.9761 25.6625 76.2236 26.1332 76.448C26.6164 76.6482 27.0848 76.8747 27.5737 77.0462C28.0627 77.2177 28.5408 77.4083 29.0318 77.5559C29.5205 77.7116 30.0042 77.8701 30.4943 78.0042C30.9789 78.1553 31.4649 78.2944 31.9524 78.4215C32.4363 78.5647 32.9221 78.6919 33.4097 78.8183C35.3724 79.3221 37.3673 79.6818 39.3793 79.8946C43.4295 80.2945 47.7093 79.5721 51.2593 77.4792C53.0447 76.4682 54.731 75.3522 56.4083 74.2324L57.6672 73.3898L58.2937 72.9613L58.9197 72.53C59.7541 71.9519 60.5778 71.3517 61.3747 70.7118C62.9615 69.4283 64.3717 67.9277 65.5664 66.2515C66.7603 64.5808 67.7015 62.7352 68.5987 60.9052L71.2736 55.4345C72.17 53.6171 73.0591 51.7541 73.5627 49.7365C73.817 48.7235 73.9863 47.6899 74.0689 46.6469L74.1241 45.8584C74.1379 45.5959 74.1288 45.3274 74.1317 45.0637C74.1247 44.53 74.0911 43.9971 74.0311 43.467C73.9578 42.9308 73.8445 42.4013 73.6921 41.8831C73.5331 41.3584 73.3104 40.8567 73.0291 40.3899C72.7429 39.9253 72.3712 39.5233 71.9349 39.2067C71.5815 38.9695 71.1853 38.8084 70.7701 38.733C70.6906 38.7001 70.6159 38.6645 70.5331 38.6381C70.4029 38.5966 70.2762 38.5689 70.1473 38.5328C68.415 37.7936 66.5205 37.5553 64.6669 37.8435C62.6429 38.1307 60.7285 38.9046 58.925 39.7162C57.1154 40.5367 55.3855 41.405 53.6666 42.0748C51.9538 42.7406 50.3002 43.2908 48.6431 43.4759C47.8129 43.5852 46.9762 43.6331 46.1393 43.6191C45.7125 43.6411 45.2871 43.5801 44.8509 43.563C44.4121 43.5217 43.9761 43.4535 43.5451 43.3589L42.8948 43.1958L42.243 43.0164C41.7902 42.9263 41.4179 42.6739 41.0054 42.4913L40.4037 42.1826C40.2127 42.063 40.0292 41.9312 39.8542 41.788C39.5044 41.5005 39.1242 41.2537 38.8199 40.9092C38.5156 40.5648 38.2196 40.2161 37.9397 39.8582C37.6796 39.4725 37.4628 39.0513 37.2251 38.6578C36.7959 37.8163 36.4244 36.9591 36.0554 36.0567C35.2872 34.1917 34.3018 32.4303 33.1208 30.8115C31.8166 29.0785 30.2354 27.5881 28.4454 26.4045L27.0663 25.585C26.6242 25.2909 26.1162 25.1255 25.6532 24.8816C24.7274 24.3762 23.7388 24.0907 22.788 23.6837C22.6506 23.6221 22.5103 23.5677 22.3676 23.5208C22.1861 23.4802 22.0049 23.4287 21.8208 23.3938C21.4447 23.3516 21.0645 23.3724 20.6948 23.4551C20.0222 23.6257 19.3923 23.9417 18.8468 24.3823C17.9411 25.0951 17.1597 25.9619 16.5362 26.9457C15.3483 28.8008 14.705 30.8443 14.4068 32.9182Z" fill="#FF4D80" fill-opacity="0.2"/>
<path d="M61.5468 38.9891C61.6036 39.3559 61.6457 39.7238 61.6772 40.0917C61.692 40.2748 61.7079 40.4691 61.722 40.6437L61.7538 41.1964C61.7991 41.9331 61.79 42.6722 61.7266 43.4075C61.6176 44.8798 61.5109 46.3548 61.1186 47.794C60.9437 48.4784 60.755 49.2134 60.5681 49.9436C60.3679 50.6545 60.1004 51.3513 59.8934 52.0566C59.6631 52.7569 59.5171 53.4763 59.2702 54.1711C59.0377 54.8695 58.827 55.5745 58.6429 56.2921C58.484 57.0181 58.2274 57.715 57.9977 58.4254C57.7472 59.1272 57.5596 59.8625 57.2143 60.528C56.8838 61.2008 56.5261 61.8606 56.1492 62.5068C55.7782 63.1565 55.2664 63.7211 54.8096 64.3093L54.0942 65.1681L53.2938 65.9514L52.8981 66.3432L52.5118 66.7417C52.2611 67.0144 51.9916 67.268 51.7052 67.5003C51.1428 67.979 50.6178 68.5 50.0727 69.0018C49.4928 69.4583 48.9208 69.9322 48.3463 70.4148C47.1421 71.2821 45.8505 72.0796 44.4333 72.5297C44.0835 72.6525 43.7394 72.7941 43.3823 72.8883L42.2999 73.1208C41.5854 73.2898 40.8585 73.3973 40.1268 73.4421C37.213 73.7112 34.3748 73.6006 31.4695 73.4037C31.107 73.3709 30.736 73.3786 30.3769 73.3092L29.2959 73.1056L28.2166 72.8671C27.8632 72.7601 27.5153 72.6341 27.1746 72.4897C26.4964 72.1927 25.785 71.971 25.1668 71.543C24.5396 71.1397 23.8988 70.7662 23.3146 70.3101L21.6137 68.8869C21.0732 68.3882 20.5668 67.8531 20.0203 67.3682C19.4544 66.9005 19.0093 66.3134 18.4767 65.8065L17.683 65.0341L16.9535 64.2003C16.4773 63.6353 15.9392 63.0977 15.521 62.4815C15.1051 61.8642 14.7024 61.2316 14.3317 60.5801C13.9384 59.9402 13.7106 59.2212 13.4353 58.5269C13.1632 57.832 12.947 57.1151 12.7889 56.3835C12.63 55.6538 12.4688 54.9291 12.2872 54.2148C12.0821 53.5067 11.9869 52.7745 11.7912 52.0676C11.6261 51.3534 11.3844 50.6563 11.1838 49.9476C11.0012 49.2567 10.8048 48.5137 10.6185 47.8094C10.198 46.3808 10.0848 44.9076 10.0345 43.4355C10.0059 42.6992 10.0228 41.9617 10.0853 41.2276C10.1077 40.8502 10.1297 40.4803 10.1505 40.1281C10.1575 39.9404 10.1643 39.7575 10.171 39.5796L10.1767 39.3057C10.1767 39.1646 10.1753 39.0256 10.1747 38.8877C10.1627 38.2998 10.1513 37.7277 10.1397 37.1516L10.1257 36.7144C10.0939 36.6119 10.1763 36.624 10.2499 36.6271L10.4597 36.6251L11.2994 36.6132L12.8816 36.5698L13.9287 36.5055C15.3237 36.4071 16.7183 36.2722 18.1133 36.2279C19.5088 36.16 20.9072 36.1953 22.2979 36.3335L24.3901 36.5657C25.0875 36.6363 25.785 36.6939 26.4823 36.7092C27.1795 36.7244 27.8772 36.7146 28.5746 36.6763C28.9234 36.658 29.2721 36.6315 29.6208 36.5971L30.6668 36.4909L32.7592 36.2738C33.4564 36.2153 34.1538 36.184 34.8514 36.1799C37.641 36.1328 40.4312 36.623 43.2203 36.6319L45.3127 36.6438L47.4049 36.6196C48.7999 36.5915 51.7867 36.616 53.1815 36.5017C53.0663 36.8358 52.9094 37.1529 52.7148 37.4451C52.4347 37.8785 51.641 38.2865 51.641 38.2865C48.8515 38.3096 46.0099 38.324 43.2203 38.2651L41.1281 38.1831L39.0359 38.0597C37.641 37.9712 36.2463 37.9218 34.8514 37.9317L33.805 37.9561L32.7592 38.0144L30.6668 38.1962C29.2764 38.3367 27.8788 38.3878 26.4823 38.349C25.785 38.3259 25.0875 38.2582 24.3901 38.1785L22.2979 37.9274C20.9072 37.7862 19.5077 37.7621 18.1133 37.8554C16.7183 37.9328 15.3237 38.1073 13.9287 38.251L12.8826 38.3469C12.673 38.361 12.6123 38.3743 12.5225 38.3864L12.272 38.4192C11.8074 38.3178 12.0046 38.8085 11.9761 39.1194C11.9688 39.4194 11.9612 39.7309 11.9531 40.064L11.8904 41.1362C11.8277 41.8493 11.8171 42.5663 11.8586 43.2811C11.8935 43.9944 11.9702 44.7049 12.0883 45.4086C12.1845 46.1159 12.4433 46.7974 12.6994 47.4718C12.9632 48.1446 13.2436 48.8087 13.4835 49.4738C13.7531 50.1179 13.9775 50.7811 14.155 51.4584C14.3438 52.1232 14.3934 52.8319 14.5261 53.5128C14.5487 53.6742 14.5721 53.841 14.5991 54.0343C14.6163 54.1966 14.6355 54.3789 14.6552 54.5641C14.681 54.9069 14.7098 55.2862 14.7369 55.646C14.7766 56.3682 14.8919 57.0839 15.0808 57.7805C15.2746 58.4659 15.4496 59.1753 15.8121 59.7825C16.1515 60.4025 16.5277 61.0003 16.9385 61.5724C17.3494 62.143 17.895 62.6125 18.3692 63.1172L19.0983 63.8527C19.3622 64.0759 19.6186 64.3026 19.8677 64.5329C20.3791 64.9798 20.7973 65.5146 21.3126 65.9427C21.8143 66.3844 22.2688 66.8848 22.7525 67.3557C23.2636 67.7891 23.7653 68.2458 24.271 68.7145C24.7929 69.1551 25.3719 69.5156 25.9391 69.9061C26.4972 70.3203 27.1539 70.5279 27.7771 70.8077C28.0907 70.9434 28.4115 71.0605 28.738 71.1585L29.7395 71.3702L30.7438 71.5451C31.0768 71.6042 31.4249 71.5867 31.7621 71.6108C32.4457 71.6032 33.1068 71.7124 33.7831 71.684C34.4565 71.6766 35.125 71.6974 35.7939 71.7301C36.4627 71.6973 37.132 71.6851 37.805 71.6863C38.4797 71.7001 39.1404 71.5817 39.8168 71.5519C42.49 71.3044 45.1917 70.4513 47.3421 68.7435C47.8642 68.2981 48.3827 67.8608 48.9159 67.4488C49.4157 66.9916 49.9026 66.5216 50.4284 66.0938C50.9741 65.6873 51.4159 65.1622 51.9484 64.7211L52.732 64.0328C52.9704 63.7713 53.207 63.5106 53.4356 63.2594C53.8855 62.7255 54.3789 62.2104 54.727 61.5961C55.0818 60.9854 55.4044 60.3554 55.6934 59.7089C55.994 59.0703 56.1226 58.3445 56.3077 57.6599C56.4724 56.9642 56.6574 56.2883 56.7622 55.5806C56.8895 54.8914 57.0568 54.2108 57.2633 53.5423C57.4807 52.8825 57.6112 52.1903 57.8287 51.5239C58.0249 50.8511 58.2897 50.1937 58.4926 49.5152C58.6833 48.822 58.8793 48.1125 59.0594 47.4595C59.4653 46.0862 59.5682 44.6546 59.6729 43.2332C59.7342 42.5209 59.7409 41.8046 59.6928 41.0912L59.6588 40.5543C59.6438 40.3853 59.627 40.1961 59.6111 40.0179C59.5418 39.2079 59.4229 38.4032 59.255 37.6087C59.255 37.6087 59.9614 38.3785 60.5455 38.6826C60.8547 38.8564 61.1959 38.9609 61.5468 38.9891Z" fill="#503D3F"/>
<path d="M59.2524 78.8044C58.9408 78.8737 58.6288 78.928 58.3172 78.9713L57.8497 79.0342L57.382 79.0834C56.7585 79.1421 56.135 79.184 55.5115 79.2014C54.2635 79.2425 53.0142 79.2046 51.7707 79.0878C50.5239 78.9702 49.2767 78.7803 48.0299 78.6823C46.7852 78.5798 45.5347 78.5737 44.2891 78.664C43.0421 78.7581 41.7951 78.9464 40.5482 79.0033C39.3006 79.0625 38.0504 79.0296 36.8073 78.9048L34.937 78.7194L34.4693 78.6786L34.0018 78.6498C33.69 78.6287 33.3783 78.6147 33.0666 78.6078C31.8171 78.5877 30.5676 78.6495 29.3257 78.7929C28.0834 78.9284 26.8335 78.9766 25.5848 78.9373L24.6496 78.8952L23.7144 78.8358L21.8441 78.6702C19.3502 78.4165 16.8563 78.3092 14.3624 78.6237L13.4272 78.7222L12.4919 78.8069C11.864 78.8397 11.2971 78.9196 10.45 78.8069C9.67173 78.689 8.92955 78.3903 8.2794 77.9332C7.64473 77.4822 7.11116 76.896 6.71467 76.214C6.3313 75.552 6.07242 74.8213 5.95161 74.0602C5.89292 73.689 5.86537 73.3133 5.86927 72.9373L5.86768 72.7975V72.792C7.37407 71.2364 6.28577 72.3608 6.6223 72.0136H6.62405H6.63137H6.64599L6.67524 72.0147L6.73374 72.0167L6.96743 72.0231L7.43512 72.0285C8.0586 72.0334 8.68208 72.0122 9.30555 71.9648C9.61735 71.9411 9.92903 71.9103 10.2406 71.8724L11.1758 71.7556C12.4151 71.56 13.664 71.4368 14.9167 71.3864C15.5402 71.3687 16.1638 71.3785 16.7871 71.4192C17.4105 71.4599 18.0341 71.5332 18.6576 71.6097C19.2811 71.6862 19.9045 71.7612 20.528 71.8111C21.1515 71.861 21.775 71.8777 22.3985 71.8688C23.6454 71.8623 24.8922 71.6652 26.1392 71.5193C27.3806 71.3673 28.6332 71.338 29.88 71.432C31.127 71.5283 32.3738 71.7515 33.6209 71.7948C34.8689 71.8288 36.1177 71.7922 37.3618 71.685C38.6088 71.5866 39.8556 71.4519 41.1025 71.4075C42.3502 71.3397 43.6012 71.375 44.8434 71.5132L46.7138 71.7453C47.3372 71.816 47.9608 71.8736 48.5843 71.8887C49.2076 71.9062 49.8312 71.8943 50.4547 71.8559C50.7665 71.8377 51.0782 71.8113 51.3898 71.7768L52.325 71.6706L54.1954 71.4535C54.8189 71.3947 55.4424 71.3635 56.0659 71.3596C58.5596 71.3125 61.0537 71.8027 63.5476 71.8116L64.4828 71.8198L64.9504 71.823H65.0672H65.1052C64.9019 71.6128 66.8774 73.6524 66.0411 72.7894V72.7961V72.8142L66.0379 72.8864L66.0245 73.175C65.9768 73.9496 65.7849 74.7073 65.4591 75.4068C64.9975 76.3751 64.283 77.1911 63.3961 77.7626C62.3973 78.4426 61.1847 78.6766 60.4277 78.7268C60.5551 78.3975 60.6989 78.0751 60.8585 77.7611C60.9918 77.5246 61.1487 77.3032 61.3266 77.1004L61.5955 76.7629C62.3695 76.5083 63.0523 76.0211 63.5567 75.3637C64.061 74.7063 64.3639 73.9086 64.4266 73.0725L64.4396 72.8639L64.4431 72.8119L64.444 72.7988V72.7924V72.7907C64.7391 73.0948 63.7837 72.1076 65.1057 73.4721H65.1014H65.072L64.9543 73.4706L64.4846 73.4635L63.5475 73.4448L61.677 73.3628L59.8066 73.2394C58.5595 73.1509 57.3127 73.1014 56.0657 73.1114L55.1303 73.1357L54.1953 73.1939L52.3248 73.3759C51.0829 73.5163 49.8329 73.5673 48.5841 73.5285C47.9606 73.5055 47.337 73.4379 46.7137 73.358L44.8432 73.1071C43.601 72.9659 42.3488 72.9417 41.1024 73.0351C39.8554 73.1125 38.6086 73.287 37.3616 73.4305C36.1203 73.5832 34.8709 73.6548 33.6208 73.645C32.3736 73.622 31.1269 73.3813 29.8799 73.3199C29.2563 73.2892 28.6314 73.3017 28.0095 73.3575C27.3786 73.4194 26.7533 73.5312 26.139 73.6921C25.5157 73.851 24.8921 74.0287 24.2687 74.1655C23.6537 74.301 23.0272 74.3735 22.3983 74.382C21.7714 74.3915 21.1451 74.339 20.5279 74.2251L20.0607 74.1329L19.5933 74.018L18.6581 73.753C18.0429 73.5612 17.4186 73.4021 16.7876 73.2761C16.1704 73.1618 15.5443 73.1065 14.9172 73.1109C14.2916 73.1098 13.6668 73.1528 13.0469 73.2395C12.4234 73.3247 11.7998 73.455 11.1763 73.5751C9.94741 73.8505 8.6931 73.9867 7.43559 73.9814L6.9679 73.9747L6.73422 73.9665L6.67572 73.9639L6.64647 73.9626H6.63184H6.62453H6.62278C7.12783 73.441 5.49092 75.1299 7.75481 72.7934V72.797V72.8889C7.74399 73.1364 7.75079 73.3844 7.77515 73.6309C7.82579 74.1471 7.96544 74.6498 8.18752 75.1152C8.42615 75.61 8.77095 76.0421 9.19571 76.3787C9.63688 76.722 10.1536 76.9471 10.6997 77.0336C11.22 77.1157 11.872 77.0565 12.4923 77.0138L13.4275 76.9199L14.3627 76.8074C16.8566 76.4439 19.3505 76.5358 21.8445 76.7543C24.3384 76.9729 26.8321 77.1223 29.326 76.827C29.9495 76.7668 30.573 76.7099 31.1965 76.6802C31.82 76.6505 32.4433 76.651 33.0669 76.6802C34.3137 76.7294 35.5608 76.9678 36.8076 77.1396C38.0472 77.3158 39.3022 77.3468 40.5485 77.2322C41.7955 77.1173 43.0424 76.7847 44.2894 76.596C45.5287 76.419 46.7831 76.3819 48.0303 76.4852C49.2771 76.5773 50.5242 76.7957 51.771 76.9355C53.0132 77.0723 54.2633 77.1185 55.5118 77.0737C56.1353 77.0561 56.7588 77.0131 57.3823 76.9524L57.85 76.9017L58.3175 76.8361C59.0298 76.7399 59.7348 76.5933 60.4277 76.3974C60.4277 76.3974 59.7516 77.1498 59.499 77.7616C59.3529 78.0897 59.2692 78.4437 59.2524 78.8044Z" fill="#503D3F"/>
<path d="M59.356 45.282C59.7328 44.7717 60.1735 44.3151 60.6665 43.9244C60.8543 43.7671 61.05 43.6201 61.2528 43.484C61.4571 43.3519 61.6609 43.2154 61.8757 43.1008C62.7327 42.6318 63.6551 42.3032 64.6099 42.1267C65.5645 41.9604 66.5372 41.9349 67.4987 42.0508C68.504 42.1526 69.4783 42.4666 70.3612 42.9733C71.2402 43.469 72.0082 44.1503 72.6151 44.9728C73.222 45.7954 73.6542 46.7407 73.8834 47.7472L74.0265 48.4934L74.0957 49.2469C74.1123 49.7478 74.0882 50.2491 74.0235 50.7458C73.9995 50.9935 73.9605 51.2393 73.9066 51.4819C73.8499 51.723 73.7909 51.9631 73.7224 52.2004C73.5723 52.672 73.3899 53.132 73.1767 53.577C72.7421 54.445 72.1898 55.2445 71.5363 55.9513C70.9016 56.6362 70.217 57.2697 69.4884 57.8465C68.0335 58.9527 66.5824 60.0899 64.97 60.9532C64.5691 61.1704 64.1513 61.3455 63.7347 61.5208C63.314 61.6857 62.891 61.8408 62.4654 61.9862C61.6161 62.2829 60.7511 62.5201 59.8852 62.741C59.0137 62.9392 58.1385 63.1092 57.2595 63.2509C56.8201 63.3231 56.3763 63.3657 55.9326 63.4128L55.2649 63.4736L54.5797 63.5052C54.6269 63.2573 54.6535 63.0057 54.6592 62.7532C54.6642 62.3181 54.6168 61.8841 54.5181 61.4611C55.3563 61.5075 56.0612 61.3823 56.9083 61.3066C57.3323 61.2604 57.7585 61.219 58.1801 61.1514L59.4444 60.9327C60.2788 60.7482 61.1136 60.5552 61.9278 60.2896C62.336 60.1612 62.741 60.0239 63.1426 59.8775C63.5423 59.7261 63.9325 59.5494 64.3111 59.3485C65.0571 58.9348 65.7679 58.4567 66.4359 57.9193L68.3985 56.3972C68.7141 56.139 69.0304 55.8873 69.3286 55.6154C69.6285 55.3471 69.9338 55.0808 70.2055 54.7856C70.7679 54.2122 71.2447 53.5559 71.6203 52.838C72.3576 51.4104 72.5241 49.6142 72.0098 48.1644C71.8909 47.809 71.7385 47.4665 71.5547 47.1419C71.378 46.8338 71.1743 46.543 70.9463 46.2732C70.5127 45.7502 69.9922 45.3112 69.4092 44.9768C68.7951 44.6041 68.1168 44.3578 67.4119 44.2515C66.6238 44.1192 65.8208 44.11 65.0299 44.2242C64.2323 44.3556 63.4621 44.626 62.7522 45.0239C62.5742 45.12 62.4074 45.238 62.2395 45.3501C62.0738 45.4659 61.915 45.5919 61.7641 45.7275C61.459 45.9818 61.1939 46.2835 60.9784 46.6217C60.68 46.2543 60.3442 45.9211 59.9769 45.6276C59.8447 45.5185 59.7011 45.425 59.5488 45.3486C59.4891 45.3143 59.4237 45.2917 59.356 45.282Z" fill="#503D3F"/>
<path d="M23.5001 62.5913C23.1467 62.6987 22.7736 62.7181 22.4115 62.6479C22.1273 62.5867 21.859 62.4637 21.6246 62.2868C21.5142 62.2027 21.4129 62.1064 21.3226 61.9997L21.0402 61.6922C20.8481 61.4908 20.678 61.2696 20.4969 61.0584C19.8019 60.1934 19.1953 59.2567 18.6865 58.2632C18.1847 57.2802 17.7825 56.2464 17.4863 55.1781L17.375 54.7817L17.2844 54.3785C17.2208 54.1117 17.1752 53.8394 17.1213 53.5718L17.008 52.7561C16.9795 52.4826 16.9591 52.2084 16.9468 51.9336L17.3529 52.6392L17.7504 53.3361C17.8814 53.5672 18.0033 53.8005 18.1418 54.0253L18.3438 54.3639L18.5387 54.7009C19.0743 55.5963 19.6291 56.4597 20.212 57.2884C20.7876 58.1118 21.4062 58.9022 22.065 59.6562C22.2309 59.8408 22.3858 60.0364 22.5611 60.2113L22.8174 60.4803C22.9037 60.5692 22.986 60.6608 23.0639 60.7593C23.2252 60.9772 23.3429 61.226 23.4103 61.4913C23.456 61.6482 23.4863 61.8093 23.5009 61.9724C23.522 62.1782 23.5217 62.3856 23.5001 62.5913Z" fill="#503D3F"/>
<path d="M16.17 48.5148C16.0094 48.4994 15.8503 48.4701 15.6944 48.4273C15.5848 48.3986 15.4783 48.3587 15.3764 48.3082C15.2375 48.2499 15.1211 48.1458 15.0456 48.012C15.022 47.9586 15.008 47.9012 15.0044 47.8427L14.9836 47.6702L14.9462 47.3248C14.9091 46.8607 14.9067 46.3944 14.9393 45.9299C14.9741 45.4572 15.0531 44.989 15.1752 44.532L15.2182 44.3585L15.2769 44.1851L15.3969 43.8405L15.5486 43.4991C15.6044 43.3837 15.6668 43.2718 15.7357 43.1641L15.9118 43.501L16.0662 43.8318L16.1997 44.16L16.2674 44.3224L16.3239 44.4849C16.4799 44.9056 16.6144 45.3345 16.7267 45.7698C16.8416 46.1954 16.921 46.6219 17.0035 47.0476L17.0537 47.3681L17.0801 47.5281C17.0924 47.5819 17.0945 47.6376 17.0861 47.6922C17.0492 47.8363 16.9693 47.9648 16.8579 48.0596C16.7759 48.1387 16.6873 48.2101 16.593 48.2729C16.4579 48.364 16.3165 48.4448 16.17 48.5148Z" fill="#503D3F"/>
<path d="M35.954 32.5815C35.9918 32.2463 35.9682 31.9067 35.8842 31.5805C35.8249 31.2496 35.7216 30.9287 35.5772 30.6269L35.3478 30.1809C35.3002 30.1033 35.2401 30.0347 35.1701 29.9781C35.1311 29.9454 35.0902 29.9151 35.0477 29.8873C35.0026 29.8562 34.9552 29.8287 34.9059 29.8053L34.6177 29.6489C34.5393 29.6041 34.4683 29.5468 34.4072 29.4792C34.3595 29.4213 34.3248 29.3533 34.3053 29.28C34.2931 29.2453 34.2838 29.2095 34.2775 29.1732C34.2689 29.1367 34.2632 29.0996 34.2603 29.0622C34.2034 28.7687 34.2733 28.4146 34.308 28.0571C34.3147 27.9704 34.3147 27.8833 34.308 27.7966C34.2996 27.7117 34.2845 27.6295 34.2684 27.5475L34.1714 27.0499C34.1141 26.7132 33.9982 26.3786 33.9117 26.0353C33.8686 25.8638 33.8163 25.6907 33.7557 25.5182L33.567 25.008C33.2858 24.3231 32.9239 23.6766 32.4897 23.0829C32.0366 22.4859 31.3671 21.9977 30.8501 21.3418C30.6026 20.9967 30.3995 20.6199 30.246 20.2208C30.1087 19.7955 30.0328 19.3517 30.0207 18.9036C30.0267 18.4531 30.0548 18.0031 30.105 17.5555C30.1623 17.1372 30.1921 16.7154 30.1942 16.293C30.2123 15.8877 30.1841 15.4817 30.1099 15.0832C30.0781 14.6574 29.9986 14.2176 29.9692 13.7541C29.9692 13.5153 29.9986 13.2782 30.0179 13.0338C30.0375 12.7867 30.0994 12.5451 30.2007 12.3203C30.2894 12.0858 30.4005 11.8609 30.5322 11.649C30.678 11.4519 30.842 11.2698 31.0218 11.1052C31.7662 10.4936 32.7094 10.4324 33.2257 9.95651C33.2936 9.90153 33.3552 9.83877 33.4093 9.76943C33.4682 9.70513 33.5194 9.63385 33.562 9.55709C33.6553 9.38312 33.6993 9.18559 33.6891 8.98702C33.6774 8.75509 33.6471 8.52457 33.5985 8.29781C33.5597 8.07381 33.4872 7.84063 33.4683 7.65569C33.4619 7.61091 33.4584 7.56574 33.4578 7.52047C33.4548 7.47885 33.4548 7.43705 33.4578 7.39543C33.464 7.32212 33.4809 7.2502 33.5079 7.18211C33.55 7.04251 33.614 6.91097 33.6972 6.7927C33.8664 6.55574 34.1912 6.38426 34.4306 6.12482C34.6893 5.9015 34.8889 5.61406 35.0106 5.2894C35.1235 4.96721 35.2109 4.63613 35.272 4.2994C35.3485 3.97006 35.3706 3.61331 35.4454 3.27165L35.503 3.01468L35.5799 2.76082C35.6267 2.59049 35.6972 2.42343 35.7621 2.25425C35.9963 1.5112 36.3402 0.809906 36.7816 0.17513C36.8627 0.0928422 36.9651 0.0364341 37.0765 0.0126573C37.1879 -0.0111196 37.3036 -0.0012578 37.4097 0.0410622C37.5026 0.0683404 37.5842 0.126762 37.6414 0.207129L37.6619 0.239949C37.7212 0.33452 37.774 0.433215 37.82 0.535325C37.8657 0.631492 37.9064 0.730089 37.942 0.830701C38.0159 1.0225 38.075 1.22003 38.1187 1.42145C38.2089 1.80624 38.2531 2.20099 38.2504 2.59688C38.2357 2.98789 38.178 3.37589 38.0784 3.75345C38.0551 3.84813 38.0238 3.94134 37.9918 4.03405C37.9599 4.12677 37.9328 4.22063 37.8947 4.31187C37.8199 4.49851 37.7343 4.68033 37.6384 4.85635C37.4486 5.20331 37.2796 5.56199 37.1324 5.93037C36.9701 6.28582 36.8252 6.64948 36.6983 7.01998C36.5798 7.39652 36.4303 7.76192 36.2516 8.11221C36.0889 8.47931 35.8555 8.8083 35.5654 9.07907C35.2907 9.36953 34.9227 9.56923 34.6396 9.82129C34.4997 9.94633 34.367 10.0797 34.2422 10.2207C34.1822 10.2936 34.1258 10.3696 34.0732 10.4483L33.9142 10.6861C33.8066 10.8478 33.7104 11.0173 33.6263 11.1933L33.5031 11.4621L33.3952 11.7373C33.272 12.0785 33.1666 12.4263 33.0796 12.7792C33.0568 12.9265 33.0209 13.0714 32.9723 13.212C32.9397 13.3668 32.9169 13.4746 32.8889 13.6093C32.8446 13.7345 32.8171 13.8652 32.8072 13.9981C32.7792 14.1308 32.7569 14.2636 32.7178 14.3919L32.6224 15.278C32.6356 15.4366 32.6484 15.5874 32.6635 15.7664C32.6894 15.929 32.7038 16.0906 32.7377 16.2506C32.82 16.5569 32.964 16.8418 33.1602 17.0867C33.2525 17.2145 33.3568 17.3327 33.4715 17.4394L33.6224 17.6046C33.6712 17.6552 33.7167 17.7092 33.7586 17.7661C33.9428 17.9611 34.0723 18.204 34.1335 18.4689C34.2298 18.7721 34.255 19.0945 34.2069 19.4097C34.1548 20.1517 33.8799 21.1829 34.0265 21.9806C34.1015 22.3625 34.2167 22.7348 34.3702 23.0909C34.4436 23.2665 34.5197 23.4394 34.6019 23.608L34.8611 24.1055L35.1455 24.5862C35.2497 24.7396 35.3494 24.8966 35.4426 25.0588C35.6276 25.3835 35.8376 25.6923 36.0021 26.0309C36.1635 26.3702 36.3186 26.6963 36.4864 27.0483C36.5701 27.2186 36.6466 27.3742 36.7367 27.557C36.8215 27.7267 36.9208 27.8917 36.9911 28.0683C37.1315 28.4233 37.2521 28.7863 37.3524 29.1555C37.4026 29.3415 37.4631 29.5245 37.5337 29.7034L37.7747 30.2492C37.9573 30.6138 38.0695 30.993 38.2282 31.3772C38.3791 31.7618 38.563 32.157 38.6991 32.5577C38.9075 33.1156 38.4646 33.691 37.7152 33.7842C36.9658 33.8774 36.1899 33.5321 35.9802 33.0698C35.9382 32.979 35.9212 32.878 35.9312 32.7779L35.954 32.5815Z" fill="#503D3F"/>
<path d="M25.7039 32.84C25.7421 32.321 25.6119 31.8036 25.3338 31.3694L25.1272 31.0456C25.079 30.9862 25.0177 30.9398 24.9483 30.9102C24.9069 30.8899 24.8644 30.8719 24.8211 30.8562L24.6851 30.807L24.4169 30.7179C24.3479 30.6945 24.2834 30.6589 24.2261 30.6127C24.1869 30.5739 24.1558 30.5271 24.135 30.4752C24.1226 30.4511 24.1127 30.4256 24.1058 30.3992C24.0969 30.3732 24.0908 30.3462 24.0875 30.3188C24.0443 30.1019 24.1654 29.8088 24.1861 29.5212C24.1894 29.4512 24.1929 29.3759 24.1961 29.3114C24.1946 29.2445 24.1893 29.1777 24.1802 29.1114C24.163 28.9771 24.1389 28.8439 24.1078 28.7123C24.0546 28.4434 23.9994 28.168 23.9163 27.8854L23.8025 27.4602L23.653 27.0346C23.4296 26.4621 23.1396 25.9199 22.7894 25.4197C22.4204 24.9128 21.8292 24.4773 21.4305 23.8365C21.2293 23.5066 21.095 23.138 21.0359 22.753C20.9767 22.368 20.994 21.9746 21.0865 21.5967C21.1289 21.4044 21.1811 21.214 21.2356 21.0334C21.3036 20.875 21.3706 20.7183 21.4263 20.5626C21.5449 20.2666 21.6175 19.9531 21.6416 19.6338C21.6816 19.3156 21.6767 18.993 21.6273 18.6763C21.5612 18.3495 21.5015 18.0062 21.4532 17.6529C21.4225 17.4756 21.4192 17.3016 21.4022 17.1229C21.4054 16.9457 21.4252 16.7692 21.4612 16.5958C21.515 16.2401 21.6603 15.9057 21.882 15.6276C22.3244 15.0318 23.1483 14.7579 23.4806 14.2535C23.5261 14.1936 23.5669 14.1301 23.6028 14.0636C23.643 13.9992 23.6745 13.9295 23.6963 13.8562C23.7404 13.6827 23.7423 13.5007 23.702 13.3262C23.6523 13.1121 23.5898 12.9014 23.5149 12.6952C23.4445 12.4768 23.3559 12.2827 23.3206 12.1123C23.3104 12.0723 23.303 12.0316 23.2985 11.9904C23.292 11.9529 23.2886 11.9149 23.2882 11.8769C23.289 11.8112 23.2976 11.7458 23.3138 11.6822C23.3374 11.567 23.3893 11.4599 23.4645 11.3713C23.6659 11.1875 23.8846 11.0249 24.1172 10.8859C24.3485 10.7427 24.5248 10.5215 24.6164 10.2597C24.7292 10.0213 24.7981 9.76342 24.8197 9.49909C24.8493 9.2303 24.8965 8.97398 24.9455 8.70404L24.986 8.5017L25.0461 8.30183C25.0874 8.1657 25.1369 8.03236 25.1942 7.90258C25.4262 7.37058 25.6494 6.80969 26.1257 6.24831C26.2293 6.12294 26.5072 6.06781 26.7456 6.12786C26.8353 6.146 26.9178 6.19111 26.9827 6.2575L27.0048 6.28327C27.0675 6.35714 27.1248 6.43574 27.1763 6.51842C27.226 6.5943 27.2713 6.67315 27.312 6.75455C27.3938 6.90646 27.4619 7.06575 27.5155 7.23044C27.6257 7.53596 27.6838 7.85886 27.6872 8.18483C27.6962 8.50304 27.662 8.82098 27.5855 9.12938C27.568 9.20829 27.5431 9.28524 27.5111 9.35911C27.4785 9.43509 27.4523 9.51205 27.4143 9.58655L27.19 10.0296C27.0353 10.3196 26.883 10.6072 26.7378 10.8964C26.5997 11.1862 26.4994 11.4822 26.3843 11.7792C26.1732 12.371 25.9606 13.0001 25.4812 13.431C25.2478 13.6537 24.962 13.8204 24.7456 14.0336C24.6411 14.1381 24.5517 14.2575 24.48 14.3882C24.445 14.4538 24.4141 14.5216 24.3875 14.5912C24.3578 14.6605 24.3327 14.7318 24.3123 14.8045C24.2705 14.9537 24.2424 15.1065 24.2282 15.2611L24.2097 15.4985C24.2129 15.5746 24.2167 15.6613 24.2201 15.7422C24.2323 16.0628 24.2786 16.3797 24.3027 16.6639C24.3156 16.7997 24.3189 16.9363 24.3126 17.0725C24.3178 17.2082 24.3058 17.3351 24.3032 17.4651C24.2873 17.609 24.2741 17.7192 24.2603 17.8399C24.2452 17.968 24.2376 18.0975 24.2152 18.2233C24.1686 18.4792 24.1389 18.738 24.1263 18.9981C24.1287 19.1272 24.1309 19.2478 24.1336 19.3998C24.1415 19.535 24.1566 19.6696 24.1789 19.8031C24.2493 20.0949 24.3619 20.374 24.5127 20.6312L24.7391 21.0334L24.8614 21.1618C24.9 21.1987 24.9362 21.2382 24.9696 21.2802C25.0797 21.4056 25.1467 21.5649 25.1604 21.7336C25.1483 21.948 25.09 22.1569 24.9898 22.3452C24.8698 22.6052 24.715 22.939 24.5662 23.2984C24.4304 23.6107 24.3592 23.9489 24.3572 24.2912C24.3552 24.6336 24.4224 24.9726 24.5546 25.2866C24.6065 25.4294 24.662 25.5703 24.7234 25.707L24.9272 26.1069L25.1612 26.4844L25.4109 26.8544C25.5812 27.0979 25.7363 27.3546 25.8915 27.6115C26.0505 27.8657 26.1644 28.1483 26.3151 28.4097C26.3957 28.538 26.4782 28.6655 26.5488 28.8009C26.6248 28.9375 26.7043 29.0799 26.7725 29.2033C26.9205 29.4738 27.0328 29.7634 27.1063 30.0646C27.1592 30.2127 27.223 30.3565 27.2971 30.4946L27.5197 30.9268C27.8475 31.5067 28.1053 32.1319 28.4484 32.7918C28.6598 33.2513 28.219 33.7281 27.4702 33.7913C26.7215 33.8545 25.9441 33.5683 25.7319 33.2152C25.6903 33.1488 25.6725 33.0695 25.6816 32.991L25.7039 32.84Z" fill="#503D3F"/>
<path d="M43.9869 32.9268C44.0514 32.3925 43.8629 31.8861 43.6402 31.4065C43.5843 31.2853 43.5211 31.1679 43.4509 31.055C43.4023 30.9935 43.3436 30.9413 43.2774 30.9009C43.2383 30.8757 43.1979 30.8528 43.1563 30.8323L43.025 30.7675L42.7644 30.6431C42.6963 30.6092 42.6343 30.5634 42.5813 30.5077C42.5429 30.4631 42.5173 30.4083 42.5072 30.3495C42.4997 30.3218 42.4952 30.2933 42.4937 30.2645C42.4878 30.2372 42.4841 30.2094 42.4829 30.1815C42.4624 29.959 42.5953 29.6849 42.6806 29.4091C42.6965 29.3425 42.7182 29.2724 42.7283 29.2072C42.734 29.1449 42.7358 29.0823 42.7337 29.0197L42.7268 28.6434C42.7273 28.3862 42.7092 28.1292 42.6725 27.8748L42.6285 27.4809C42.6072 27.3515 42.5686 27.2269 42.5388 27.0976C42.402 26.5837 42.1582 26.1069 41.8244 25.7003C41.4747 25.2876 40.8972 25.0639 40.4323 24.6479C39.9347 24.1996 39.6145 23.5778 39.5327 22.9013C39.4819 22.5331 39.4874 22.142 39.4706 21.791C39.4813 21.4442 39.4668 21.097 39.4272 20.7524C39.3946 20.4212 39.335 20.0933 39.2488 19.7724C39.1703 19.4529 39.0386 19.1316 38.956 18.7813C38.9164 18.6018 38.9053 18.4218 38.8814 18.2368C38.8606 18.0523 38.8673 17.8656 38.9013 17.6831C38.9554 17.2977 39.1116 16.9351 39.3528 16.6355C39.8503 15.9898 40.724 15.8282 41.0941 15.4145C41.1453 15.3651 41.1918 15.3108 41.2329 15.2522C41.2785 15.1977 41.3151 15.136 41.3415 15.0694C41.3926 14.9124 41.405 14.7448 41.3776 14.5817C41.3383 14.3792 41.276 14.1822 41.1919 13.9947C41.1142 13.8004 41.0355 13.6227 40.9706 13.4852C40.9563 13.4532 40.9439 13.4203 40.9334 13.3867C40.9227 13.3584 40.9141 13.3292 40.9078 13.2994C40.8976 13.2537 40.8973 13.2062 40.9069 13.1603C40.9091 13.0777 40.9405 12.9987 40.9951 12.9383C41.1165 12.8263 41.3399 12.7003 41.5462 12.5471C41.6462 12.4801 41.7319 12.3928 41.7981 12.2905C41.8643 12.1882 41.9096 12.073 41.9311 11.952C42.0003 11.7208 42.0223 11.4772 41.9958 11.2367C41.9882 10.9753 41.9817 10.7507 41.9739 10.4891L41.9772 10.2951L42.0001 10.0995C42.0163 9.96583 42.0408 9.83334 42.0735 9.70291C42.1813 9.09767 42.3863 8.51529 42.6802 7.97988C42.7587 7.84221 43.0212 7.73374 43.2666 7.74161C43.3571 7.74012 43.446 7.7654 43.523 7.81447L43.5493 7.83417C43.6242 7.89016 43.695 7.95199 43.7608 8.0191C43.8234 8.07983 43.8824 8.14438 43.9375 8.21241C44.0453 8.33731 44.1415 8.47235 44.2249 8.61576C44.3893 8.87868 44.507 9.16975 44.5725 9.47531C44.6394 9.77348 44.6637 10.0801 44.6447 10.3856C44.6402 10.4626 44.6312 10.5393 44.618 10.6153C44.6042 10.6944 44.5862 10.7728 44.5643 10.85C44.5183 10.9976 44.4714 11.1498 44.4204 11.314C44.207 11.9062 44.0353 12.5135 43.9065 13.1312C43.7726 13.7335 43.6089 14.4081 43.11 14.8406C42.8784 15.0663 42.5695 15.2026 42.3487 15.3919C42.2355 15.4786 42.1358 15.5828 42.053 15.7007C42.0124 15.7592 41.9753 15.8202 41.9418 15.8833C41.9067 15.9459 41.8749 16.0103 41.8464 16.0763C41.7839 16.2103 41.7397 16.3525 41.7151 16.499L41.6775 16.7206C41.666 16.7955 41.6613 16.8713 41.6632 16.9472C41.6652 17.2235 41.6879 17.4993 41.7311 17.7721C41.7453 17.9119 41.7567 18.0263 41.7655 18.1142C41.7783 18.2257 41.7731 18.3276 41.7763 18.4291C41.772 18.5354 41.7736 18.6418 41.781 18.7478C41.7747 18.8542 41.7752 18.9611 41.7596 19.0642C41.7486 19.2831 41.7685 19.5256 41.7677 19.7534C41.77 19.8625 41.7911 19.9703 41.8298 20.0718C41.8694 20.1681 41.8963 20.2639 41.9411 20.3552C42.0526 20.5419 42.2122 20.693 42.4021 20.7915C42.5005 20.8473 42.6194 20.8949 42.7201 20.9392L42.8631 21.0058L43.0021 21.0741C43.1765 21.1598 43.3139 21.3091 43.3881 21.4932C43.4796 21.7375 43.5176 21.9997 43.4993 22.261C43.4601 22.9082 43.2353 23.8723 43.3122 24.5328C43.3569 24.8437 43.4331 25.149 43.5396 25.4435L43.6965 25.8587L43.8699 26.2592C43.936 26.3867 44.0101 26.509 44.0692 26.6404L44.2688 27.022C44.4086 27.2728 44.5318 27.5332 44.6374 27.8013C44.7369 28.0719 44.8498 28.3374 44.9385 28.6112C44.994 28.7456 45.0425 28.8633 45.1041 29.0125L45.2806 29.414C45.3811 29.6868 45.4552 29.9692 45.5019 30.257C45.5353 30.4019 45.5864 30.5419 45.654 30.6735C45.7295 30.809 45.7812 30.9482 45.8457 31.0871C46.1022 31.6428 46.4102 32.2156 46.7287 32.8044C46.9601 33.2127 46.5433 33.6618 45.7988 33.7705C45.0544 33.8791 44.264 33.6556 44.0343 33.3046C43.9893 33.2394 43.9675 33.1603 43.9724 33.0804L43.9869 32.9268Z" fill="#503D3F"/>
</svg>
