<svg width="80" height="80" viewBox="0 0 80 80" fill="none" xmlns="http://www.w3.org/2000/svg">
<path d="M50.0983 56.4633C64.8618 56.4633 76.83 44.4951 76.83 29.7316C76.83 14.9682 64.8618 3 50.0983 3C35.3349 3 23.3667 14.9682 23.3667 29.7316C23.3667 44.4951 35.3349 56.4633 50.0983 56.4633Z" fill="#CE7736"/>
<path d="M29.7316 76.83C44.4951 76.83 56.4633 64.8618 56.4633 50.0983C56.4633 35.3349 44.4951 23.3667 29.7316 23.3667C14.9682 23.3667 3 35.3349 3 50.0983C3 64.8618 14.9682 76.83 29.7316 76.83Z" fill="#F4933B"/>
<path d="M11.9106 48.8256C14.0197 48.8256 15.7294 47.1159 15.7294 45.0068C15.7294 42.8977 14.0197 41.188 11.9106 41.188C9.80153 41.188 8.0918 42.8977 8.0918 45.0068C8.0918 47.1159 9.80153 48.8256 11.9106 48.8256Z" fill="#E2771E"/>
<path d="M24.6396 29.7318C26.7487 29.7318 28.4584 28.0221 28.4584 25.913C28.4584 23.804 26.7487 22.0942 24.6396 22.0942C22.5305 22.0942 20.8208 23.804 20.8208 25.913C20.8208 28.0221 22.5305 29.7318 24.6396 29.7318Z" fill="#E2771E"/>
<path d="M45.0068 15.7294C47.1159 15.7294 48.8256 14.0197 48.8256 11.9106C48.8256 9.80153 47.1159 8.0918 45.0068 8.0918C42.8977 8.0918 41.188 9.80153 41.188 11.9106C41.188 14.0197 42.8977 15.7294 45.0068 15.7294Z" fill="#BF6325"/>
<path d="M69.1928 18.2748C71.3019 18.2748 73.0116 16.5651 73.0116 14.456C73.0116 12.3469 71.3019 10.6372 69.1928 10.6372C67.0838 10.6372 65.374 12.3469 65.374 14.456C65.374 16.5651 67.0838 18.2748 69.1928 18.2748Z" fill="#BF6325"/>
<path d="M39.915 38.6425C41.3211 38.6425 42.4609 37.5027 42.4609 36.0967C42.4609 34.6906 41.3211 33.5508 39.915 33.5508C38.509 33.5508 37.3691 34.6906 37.3691 36.0967C37.3691 37.5027 38.509 38.6425 39.915 38.6425Z" fill="#E2771E"/>
<path d="M53.9165 25.9125C55.3225 25.9125 56.4623 24.7727 56.4623 23.3667C56.4623 21.9606 55.3225 20.8208 53.9165 20.8208C52.5104 20.8208 51.3706 21.9606 51.3706 23.3667C51.3706 24.7727 52.5104 25.9125 53.9165 25.9125Z" fill="#BF6325"/>
<path d="M66.6465 33.5507C68.0525 33.5507 69.1923 32.4109 69.1923 31.0049C69.1923 29.5988 68.0525 28.459 66.6465 28.459C65.2404 28.459 64.1006 29.5988 64.1006 31.0049C64.1006 32.4109 65.2404 33.5507 66.6465 33.5507Z" fill="#BF6325"/>
<path d="M62.8276 46.2797C64.2337 46.2797 65.3735 45.1399 65.3735 43.7339C65.3735 42.3278 64.2337 41.188 62.8276 41.188C61.4216 41.188 60.2817 42.3278 60.2817 43.7339C60.2817 45.1399 61.4216 46.2797 62.8276 46.2797Z" fill="#BF6325"/>
<path d="M10.6372 69.1923C12.7462 69.1923 14.456 67.4826 14.456 65.3735C14.456 63.2644 12.7462 61.5547 10.6372 61.5547C8.5281 61.5547 6.81836 63.2644 6.81836 65.3735C6.81836 67.4826 8.5281 69.1923 10.6372 69.1923Z" fill="#E2771E"/>
<path d="M29.7314 71.7382C31.8405 71.7382 33.5502 70.0285 33.5502 67.9194C33.5502 65.8103 31.8405 64.1006 29.7314 64.1006C27.6223 64.1006 25.9126 65.8103 25.9126 67.9194C25.9126 70.0285 27.6223 71.7382 29.7314 71.7382Z" fill="#E2771E"/>
<path d="M53.9174 59.0087C56.0265 59.0087 57.7362 57.299 57.7362 55.1899C57.7362 53.0808 56.0265 51.3711 53.9174 51.3711C51.8084 51.3711 50.0986 53.0808 50.0986 55.1899C50.0986 57.299 51.8084 59.0087 53.9174 59.0087Z" fill="#E2771E"/>
<path d="M38.6421 52.644C40.0481 52.644 41.1879 51.5042 41.1879 50.0981C41.1879 48.6921 40.0481 47.5522 38.6421 47.5522C37.236 47.5522 36.0962 48.6921 36.0962 50.0981C36.0962 51.5042 37.236 52.644 38.6421 52.644Z" fill="#E2771E"/>
<path d="M25.9126 42.4609C27.3186 42.4609 28.4584 41.3211 28.4584 39.915C28.4584 38.509 27.3186 37.3691 25.9126 37.3691C24.5065 37.3691 23.3667 38.509 23.3667 39.915C23.3667 41.3211 24.5065 42.4609 25.9126 42.4609Z" fill="#E2771E"/>
<path d="M23.3667 57.7363C24.7727 57.7363 25.9125 56.5964 25.9125 55.1904C25.9125 53.7844 24.7727 52.6445 23.3667 52.6445C21.9606 52.6445 20.8208 53.7844 20.8208 55.1904C20.8208 56.5964 21.9606 57.7363 23.3667 57.7363Z" fill="#E2771E"/>
<path d="M42.4604 65.374C43.8665 65.374 45.0063 64.2341 45.0063 62.8281C45.0063 61.4221 43.8665 60.2822 42.4604 60.2822C41.0544 60.2822 39.9146 61.4221 39.9146 62.8281C39.9146 64.2341 41.0544 65.374 42.4604 65.374Z" fill="#E2771E"/>
</svg>
