<svg width="80" height="80" viewBox="0 0 80 80" fill="none" xmlns="http://www.w3.org/2000/svg">
<g clip-path="url(#clip0_191_26043)">
<path d="M49.819 43.2527H1.98526C-3.42686 33.0557 5.09248 23.8654 14.0349 23.0776C18.6592 22.6546 23.4003 24.4926 26.3762 29.5984C29.6877 26.0681 35.1436 24.551 39.8555 25.791C47.2369 27.4832 52.1385 35.842 49.819 43.2527Z" fill="#FEA47F"/>
<path d="M79.3005 43.2531H49.8183C52.1378 35.8425 47.2363 27.4836 39.8548 25.806C35.1429 24.5514 29.687 26.0686 26.3755 29.5989C23.3996 24.4931 18.6585 22.655 14.0342 23.0781C15.493 17.3304 21.0072 14.1065 26.6527 13.9898C26.6527 10.124 28.2136 6.62291 30.7519 4.0992C33.2756 1.56091 36.7767 0 40.6425 0C47.4697 0 53.1735 4.90154 54.3989 11.3932C61.8533 11.6849 67.8198 17.8118 67.8198 25.3684V25.5872C74.3406 26.7688 81.5032 31.0285 79.3005 43.2531Z" fill="#D88264"/>
<path d="M79.3018 43.2529C79.3018 43.2529 73.2478 70.7949 71.6578 75.3317C70.0968 79.8394 65.1078 79.9999 65.1078 79.9999H52.7227L61.7963 43.2529H79.3018Z" fill="#C64476"/>
<path d="M61.7956 43.2529L52.7219 79.9999H39.8408V43.2529H61.7956Z" fill="#FF4D80"/>
<path d="M39.8405 43.2529V79.9999H26.9448L19.5341 49.9488L17.8711 43.2529H39.8405Z" fill="#C64476"/>
<path d="M26.9453 79.9999H19.4033C14.5601 79.9415 10.4317 76.4696 9.23554 71.7869L1.98535 43.2529H17.8716L19.5346 49.9488L26.9453 79.9999Z" fill="#FF4D80"/>
</g>
<defs>
<clipPath id="clip0_191_26043">
<rect width="80" height="80" fill="white"/>
</clipPath>
</defs>
</svg>
