<svg width="80" height="80" viewBox="0 0 80 80" fill="none" xmlns="http://www.w3.org/2000/svg">
<g clip-path="url(#clip0_191_25997)">
<path d="M71.4909 15.3614C68.7348 19.5783 64.0963 24.9548 56.8222 29.2168C54.3674 30.6475 51.6264 31.9578 48.5541 33.0572C46.5361 30.5722 43.4487 28.9759 39.9999 28.9759C33.9156 28.9759 28.9909 33.9156 28.9909 39.9849C28.9909 40.6475 29.0512 41.3102 29.1716 41.9427C26.4006 44.518 24.4277 47.259 22.0933 49.6234C18.3584 53.4487 13.7048 56.3403 3.43373 56.1746C1.21988 51.2198 0 45.7529 0 39.9849C0 29.8192 3.79518 20.5271 10.0602 13.4789C10.8132 12.6205 11.6114 11.8072 12.4397 11.0241C19.6084 4.18674 29.3222 0 39.9999 0C45.3162 0 50.3915 1.03916 55.03 2.92168C55.9939 3.31325 56.9577 3.74999 57.8764 4.21686C63.2077 6.86746 67.8613 10.7078 71.4909 15.3614Z" fill="#FD7272"/>
<path d="M80.0002 39.9999C80.0002 62.0933 62.0936 79.9999 40.0003 79.9999C23.675 79.9999 9.62383 70.2258 3.43408 56.1897C13.7052 56.3553 18.3588 53.4638 22.0937 49.6385C24.428 47.274 26.4009 44.533 29.172 41.9577C30.0907 47.1083 34.5786 51.024 40.0003 51.024C46.0846 51.024 51.0093 46.0842 51.0093 39.9999C51.0093 37.3794 50.0906 34.9698 48.5545 33.0722C51.6268 31.9728 54.3677 30.6626 56.8225 29.2319C64.0966 24.9698 68.7352 19.5933 71.4912 15.3765C76.8376 22.1536 80.0002 30.7078 80.0002 39.9999Z" fill="#FAD390"/>
<path d="M40.4518 73.0878C39.6235 73.0878 38.9458 72.4101 38.9458 71.5818C38.9458 70.7535 39.6235 70.0758 40.4518 70.0758C55.9337 70.0758 68.5391 57.4703 68.5391 41.9884C68.5391 41.1601 69.2168 40.4824 70.0452 40.4824C70.8735 40.4824 71.5512 41.1601 71.5512 41.9884C71.5512 59.142 57.6054 73.0878 40.4518 73.0878Z" fill="#D3A25B"/>
<path d="M11.1287 51.0843C10.6769 51.0843 10.2402 50.8885 9.93898 50.512L6.30947 45.8735C5.79742 45.2108 5.9179 44.2771 6.56549 43.765C7.21308 43.253 8.16187 43.3735 8.67392 44.0211L12.3034 48.6596C12.8155 49.3223 12.695 50.256 12.0474 50.768C11.7763 50.9789 11.445 51.0843 11.1137 51.0843H11.1287Z" fill="#A84242"/>
<path d="M16.7021 38.7047C15.9642 38.7047 15.3317 38.1625 15.2112 37.4246C15.0907 36.5963 15.6479 35.8282 16.4762 35.7077L22.3045 34.8342C23.1329 34.7138 23.8859 35.271 24.0214 36.0993C24.1419 36.9276 23.5847 37.6957 22.7564 37.8162L16.9281 38.6896C16.8528 38.6896 16.7774 38.7047 16.7021 38.7047Z" fill="#A84242"/>
<path d="M44.3376 23.2382C44.3376 23.2382 44.2623 23.2382 44.2322 23.2382L38.3587 22.8467C37.5304 22.7864 36.8978 22.0786 36.9581 21.2503C37.0183 20.422 37.7261 19.7894 38.5545 19.8497L44.4279 20.2412C45.2563 20.3015 45.8888 21.0093 45.8285 21.8376C45.7683 22.6358 45.1056 23.2382 44.3225 23.2382H44.3376Z" fill="#A84242"/>
<path d="M43.4037 11.5967C43.1929 11.5967 42.967 11.5515 42.7561 11.4461L37.4399 8.91601C36.6868 8.55456 36.3706 7.66601 36.732 6.913C37.0935 6.15999 37.982 5.84373 38.735 6.20517L44.0513 8.73529C44.8043 9.09673 45.1206 9.98529 44.7591 10.7383C44.5031 11.2805 43.9609 11.5967 43.4037 11.5967Z" fill="#A84242"/>
<path d="M7.37962 32.9671C7.03323 32.9671 6.68685 32.8466 6.4007 32.6056C5.76818 32.0635 5.70794 31.1147 6.2501 30.4821L10.1055 26.0394C10.6477 25.4068 11.5965 25.3466 12.229 25.8888C12.8615 26.4309 12.9218 27.3797 12.3796 28.0123L8.5242 32.455C8.22299 32.8014 7.80131 32.9821 7.37962 32.9821V32.9671Z" fill="#A84242"/>
<path d="M57.877 4.2317L53.4192 9.39736C53.118 9.72868 52.6963 9.9094 52.2746 9.9094C51.9283 9.9094 51.5819 9.78892 51.2957 9.54796C50.6632 9.00579 50.603 8.04194 51.1451 7.42447L55.0307 2.93652C55.9945 3.32809 56.9584 3.76484 57.877 4.2317Z" fill="#A84242"/>
<path d="M23.6288 28.5094C23.0264 28.5094 22.4692 28.1479 22.2282 27.5606L20.0294 22.0937C19.7132 21.3256 20.0897 20.4521 20.8728 20.1359C21.6409 19.8196 22.5294 20.1961 22.8306 20.9793L25.0294 26.4461C25.3457 27.2142 24.9692 28.0877 24.1861 28.4039C24.0053 28.4792 23.8095 28.5094 23.6288 28.5094Z" fill="#A84242"/>
<path d="M18.4331 14.3075C18.2373 14.9702 17.6349 15.4069 16.9873 15.4069C16.8517 15.4069 16.7011 15.3768 16.5656 15.3467L10.0596 13.4792C10.8126 12.6208 11.6108 11.8075 12.4391 11.0244L17.3939 12.4401C18.1921 12.681 18.659 13.5093 18.4331 14.3075Z" fill="#A84242"/>
<path d="M30.0301 15.4064C29.4277 15.4064 28.8554 15.0299 28.6144 14.4275L26.5361 8.93055C26.2349 8.14742 26.6265 7.28899 27.4096 6.98779C28.1928 6.68658 29.0512 7.07815 29.3524 7.86128L31.4307 13.3583C31.7319 14.1414 31.3403 14.9998 30.5572 15.301C30.3765 15.3613 30.1958 15.4064 30.0301 15.4064Z" fill="#A84242"/>
<path d="M58.4337 19.2476C58.2982 19.2476 58.1476 19.2325 58.012 19.1874L52.3644 17.5307C51.5662 17.3048 51.1144 16.4615 51.3403 15.6633C51.5813 14.8651 52.4096 14.4133 53.2078 14.6392L58.8554 16.2958C59.6536 16.5217 60.1054 17.3651 59.8795 18.1633C59.6837 18.8259 59.0813 19.2476 58.4337 19.2476Z" fill="#A84242"/>
</g>
<defs>
<clipPath id="clip0_191_25997">
<rect width="80" height="80" fill="white"/>
</clipPath>
</defs>
</svg>
