<svg width="40" height="40" viewBox="0 0 40 40" fill="none" xmlns="http://www.w3.org/2000/svg">
<path d="M20 16.2179L28.3333 13.3333M20 16.2179L11.6667 13.3333M20 16.2179V28.3333M28.3333 5L31.6667 5C33.5076 5 35 6.49238 35 8.33333V11.6667M28.3333 35H31.6667C33.5076 35 35 33.5076 35 31.6667V28.3333M11.6667 5L8.33333 5C6.49238 5 5 6.49238 5 8.33333L5 11.6667M11.6667 35H8.33333C6.49238 35 5 33.5076 5 31.6667L5 28.3333M21.0811 10.3707L27.7477 12.6564C29.095 13.1183 30 14.3852 30 15.8095V23.2873C30 24.5918 29.239 25.7765 28.0525 26.3188L21.3859 29.3665C20.5058 29.7688 19.4942 29.7688 18.6141 29.3665L11.9475 26.3188C10.761 25.7765 10 24.5918 10 23.2873V15.8095C10 14.3852 10.9049 13.1183 12.2522 12.6564L18.9189 10.3707C19.6196 10.1304 20.3804 10.1304 21.0811 10.3707Z" stroke="black" stroke-width="2" stroke-linecap="round" stroke-linejoin="round"/>
</svg>
