<svg width="40" height="40" viewBox="0 0 40 40" fill="none" xmlns="http://www.w3.org/2000/svg">
<path d="M30.3962 10.1295C28.4841 9.29823 26.4337 8.68576 24.2898 8.33497C24.2508 8.3282 24.2118 8.34512 24.1917 8.37896C24.1253 8.49087 24.0571 8.61137 23.9889 8.73632C23.6333 9.3881 22.9256 9.7811 22.1862 9.71387C20.7263 9.58112 19.2729 9.58005 17.8321 9.71067C17.0859 9.77831 16.3673 9.38121 16.0016 8.72726C15.9337 8.60583 15.866 8.48858 15.8007 8.37896C15.7806 8.34625 15.7416 8.32933 15.7025 8.33497C13.5599 8.68464 11.5094 9.29711 9.59614 10.1295C9.57957 10.1363 9.56538 10.1476 9.55595 10.1623C5.66671 15.6678 4.60128 21.038 5.12394 26.3417C5.12631 26.3676 5.14168 26.3924 5.16297 26.4082C7.72898 28.1937 10.2146 29.2777 12.6541 29.9962C12.6931 30.0075 12.7345 29.994 12.7593 29.9635C13.3364 29.2168 13.8508 28.4295 14.2918 27.6016C14.3178 27.5531 14.293 27.4955 14.2398 27.4764C13.4239 27.1831 12.647 26.8255 11.8996 26.4195C11.8405 26.3868 11.8358 26.3067 11.8902 26.2683C12.0474 26.1566 12.2047 26.0405 12.3549 25.9232C12.3821 25.9017 12.4199 25.8972 12.4519 25.9107C17.3616 28.0347 22.6769 28.0347 27.5287 25.9107C27.5606 25.8961 27.5985 25.9006 27.6268 25.922C27.777 26.0393 27.9343 26.1566 28.0927 26.2683C28.1471 26.3067 28.1436 26.3868 28.0845 26.4195C27.3371 26.8334 26.5602 27.1831 25.7431 27.4752C25.6899 27.4944 25.6662 27.5531 25.6923 27.6016C26.1428 28.4283 26.6572 29.2157 27.2236 29.9624C27.2472 29.994 27.2898 30.0075 27.3288 29.9962C29.7801 29.2777 32.2657 28.1937 34.8317 26.4082C34.8542 26.3924 34.8684 26.3687 34.8708 26.3428C35.4963 20.2112 33.8231 14.885 30.4352 10.1634C30.4269 10.1476 30.4128 10.1363 30.3962 10.1295ZM15.025 23.1123C13.5468 23.1123 12.3289 21.8265 12.3289 20.2473C12.3289 18.6682 13.5232 17.3823 15.025 17.3823C16.5386 17.3823 17.7447 18.6794 17.7211 20.2473C17.7211 21.8265 16.5267 23.1123 15.025 23.1123ZM24.9934 23.1123C23.5153 23.1123 22.2973 21.8265 22.2973 20.2473C22.2973 18.6682 23.4916 17.3823 24.9934 17.3823C26.507 17.3823 27.7131 18.6794 27.6895 20.2473C27.6895 21.8265 26.507 23.1123 24.9934 23.1123Z" stroke="black" stroke-width="2" stroke-linecap="round" stroke-linejoin="round"/>
</svg>
