<svg width="80" height="80" viewBox="0 0 80 80" fill="none" xmlns="http://www.w3.org/2000/svg">
<path d="M30.6282 3.77701C28.6297 5.38005 26.8578 7.18577 24.9218 8.71723C23.9653 9.50183 22.9801 10.2464 21.9819 10.9832L18.9306 13.1684C17.9061 13.9054 16.9237 14.7039 15.9886 15.5598C15.0621 16.4266 14.2079 17.3735 13.435 18.3904C11.8688 20.4109 10.6609 22.7263 9.66506 25.109L9.28984 26L8.92495 26.8929L8.2111 28.6761L6.79262 32.2268C5.86584 34.5997 4.90591 36.9979 4.19956 39.5531C3.83909 40.8365 3.57697 42.1477 3.41567 43.4743C3.27416 44.8142 3.25698 46.1653 3.36439 47.5087C3.47131 48.8537 3.71045 50.1838 4.07809 51.478C4.28008 52.1182 4.48567 52.7555 4.71736 53.3793C4.98064 53.9927 5.20921 54.6156 5.50094 55.2087C5.79267 55.8019 6.0597 56.4013 6.37394 56.9744C6.67912 57.5526 6.97773 58.1295 7.30198 58.6887C7.60726 59.2592 7.924 59.8201 8.25221 60.3715C8.56349 60.9342 8.89055 61.4847 9.21871 62.0352C10.5462 64.2483 12.0227 66.3608 13.637 68.3569C16.9105 72.3492 21.3258 75.5403 26.2357 76.8458C28.6704 77.5397 31.1045 78.0506 33.5337 78.5498L35.3588 78.9227L36.2746 79.1L37.1925 79.2744C38.4185 79.5039 39.6535 79.7037 40.8978 79.8438C43.3832 80.1149 45.8925 80.0328 48.3566 79.5997C50.8154 79.1708 53.1953 78.358 55.5229 77.5199L62.4735 75.0086C64.7898 74.1811 67.1379 73.306 69.2709 71.9459C70.3433 71.2649 71.3574 70.4893 72.3021 69.6276L73.0097 68.969C73.2414 68.7458 73.4575 68.4973 73.6803 68.2624C74.1197 67.777 74.5349 67.2684 74.9241 66.7386C75.3068 66.1915 75.6482 65.6144 75.9452 65.0125C76.2418 64.3987 76.4625 63.7483 76.6018 63.0767C76.735 62.4028 76.7396 61.7083 76.6154 61.0326C76.4987 60.5026 76.2805 60.0025 75.9736 59.5623C75.9303 59.4629 75.8934 59.3626 75.8418 59.2646C75.7605 59.1106 75.6708 58.9718 75.5862 58.8239C74.6607 56.6062 73.1723 54.6925 71.2806 53.2885C69.238 51.7305 66.8864 50.7081 64.6021 49.8189C62.3054 48.9315 60.0391 48.1596 57.9485 47.2191C55.867 46.2803 53.9345 45.2907 52.3047 43.9703C51.4739 43.3237 50.6887 42.6161 49.955 41.8528C49.5565 41.4897 49.2284 41.0533 48.8541 40.6466C48.5265 40.203 48.1429 39.7833 47.8616 39.2918L47.4186 38.562L46.9878 37.8161C46.6595 37.3293 46.5391 36.7687 46.324 36.2346L46.0459 35.4178C45.9757 35.139 45.9223 34.856 45.886 34.5704C45.8145 33.9986 45.6827 33.4359 45.6983 32.8536C45.714 32.2714 45.7428 31.6929 45.7922 31.1203C45.8827 30.5407 46.0407 29.9674 46.1583 29.4016C46.4783 28.2604 46.8637 27.1581 47.2888 26.0168C48.1627 23.6527 48.7564 21.1867 49.0567 18.6731C49.3423 15.9476 49.1788 13.1913 48.5731 10.523C48.3882 9.85196 48.2069 9.19436 48.0292 8.55016C47.8812 7.88936 47.5674 7.28452 47.3581 6.65089C46.9556 5.36671 46.3135 4.2234 45.8065 3.00478C45.7358 2.82619 45.6563 2.65151 45.5683 2.48144C45.4404 2.28216 45.3222 2.07328 45.1874 1.87677C44.8876 1.50164 44.5316 1.1792 44.1332 0.921847C43.3917 0.471277 42.5667 0.18955 41.7128 0.0952784C40.1908 -0.113275 38.8256 0.046475 37.5128 0.324167C34.9059 0.924938 32.6261 2.18228 30.6282 3.77701Z" fill="#58BFF1" fill-opacity="0.1"/>
<path d="M47.1041 25.9924C46.9509 25.2371 47.038 24.7398 47.2014 24.3246C47.3638 23.9382 47.6268 23.6068 47.9605 23.3676C48.1357 23.2541 48.3186 23.1542 48.5077 23.0684C48.6996 22.9789 48.8859 22.8838 49.0862 22.8042C49.5378 22.6163 50.0233 22.533 50.5089 22.5602C50.5638 22.8589 50.5699 23.165 50.5269 23.4658C50.4936 23.697 50.423 23.9206 50.318 24.1273C50.1222 24.4936 49.8321 24.7958 49.4802 24.9999L48.3617 25.571C48.1688 25.6678 47.9694 25.7497 47.765 25.816C47.5504 25.896 47.3292 25.955 47.1041 25.9924Z" fill="#503D3F"/>
<path d="M30.3004 29.8704C30.1471 29.1149 30.2344 28.6177 30.3978 28.2024C30.5602 27.816 30.8231 27.4846 31.1569 27.2454C31.3321 27.1319 31.515 27.0319 31.7041 26.9462C31.8958 26.8568 32.0823 26.7616 32.2826 26.6822C32.7341 26.4941 33.2196 26.4108 33.7053 26.4382C33.7602 26.7368 33.7662 27.0429 33.7231 27.3436C33.6898 27.5748 33.619 27.7984 33.5138 28.0049C33.318 28.3712 33.0279 28.6733 32.6761 28.8774L31.5576 29.4485C31.3647 29.5453 31.1653 29.6272 30.9609 29.6937C30.7464 29.7736 30.5253 29.8327 30.3004 29.8704Z" fill="#503D3F"/>
<path d="M58.7915 27.7081C58.6384 26.9527 58.7255 26.4554 58.8891 26.0403C59.0513 25.6539 59.3143 25.3224 59.6481 25.0832C59.8232 24.9698 60.0061 24.8698 60.1953 24.7841C60.3869 24.6946 60.5735 24.5994 60.7737 24.52C61.2253 24.3321 61.7108 24.2488 62.1964 24.276C62.2514 24.5747 62.2574 24.8809 62.2142 25.1817C62.1809 25.4128 62.1101 25.6363 62.0049 25.8428C61.8092 26.2091 61.5191 26.5114 61.1672 26.7154L60.0488 27.2864C59.8559 27.3833 59.6565 27.4652 59.452 27.5315C59.2376 27.6115 59.0164 27.6706 58.7915 27.7081Z" fill="#503D3F"/>
<path d="M57.0895 42.0129C56.9362 41.2574 57.0234 40.7603 57.1868 40.345C57.3493 39.9586 57.6122 39.6272 57.946 39.3879C58.1212 39.2746 58.304 39.1746 58.4932 39.0888C58.6848 38.9993 58.8712 38.9041 59.0716 38.8248C59.5232 38.6368 60.0087 38.5535 60.4943 38.5807C60.5493 38.8793 60.5554 39.1855 60.5123 39.4862C60.4788 39.7174 60.408 39.941 60.3028 40.1475C60.1071 40.5138 59.817 40.816 59.4651 41.0199L58.3468 41.5911C58.1539 41.6877 57.9544 41.7697 57.7501 41.8363C57.5356 41.9161 57.3145 41.9753 57.0895 42.0129Z" fill="#503D3F"/>
<path d="M64.0299 56.4341C63.8766 55.6788 63.9639 55.1815 64.1273 54.7664C64.2896 54.38 64.5525 54.0485 64.8863 53.8093C65.0612 53.6959 65.2438 53.5959 65.4327 53.5102C65.6244 53.4207 65.8109 53.3254 66.0119 53.2461C66.4635 53.0582 66.949 52.9749 67.4346 53.0021C67.4895 53.3008 67.4955 53.607 67.4525 53.9077C67.4191 54.1389 67.3483 54.3624 67.243 54.5689C67.0473 54.9352 66.7573 55.2374 66.4054 55.4415L65.287 56.0125C65.0941 56.1092 64.8946 56.1912 64.6902 56.2576C64.4758 56.3376 64.2547 56.3966 64.0299 56.4341Z" fill="#503D3F"/>
<path d="M53.2984 57.2198C53.1452 56.4645 53.2324 55.9672 53.3958 55.552C53.5581 55.1656 53.821 54.8341 54.1548 54.595C54.33 54.4815 54.5129 54.3816 54.702 54.2958C54.8937 54.2063 55.0802 54.1112 55.2805 54.0318C55.732 53.8438 56.2175 53.7605 56.7032 53.7878C56.758 54.0864 56.7641 54.3926 56.721 54.6934C56.6877 54.9245 56.6168 55.1481 56.5115 55.3545C56.3159 55.7209 56.0257 56.0231 55.6738 56.2271L54.5555 56.7983C54.3626 56.895 54.1632 56.9769 53.9588 57.0433C53.7444 57.1232 53.5233 57.1823 53.2984 57.2198Z" fill="#503D3F"/>
<path d="M20.4508 61.0554C20.2976 60.2999 20.3847 59.8028 20.5482 59.3875C20.7106 59.0011 20.9736 58.6696 21.3074 58.4304C21.4825 58.3169 21.6654 58.2169 21.8546 58.1312C22.0462 58.0418 22.2328 57.9466 22.433 57.8672C22.8846 57.6793 23.3701 57.596 23.8557 57.6232C23.9106 57.9219 23.9166 58.2281 23.8735 58.5288C23.8402 58.76 23.7694 58.9835 23.6641 59.19C23.4685 59.5563 23.1784 59.8586 22.8265 60.0626L21.7078 60.6337C21.5149 60.7306 21.3154 60.8126 21.111 60.879C20.8966 60.9588 20.6756 61.0178 20.4508 61.0554Z" fill="#503D3F"/>
<path d="M38.7682 70.2175C38.615 69.462 38.702 68.9649 38.8656 68.5497C39.0279 68.1633 39.2908 67.8317 39.6248 67.5927C39.7999 67.4791 39.9828 67.3791 40.172 67.2934C40.3636 67.2039 40.55 67.1087 40.7504 67.0293C41.202 66.8414 41.6875 66.7581 42.1731 66.7853C42.2282 67.0839 42.2342 67.3901 42.1911 67.6908C42.1577 67.922 42.0869 68.1456 41.9816 68.3521C41.786 68.7185 41.4958 69.0207 41.1439 69.2247L40.0256 69.7957C39.8327 69.8925 39.6333 69.9744 39.4289 70.0408C39.2143 70.1208 38.9932 70.1799 38.7682 70.2175Z" fill="#503D3F"/>
<path d="M37.065 62.7712C36.9118 62.0157 36.9989 61.5186 37.1624 61.1033C37.3247 60.7168 37.5877 60.3854 37.9215 60.1462C38.0966 60.0328 38.2795 59.9328 38.4687 59.8471C38.6603 59.7576 38.8469 59.6624 39.0479 59.583C39.4995 59.3951 39.985 59.3118 40.4706 59.339C40.5255 59.6377 40.5315 59.9439 40.4884 60.2447C40.4551 60.4758 40.3842 60.6993 40.2789 60.9058C40.0833 61.2722 39.7932 61.5744 39.4413 61.7784L38.323 62.3495C38.13 62.4463 37.9305 62.5282 37.7261 62.5947C37.5114 62.6745 37.2901 62.7336 37.065 62.7712Z" fill="#503D3F"/>
<path d="M19.1647 49.6218C19.0114 48.8663 19.0985 48.3692 19.2621 47.9539C19.4244 47.5675 19.6873 47.236 20.0211 46.9968C20.1962 46.8833 20.3791 46.7833 20.5683 46.6977C20.76 46.6082 20.9463 46.513 21.1467 46.4336C21.5983 46.2456 22.0838 46.1624 22.5694 46.1896C22.6244 46.4882 22.6305 46.7944 22.5874 47.0951C22.554 47.3262 22.4831 47.5498 22.3779 47.7564C22.1822 48.1227 21.892 48.4249 21.5401 48.6288L20.4218 49.2C20.2289 49.2967 20.0294 49.3787 19.825 49.4451C19.6106 49.5251 19.3895 49.5842 19.1647 49.6218Z" fill="#503D3F"/>
<path d="M16.1812 35.1833C16.028 34.4279 16.1152 33.9307 16.2788 33.5154C16.441 33.129 16.7039 32.7975 17.0378 32.5585C17.213 32.445 17.3958 32.345 17.585 32.2592C17.7767 32.1697 17.963 32.0746 18.1634 31.9952C18.615 31.8072 19.1005 31.7239 19.5861 31.7511C19.6411 32.0498 19.6472 32.3559 19.6041 32.6566C19.5707 32.8878 19.4998 33.1114 19.3946 33.3179C19.1989 33.6843 18.9087 33.9865 18.5568 34.1905L17.4385 34.7615C17.2456 34.8583 17.0461 34.9402 16.8417 35.0067C16.6273 35.0866 16.4062 35.1457 16.1812 35.1833Z" fill="#503D3F"/>
<path d="M42.2564 16.6735C42.1033 15.9182 42.1903 15.4209 42.3538 15.0057C42.5161 14.6193 42.7791 14.2878 43.113 14.0487C43.2881 13.9353 43.471 13.8353 43.6602 13.7495C43.8518 13.6599 44.0384 13.5647 44.2386 13.4854C44.6902 13.2975 45.1757 13.2142 45.6613 13.2413C45.7163 13.54 45.7223 13.8462 45.6791 14.147C45.6457 14.3781 45.575 14.6016 45.4698 14.8081C45.2741 15.1745 44.984 15.4767 44.6321 15.6807L43.5137 16.2517C43.3208 16.3485 43.1213 16.4305 42.9169 16.4969C42.7024 16.5768 42.4813 16.6359 42.2564 16.6735Z" fill="#503D3F"/>
<path d="M24.1674 28.0027C23.4415 28.1621 22.9636 28.0714 22.5646 27.9014C22.1932 27.7325 21.8746 27.4588 21.6448 27.1114C21.5358 26.9291 21.4397 26.7388 21.3573 26.542C21.2713 26.3426 21.1799 26.1487 21.1036 25.9401C20.923 25.4702 20.843 24.9651 20.8691 24.4597C21.1561 24.4026 21.4504 24.3963 21.7394 24.4412C21.9616 24.4759 22.1765 24.5495 22.3749 24.659C22.727 24.8626 23.0174 25.1646 23.2134 25.5308L23.7623 26.6944C23.8552 26.8952 23.9339 27.1027 23.9978 27.3154C24.0745 27.5386 24.1313 27.7687 24.1674 28.0027Z" fill="#503D3F"/>
<path d="M16.1833 43.1159C15.4571 43.2753 14.9795 43.1847 14.5802 43.0146C14.209 42.8456 13.8905 42.572 13.6606 42.2248C13.5516 42.0425 13.4555 41.8522 13.373 41.6554C13.287 41.4559 13.1957 41.262 13.1192 41.0535C12.9386 40.5836 12.8586 40.0784 12.8847 39.5731C13.1717 39.5159 13.4659 39.5096 13.7549 39.5544C13.9773 39.5891 14.1924 39.6628 14.391 39.7725C14.7432 39.9761 15.0336 40.278 15.2297 40.6442L15.7786 41.8078C15.8714 42.0086 15.9502 42.2161 16.0142 42.4288C16.0907 42.6519 16.1473 42.8819 16.1833 43.1159Z" fill="#503D3F"/>
<path d="M29.4308 51.6284C28.7048 51.7878 28.227 51.697 27.8278 51.527C27.4567 51.3581 27.1384 51.0846 26.9087 50.7374C26.7995 50.5552 26.7034 50.3649 26.621 50.168C26.5351 49.9685 26.4434 49.7746 26.3673 49.5661C26.1866 49.0962 26.1066 48.591 26.1328 48.0857C26.4198 48.0285 26.714 48.0223 27.003 48.0672C27.2251 48.1018 27.4399 48.1755 27.6384 48.285C27.9905 48.4886 28.2809 48.7905 28.4771 49.1566L29.0257 50.3204C29.1187 50.5211 29.1975 50.7287 29.2615 50.9414C29.3381 51.1644 29.3948 51.3944 29.4308 51.6284Z" fill="#503D3F"/>
<path d="M27.4654 41.0315C26.7394 41.1909 26.2616 41.1002 25.8624 40.9302C25.4911 40.7612 25.1725 40.4875 24.9427 40.1402C24.8337 39.9579 24.7376 39.7676 24.6552 39.5708C24.5692 39.3714 24.4777 39.1775 24.4014 38.9689C24.2209 38.499 24.1408 37.9939 24.1669 37.4885C24.454 37.4314 24.7482 37.4251 25.0373 37.47C25.2594 37.5047 25.4743 37.5784 25.6728 37.6878C26.0249 37.8915 26.3153 38.1934 26.5113 38.5596L27.0602 39.7233C27.1531 39.924 27.2319 40.1315 27.2958 40.3442C27.3725 40.5674 27.4292 40.7975 27.4654 41.0315Z" fill="#503D3F"/>
<path d="M33.7074 71.4348C32.9815 71.5942 32.5036 71.5034 32.1046 71.3334C31.7332 71.1645 31.4147 70.8909 31.1849 70.5435C31.0759 70.3612 30.9798 70.1709 30.8974 69.9741C30.8114 69.7746 30.7199 69.5807 30.6436 69.3722C30.4631 68.9023 30.383 68.3971 30.4091 67.8918C30.6962 67.8347 30.9904 67.8284 31.2795 67.8733C31.5016 67.908 31.7165 67.9817 31.915 68.0911C32.2671 68.2947 32.5575 68.5967 32.7534 68.9629L33.3023 70.1265C33.3953 70.327 33.474 70.5342 33.538 70.7466C33.6147 70.9701 33.6714 71.2005 33.7074 71.4348Z" fill="#503D3F"/>
<path d="M16.5746 54.633C15.8487 54.7924 15.3708 54.7017 14.9718 54.5317C14.6004 54.3627 14.2818 54.0891 14.0521 53.7417C13.9431 53.5594 13.847 53.3691 13.7646 53.1723C13.6786 52.9729 13.5871 52.779 13.5108 52.5704C13.3302 52.1005 13.2502 51.5954 13.2763 51.09C13.5634 51.033 13.8576 51.0267 14.1466 51.0715C14.3687 51.1062 14.5835 51.1797 14.782 51.289C15.1341 51.4926 15.4245 51.7946 15.6205 52.1608L16.1694 53.3244C16.2623 53.5252 16.341 53.7327 16.4048 53.9454C16.4816 54.1687 16.5385 54.3989 16.5746 54.633Z" fill="#503D3F"/>
<path d="M32.7299 61.5251C32.004 61.6845 31.5261 61.5939 31.1271 61.4237C30.7558 61.2549 30.4373 60.9813 30.2075 60.6339C30.0984 60.4517 30.0022 60.2614 29.9199 60.0646C29.8339 59.8651 29.7424 59.671 29.6661 59.4626C29.4854 58.9928 29.4054 58.4876 29.4316 57.9823C29.7186 57.9251 30.0128 57.9187 30.3018 57.9636C30.524 57.9984 30.7388 58.0721 30.9373 58.1816C31.2894 58.3852 31.5798 58.6871 31.7759 59.0532L32.3245 60.2168C32.4176 60.4176 32.4964 60.6252 32.5601 60.8379C32.637 61.061 32.6938 61.2911 32.7299 61.5251Z" fill="#503D3F"/>
<path d="M50.4586 71.4348C49.7325 71.5942 49.2547 71.5034 48.8556 71.3334C48.4843 71.1645 48.1658 70.8909 47.936 70.5435C47.8269 70.3612 47.7307 70.1709 47.6483 69.9741C47.5624 69.7746 47.4709 69.5807 47.3946 69.3722C47.214 68.9023 47.134 68.3971 47.1601 67.8918C47.4471 67.8347 47.7413 67.8284 48.0303 67.8733C48.2524 67.908 48.4673 67.9817 48.6658 68.0911C49.0179 68.2948 49.3083 68.5967 49.5044 68.9629L50.0532 70.1265C50.1459 70.327 50.2246 70.5343 50.2885 70.7466C50.3654 70.9701 50.4224 71.2004 50.4586 71.4348Z" fill="#503D3F"/>
<path d="M49.6625 62.1506C48.9367 62.31 48.4587 62.2194 48.0597 62.0492C47.6884 61.8803 47.3698 61.6068 47.14 61.2594C47.031 61.0771 46.9349 60.8868 46.8525 60.69C46.7665 60.4906 46.675 60.2965 46.5987 60.0881C46.4181 59.6183 46.338 59.1131 46.3642 58.6078C46.6513 58.5506 46.9455 58.5442 47.2346 58.5891C47.4567 58.6239 47.6716 58.6976 47.8701 58.807C48.2221 59.0107 48.5125 59.3125 48.7086 59.6787L49.2575 60.8425C49.3504 61.0432 49.4291 61.2507 49.4929 61.4634C49.5697 61.6865 49.6265 61.9166 49.6625 62.1506Z" fill="#503D3F"/>
<path d="M39.6548 22.4636C38.9288 22.6231 38.451 22.5323 38.0519 22.3623C37.6806 22.1933 37.362 21.9197 37.1321 21.5723C37.0231 21.3901 36.927 21.1998 36.8446 21.0029C36.7586 20.8035 36.6672 20.6096 36.5909 20.401C36.4103 19.9312 36.3303 19.426 36.3564 18.9207C36.6434 18.8635 36.9377 18.8572 37.2267 18.9021C37.4489 18.9368 37.6638 19.0105 37.8623 19.1199C38.2143 19.3236 38.5047 19.6255 38.7007 19.9916L39.2496 21.1554C39.3426 21.3561 39.4213 21.5636 39.4851 21.7763C39.5619 21.9995 39.6187 22.2296 39.6548 22.4636Z" fill="#503D3F"/>
<path d="M55.0035 32.4797C54.2775 32.6391 53.7997 32.5485 53.4006 32.3783C53.0293 32.2094 52.7108 31.9358 52.481 31.5885C52.372 31.4062 52.2758 31.2159 52.1933 31.0191C52.1073 30.8197 52.0159 30.6256 51.9396 30.4172C51.7588 29.9474 51.6788 29.4422 51.7051 28.9369C51.992 28.8797 52.2862 28.8733 52.5751 28.9182C52.7973 28.9529 53.0121 29.0266 53.2106 29.1361C53.5627 29.3398 53.8532 29.6416 54.0492 30.0078L54.598 31.1714C54.691 31.3722 54.7698 31.5798 54.8336 31.7925C54.9105 32.0156 54.9674 32.2457 55.0035 32.4797Z" fill="#503D3F"/>
<path d="M69.019 40.3303C68.2931 40.4897 67.8152 40.3991 67.4162 40.2289C67.0449 40.06 66.7264 39.7864 66.4966 39.4391C66.3875 39.2568 66.2914 39.0665 66.2089 38.8697C66.1229 38.6703 66.0315 38.4762 65.9552 38.2678C65.7745 37.798 65.6945 37.2928 65.7207 36.7875C66.0077 36.7302 66.3019 36.7239 66.5909 36.7687C66.813 36.8036 67.0279 36.8773 67.2264 36.9867C67.5785 37.1903 67.8689 37.4922 68.065 37.8584L68.6137 39.022C68.7067 39.2228 68.7854 39.4304 68.8492 39.6431C68.9261 39.8662 68.9829 40.0962 69.019 40.3303Z" fill="#503D3F"/>
<path d="M59.7807 50.752C59.0548 50.9114 58.5769 50.8208 58.1779 50.6506C57.8065 50.4819 57.4879 50.2083 57.2583 49.8608C57.1492 49.6786 57.0531 49.4883 56.9706 49.2915C56.8846 49.092 56.7932 48.8979 56.7169 48.6896C56.5363 48.2197 56.4563 47.7145 56.4824 47.2092C56.7696 47.152 57.064 47.1458 57.3532 47.1908C57.5753 47.2256 57.7902 47.2993 57.9887 47.4088C58.3408 47.6124 58.6311 47.9143 58.8272 48.2804L59.3761 49.4442C59.4691 49.6449 59.5478 49.8525 59.6115 50.0652C59.6881 50.2882 59.7447 50.5181 59.7807 50.752Z" fill="#503D3F"/>
<path d="M59.7807 65.0692C59.0548 65.2287 58.5768 65.1381 58.1779 64.9679C57.8065 64.7991 57.4879 64.5254 57.2583 64.1779C57.1492 63.9957 57.053 63.8054 56.9706 63.6086C56.8846 63.4091 56.7932 63.2152 56.7169 63.0066C56.5363 62.5368 56.4563 62.0316 56.4824 61.5263C56.7695 61.4688 57.0639 61.4621 57.3532 61.5066C57.5753 61.5413 57.7902 61.615 57.9887 61.7244C58.3408 61.928 58.6312 62.23 58.8272 62.5962L59.3761 63.7598C59.469 63.9606 59.5477 64.1681 59.6115 64.3808C59.6882 64.6044 59.7448 64.8348 59.7807 65.0692Z" fill="#503D3F"/>
<path d="M55.0035 19.383C54.2775 19.5424 53.7997 19.4518 53.4006 19.2816C53.0293 19.1126 52.7108 18.8391 52.481 18.4918C52.372 18.3098 52.2759 18.1198 52.1933 17.9233C52.1073 17.7237 52.0159 17.5298 51.9396 17.3206C51.7588 16.8507 51.6788 16.3455 51.7051 15.8402C51.992 15.783 52.2862 15.7767 52.5751 15.8215C52.7973 15.8562 53.0122 15.9299 53.2106 16.0395C53.5628 16.243 53.8532 16.5449 54.0492 16.9111L54.598 18.0747C54.691 18.2755 54.7697 18.483 54.8336 18.6957C54.9105 18.9188 54.9674 19.1489 55.0035 19.383Z" fill="#503D3F"/>
<path d="M29.7488 20.6927C29.0226 20.8522 28.545 20.7615 28.1457 20.5914C27.7744 20.4224 27.4559 20.1489 27.2261 19.8016C27.1171 19.6196 27.0209 19.4295 26.9384 19.233C26.8524 19.0336 26.7611 18.8395 26.6847 18.6311C26.504 18.1612 26.424 17.6561 26.4502 17.1507C26.7371 17.0935 27.0312 17.0872 27.3202 17.132C27.5423 17.1668 27.7572 17.2405 27.9557 17.35C28.3078 17.5536 28.5983 17.8555 28.7943 18.2216L29.3431 19.3854C29.4362 19.5861 29.515 19.7937 29.5788 20.0064C29.6556 20.2292 29.7125 20.459 29.7488 20.6927Z" fill="#503D3F"/>
<path d="M75.7045 43.2119C75.7181 43.8008 75.7393 44.7155 75.7603 45.6212C75.765 46.0799 75.7828 46.5413 75.7717 46.9587C75.7347 47.3789 75.7015 47.7531 75.6762 48.0395L75.5026 49.7898C75.4451 50.3741 75.3474 50.9534 75.2104 51.5233C74.774 53.8376 74.0882 56.0933 73.166 58.2478C72.6682 59.3061 72.2592 60.4181 71.6251 61.4013C71.0112 62.3926 70.5109 63.4645 69.77 64.3654C69.06 65.2851 68.4348 66.2766 67.6021 67.0844C66.8048 67.9201 66.0572 68.8054 65.152 69.517C64.2693 70.249 63.4374 71.038 62.4708 71.6459C61.5263 72.2804 60.6297 72.9745 59.6235 73.4919C58.6321 74.0287 57.6963 74.6571 56.6541 75.0775C55.6353 75.5398 54.6537 76.0843 53.5869 76.4171C52.5419 76.8017 51.5174 77.2535 50.4318 77.5024C49.3585 77.7888 48.3004 78.1571 47.1991 78.3171L45.5576 78.6224C45.0129 78.742 44.4602 78.8172 43.9043 78.8472C42.7953 78.9123 41.6825 79.1166 40.5664 79.0638C39.4525 79.0221 38.325 79.0812 37.2132 78.9393C36.1052 78.7766 34.9794 78.685 33.8846 78.4304C32.7969 78.1454 31.6905 77.9122 30.6261 77.5408C29.5787 77.1199 28.5112 76.7422 27.4993 76.2393C26.506 75.6952 25.4904 75.1982 24.5309 74.6021C23.5982 73.9576 22.6303 73.3741 21.7204 72.704C20.8411 71.9894 19.914 71.3375 19.0654 70.5846C18.2473 69.7966 17.3699 69.0699 16.5876 68.2421C15.8354 67.3848 15.0193 66.5792 14.325 65.667C13.6582 64.7337 12.918 63.8501 12.3173 62.8662C11.7488 61.8625 11.1043 60.9002 10.6241 59.8461C10.1675 58.7815 9.63106 57.7519 9.27148 56.6483C7.70245 52.2664 7.24641 47.5813 7.32848 43.0212C7.39507 38.4132 8.1317 33.8422 9.51334 29.4636C9.88496 28.3701 10.3366 27.3031 10.7661 26.2216C11.2603 25.1757 11.8292 24.1652 12.3753 23.139C12.991 22.1607 13.6762 21.2275 14.3452 20.284C15.0767 19.3942 15.8576 18.5463 16.6207 17.686C17.4493 16.893 18.3117 16.1377 19.1636 15.3783C20.0754 14.6932 21.007 14.0385 21.9308 13.3829L24.867 11.6959L27.9243 10.2928L31.0731 9.16072L34.2961 8.29852L37.5758 7.69531C38.6766 7.55167 39.7875 7.47277 40.9 7.35076C42.0132 7.26795 43.1321 7.32245 44.2559 7.30944C45.3796 7.30944 46.49 7.52092 47.6106 7.64146C48.1708 7.70445 48.7256 7.8118 49.2702 7.96259L50.9117 8.38555C51.1846 8.45974 51.4613 8.51993 51.7305 8.60582L52.5225 8.91263L54.1072 9.52853C56.1917 10.4162 58.1776 11.5365 60.03 12.8698C61.8645 14.2043 63.573 15.7173 65.1324 17.3882C71.4214 24.0588 75.1928 32.8618 75.7573 42.1878C75.7573 42.1878 75.4651 42.6671 74.736 42.6085C73.7094 42.5382 73.2096 43.1916 73.2096 43.1916C73.1627 42.1179 73.1124 40.985 73.0611 39.8223C72.8971 38.6732 72.7582 37.4879 72.5674 36.3124C72.2752 35.1606 72.0654 33.9809 71.7206 32.8732C71.3262 31.7844 71.039 30.6785 70.595 29.7026C70.1349 28.7368 69.764 27.7192 69.2295 26.7924C68.6786 25.8777 68.2184 24.8985 67.6036 24.0256C66.4276 22.2324 65.1058 20.5475 63.6528 18.9896C62.1848 17.4299 60.5707 16.0266 58.8348 14.8004C57.0942 13.5654 55.2286 12.533 53.2714 11.7219L51.7877 11.1576C51.2997 10.9503 50.7946 10.7898 50.2786 10.678L48.7422 10.2954C48.2334 10.1569 47.7148 10.061 47.1913 10.0084C46.1438 9.9092 45.1076 9.71561 44.0573 9.72733C43.0075 9.75335 41.9635 9.70813 40.9255 9.79663C39.8884 9.92417 38.8531 10.005 37.8287 10.1469L34.7801 10.7325C33.7878 11.0301 32.7869 11.2832 31.7899 11.555C30.8252 11.9326 29.8469 12.2708 28.8717 12.6254L26.041 13.9449L23.3233 15.5252L20.7644 17.389C19.9792 18.1005 19.1811 18.8043 18.4139 19.5407C17.7123 20.3449 16.9898 21.1329 16.3134 21.9596C15.7007 22.8398 15.0676 23.7064 14.5006 24.6156C14.003 25.572 13.4808 26.5104 13.0283 27.4814C12.6409 28.4879 12.2274 29.477 11.8886 30.4909C11.6113 31.5305 11.3028 32.5513 11.0453 33.5818C10.8408 34.6458 10.6403 35.6888 10.4439 36.7108C10.3267 37.7666 10.1935 38.8168 10.0441 39.8614C10.0005 40.9198 9.93749 41.9752 9.84994 43.0336C9.70798 47.2522 9.95938 51.6497 11.429 55.7407C11.7573 56.7728 12.2752 57.7246 12.7092 58.7117C13.1676 59.6878 13.8102 60.5588 14.3585 61.4772C14.9429 62.3744 15.6767 63.1603 16.3324 63.9918C17.0163 64.8024 17.8177 65.5027 18.5393 66.2626C19.2921 66.9937 20.1307 67.6254 20.8987 68.3278C21.6971 68.9948 22.562 69.5703 23.3671 70.2258C23.7667 70.5596 24.2312 70.7927 24.6505 71.0974L25.9359 71.9749C26.8085 72.5329 27.7248 73.0178 28.625 73.548C29.5402 74.0415 30.5137 74.4092 31.4704 74.8201C32.4438 75.1819 33.4609 75.4058 34.4602 75.6813C35.4666 75.9288 36.5041 76.0199 37.5245 76.1868C38.549 76.3332 39.5918 76.2836 40.6213 76.3377C44.7593 76.3282 48.8413 75.458 52.6779 73.9612C56.5062 72.4483 60.1658 70.3335 63.309 67.4828C64.1387 66.8194 64.8118 65.9862 65.5419 65.211C66.3042 64.4608 66.8672 63.5364 67.5169 62.6868C68.1962 61.8542 68.6453 60.86 69.2078 59.9464C69.7908 59.041 70.1524 58.0106 70.61 57.0379C71.4482 55.054 72.0706 52.9788 72.4657 50.8509C72.7373 49.8074 72.7661 48.7151 72.8889 47.6494C73.0384 46.5845 72.9627 45.4998 72.9477 44.4307C72.9477 44.4307 73.8282 44.8475 74.7838 43.6415C75.2436 43.0523 75.7045 43.2119 75.7045 43.2119Z" fill="#503D3F"/>
<path d="M53.5451 43.1983C53.604 43.605 53.7752 44.5171 53.7386 44.9445L53.7274 45.5879C53.7189 45.8025 53.6966 46.0162 53.6608 46.2277C53.5499 47.0862 53.3284 47.9252 53.0021 48.722C52.8481 49.1257 52.6618 49.5152 52.4454 49.8865C52.2184 50.2499 52.0398 50.6482 51.7559 50.9704C51.5078 51.3184 51.2289 51.6415 50.9231 51.9356C50.6276 52.2382 50.3068 52.5129 49.9646 52.7565C49.2933 53.2392 48.5789 53.6536 47.8313 53.994C47.4561 54.1503 47.1151 54.3554 46.7341 54.48C46.3745 54.6443 46.0071 54.7896 45.6333 54.9152C45.2691 55.0644 44.8974 55.1927 44.5197 55.2996C44.1445 55.4135 43.7702 55.5436 43.3848 55.624L42.8072 55.7605C42.6156 55.8145 42.4205 55.8536 42.2234 55.8776C41.8301 55.9497 41.4335 56.0007 41.0352 56.0305C40.2291 56.0987 39.4179 56.0594 38.6213 55.9136C37.8191 55.7706 37.0442 55.4941 36.3264 55.0948C35.6244 54.6867 34.9483 54.2323 34.3023 53.7342C33.6592 53.2429 33.0411 52.7173 32.4502 52.1596C31.8633 51.587 31.3328 50.9548 30.8665 50.2725C30.4168 49.5747 30.0615 48.8157 29.8108 48.017C29.3191 46.4027 29.4077 44.7042 29.4824 43.1313C29.5736 41.5468 29.6605 39.959 29.9787 38.3017C30.064 37.8919 30.1863 37.4894 30.31 37.0829C30.455 36.6882 30.634 36.3059 30.8132 35.9209C31.0249 35.5567 31.2553 35.2047 31.5033 34.8662C31.7674 34.5409 32.0549 34.2368 32.3388 33.932C32.6465 33.6515 32.9709 33.3907 33.2942 33.1357C33.6381 32.9053 33.9899 32.692 34.3401 32.485L35.4385 31.9629L36.5573 31.533C36.936 31.4126 37.3173 31.3096 37.6856 31.1717C38.0666 31.074 38.4495 30.9903 38.8249 30.8699C39.2095 30.7955 39.593 30.7124 39.9782 30.6114L41.1543 30.3945C41.9576 30.2605 42.7736 30.2289 43.5842 30.3003C43.7889 30.3132 43.9923 30.3426 44.1926 30.3884L44.7924 30.532L45.0914 30.608L45.3796 30.7218L45.9537 30.9529C46.7053 31.2892 47.4118 31.7256 48.0555 32.2512C48.6853 32.7744 49.2654 33.3593 49.7877 33.9979C51.8778 36.4834 53.2142 39.5569 53.6286 42.8313C53.6286 42.8313 53.3218 43.007 52.5948 42.994C51.5714 42.9868 51.0497 43.191 51.0497 43.191C51.0686 41.7691 50.8275 40.3564 50.3393 39.0282C50.0952 38.4087 49.8018 37.8114 49.4622 37.2426C49.1149 36.6679 48.7292 36.1192 48.308 35.6006C47.8775 35.0737 47.3922 34.5982 46.8608 34.1828C46.3287 33.7557 45.7423 33.4074 45.1182 33.148C44.7972 33.0455 44.4964 32.8746 44.1601 32.8261L43.6666 32.7223C43.5017 32.6888 43.3343 32.6707 43.1663 32.6683C42.5001 32.6379 41.8328 32.6961 41.1808 32.8414L40.2319 33.0639C39.9238 33.163 39.6177 33.2403 39.3095 33.3053C39.0125 33.416 38.707 33.4869 38.4027 33.5676C38.1116 33.6883 37.8077 33.7713 37.5052 33.8672C37.2167 33.9961 36.9133 34.0969 36.613 34.2136L35.7334 34.6289C35.4416 34.8095 35.162 34.9824 34.8948 35.1477C34.6382 35.3549 34.3789 35.5635 34.132 35.788C33.9095 36.0369 33.6803 36.2815 33.4716 36.5433C33.279 36.8182 33.1009 37.1038 32.938 37.3988C32.8075 37.7143 32.6748 38.0242 32.5714 38.344C32.4896 38.6755 32.4055 39.0001 32.3525 39.3298C32.3135 39.6636 32.2744 40.001 32.2373 40.3135C32.227 40.6429 32.1993 40.96 32.1637 41.2717C32.1551 41.5852 32.1296 41.8979 32.0875 42.2084C32.0807 42.5221 32.0521 42.835 32.002 43.1444C31.8676 44.3766 31.5741 45.7867 31.9664 47.1102C32.0643 47.4349 32.1909 47.7493 32.3446 48.0497C32.5096 48.3434 32.6975 48.6227 32.9063 48.8846C33.3519 49.3781 33.8536 49.8133 34.4004 50.1805C34.9343 50.5473 35.4537 50.8824 35.9473 51.2559C36.0662 51.3561 36.2054 51.4241 36.324 51.5263C36.451 51.6179 36.573 51.7168 36.6896 51.8224L37.4495 52.4035C37.9735 52.782 38.5683 53.0414 39.1951 53.1648C39.8174 53.2986 40.454 53.3457 41.0882 53.3048C42.3585 53.2367 43.562 52.8819 44.7225 52.4589C45.8736 52.0176 47.0624 51.5242 48.119 50.7222C48.3852 50.5262 48.6334 50.3051 48.8605 50.0617C49.0969 49.8266 49.3112 49.5686 49.5006 49.2913C49.7227 49.0375 49.8503 48.717 50.0257 48.4313C50.1904 48.1381 50.3302 47.8304 50.4436 47.5119C50.6861 46.8853 50.8443 46.2268 50.9137 45.5552C50.9932 44.8912 50.964 44.2181 50.8273 43.5643C51.4382 43.6549 52.0614 43.5786 52.6355 43.3431C52.924 43.2228 53.2352 43.1733 53.5451 43.1983Z" fill="#503D3F"/>
</svg>
