<svg width="40" height="40" viewBox="0 0 40 40" fill="none" xmlns="http://www.w3.org/2000/svg">
<path d="M4.99997 20.0754C4.99997 26.8468 9.50887 32.5631 15.6674 34.521C16.6571 34.8356 17.6009 34.0454 17.6009 33.0068V25.1297C17.6009 24.6694 17.2278 24.2963 16.7675 24.2963H14.6842C14.224 24.2963 13.8509 23.9232 13.8509 23.463V20.9086C13.8509 20.4483 14.224 20.0752 14.6842 20.0752H16.7675C17.2278 20.0752 17.6009 19.7021 17.6009 19.2419V16.7587C17.6009 12.9898 20.0009 10.8793 23.4509 10.8793C24.2686 10.8793 25.1774 10.9707 26.0354 11.0824C26.4464 11.1359 26.7509 11.4885 26.7509 11.903V14.1917C26.7509 14.6519 26.3778 15.025 25.9175 15.025H24.8009C23.0009 15.025 22.5509 15.9295 22.5509 17.1355V19.2419C22.5509 19.7021 22.924 20.0752 23.3842 20.0752H25.5487C26.0614 20.0752 26.4525 20.5339 26.3716 21.0402L25.9631 23.5946C25.8984 23.9989 25.5497 24.2963 25.1402 24.2963H23.3803C22.9216 24.2963 22.5491 24.667 22.5469 25.1257L22.5095 32.9972C22.5045 34.039 23.4501 34.8344 24.4425 34.5173C30.5796 32.556 35 26.8426 35 20.0754C35 11.7839 28.25 5 20 5C11.75 5 4.99997 11.7839 4.99997 20.0754Z" stroke="black" stroke-width="2" stroke-linecap="round" stroke-linejoin="round"/>
</svg>
