<svg width="40" height="40" viewBox="0 0 40 40" fill="none" xmlns="http://www.w3.org/2000/svg">
<path d="M32.7779 5.00207H7.21372C6.01369 4.98852 5.01467 5.96432 5.00005 7.16435V32.8347C5.01414 34.0354 6.01302 35.0123 7.21372 34.9994H32.7779C33.9816 35.0146 34.9839 34.0378 35 32.8347V7.1626C34.9839 5.96002 33.9802 4.98436 32.7779 5.00019M30.562 30.5617H26.1168V23.6004C26.1168 21.9404 26.0871 19.8035 23.8049 19.8035C21.4896 19.8035 21.1354 21.612 21.1354 23.4795V30.5612H16.6903V16.2459H20.9576V18.2022H21.0174C21.8863 16.7167 23.5078 15.8261 25.2278 15.8899C29.7331 15.8899 30.5638 18.8533 30.5638 22.7086L30.562 30.5617ZM11.6747 14.2891C10.2596 14.2891 9.0946 13.1248 9.0946 11.7096C9.0946 10.2945 10.2591 9.13004 11.6742 9.13004C13.0892 9.13004 14.2535 10.2942 14.2538 11.7091C14.2538 13.124 13.0896 14.289 11.6747 14.2891ZM13.8973 30.5617H9.44751V16.2459H13.8973V30.5617Z" stroke="black" stroke-width="2" stroke-linecap="round" stroke-linejoin="round"/>
</svg>
