<svg width="80" height="80" viewBox="0 0 80 80" fill="none" xmlns="http://www.w3.org/2000/svg">
<path d="M64.7649 11.4567H15.2349L18.2656 2.85222C18.8675 1.14318 20.4824 0 22.2943 0H57.7054C59.5173 0 61.1322 1.14318 61.7341 2.85222L64.7649 11.4567Z" fill="#947979"/>
<path d="M29.1285 0H22.2943C20.4824 0 18.8675 1.14318 18.2656 2.85222L15.2349 11.4567H22.069L25.0998 2.85222C25.7017 1.14318 27.3164 0 29.1285 0Z" fill="#795757"/>
<path d="M53.6065 80.0001H26.3937C23.7424 80.0001 21.5288 77.9782 21.2891 75.3379L16.0854 18.0137H63.9146L58.711 75.3379C58.4714 77.9782 56.2577 80.0001 53.6065 80.0001Z" fill="#FFEACF"/>
<path d="M28.1233 75.3375L22.9196 18.0132H16.0854L21.2891 75.3375C21.5288 77.9779 23.7424 79.9998 26.3937 79.9998H33.2278C30.5767 79.9998 28.363 77.9779 28.1233 75.3375Z" fill="#FCDDB0"/>
<path d="M65.5358 18.0133H14.4643C13.3321 18.0133 12.4141 17.0953 12.4141 15.9631V11.7661C12.4141 10.6338 13.3321 9.71582 14.4643 9.71582H65.5358C66.668 9.71582 67.586 10.6338 67.586 11.7661V15.9631C67.586 17.0953 66.6682 18.0133 65.5358 18.0133Z" fill="#947979"/>
<path d="M19.63 60.8332H60.3691C61.0599 60.8332 61.6372 60.2961 61.7015 59.5934L63.691 37.8121C63.7643 37.0107 63.1469 36.3184 62.3587 36.3184H17.6404C16.8523 36.3184 16.235 37.0107 16.3081 37.8121L18.2977 59.5934C18.362 60.2959 18.9391 60.8332 19.63 60.8332Z" fill="#947979"/>
<path d="M40.9653 60.5654C47.6359 60.5654 53.0435 55.1579 53.0435 48.4873C53.0435 41.8167 47.6359 36.4092 40.9653 36.4092C34.2948 36.4092 28.8872 41.8167 28.8872 48.4873C28.8872 55.1579 34.2948 60.5654 40.9653 60.5654Z" fill="#FF4D80"/>
<path d="M19.2482 15.1831C19.2482 14.0509 20.1662 13.1329 21.2984 13.1329H67.586V11.7661C67.586 10.6338 66.668 9.71582 65.5358 9.71582H14.4643C13.3321 9.71582 12.4141 10.6338 12.4141 11.7661V15.9631C12.4141 17.0953 13.3321 18.0133 14.4643 18.0133H19.2482V15.1831Z" fill="#795757"/>
<path d="M58.5172 58.0822C58.486 58.0822 58.4545 58.0808 58.4227 58.0779C57.8589 58.0265 57.4437 57.5276 57.495 56.9638L59.066 39.7645C59.1176 39.2006 59.6146 38.785 60.1801 38.8369C60.7439 38.8883 61.1591 39.3872 61.1079 39.951L59.5369 57.1503C59.4882 57.6822 59.0412 58.0822 58.5172 58.0822Z" fill="#FF4D80"/>
<path d="M60.7455 8.39195C60.2247 8.39195 59.779 7.99677 59.7265 7.46763C59.5996 6.18521 59.1299 5.25372 58.2906 4.62002C56.4632 3.23987 53.4452 3.73637 53.4153 3.74184C52.8573 3.84213 52.3248 3.47223 52.2245 2.91508C52.1239 2.35793 52.4941 1.82469 53.0513 1.72423C53.2098 1.6957 56.9607 1.04646 59.5263 2.98393C60.8292 3.96788 61.583 5.40851 61.7667 7.26569C61.8224 7.82916 61.4109 8.33096 60.8475 8.38683C60.8133 8.39041 60.7791 8.39195 60.7455 8.39195Z" fill="#FF4D80"/>
<path d="M59.0621 33.842C59.0252 33.842 58.9882 33.8401 58.9509 33.836C58.3881 33.7754 57.981 33.2698 58.0416 32.7069L59.261 21.3967C59.3218 20.8336 59.8291 20.4268 60.3902 20.4874C60.953 20.5481 61.3601 21.0536 61.2995 21.6166L60.0801 32.9268C60.0234 33.4521 59.579 33.842 59.0621 33.842Z" fill="#FCF9DE"/>
<path d="M51.1344 76.5095C51.0753 76.5095 51.0162 76.5088 50.9557 76.5073C50.3896 76.493 49.9425 76.0226 49.9569 75.4566C49.9712 74.8905 50.4452 74.4431 51.0076 74.4577C52.2291 74.4887 53.0826 74.0636 53.5971 73.1574C54.0232 72.4073 54.0638 71.6009 54.0644 71.5929C54.0652 71.5743 54.0668 71.5493 54.0685 71.5307L54.6982 65.2313C54.7546 64.668 55.2559 64.2566 55.8202 64.3133C56.3837 64.3697 56.7946 64.872 56.7384 65.4353L56.1117 71.7031C56.0415 73.4031 54.9132 76.5095 51.1344 76.5095Z" fill="#FCF9DE"/>
<path d="M32.4715 69.4034C33.8869 69.4034 35.0343 68.256 35.0343 66.8406C35.0343 65.4252 33.8869 64.2778 32.4715 64.2778C31.0561 64.2778 29.9087 65.4252 29.9087 66.8406C29.9087 68.256 31.0561 69.4034 32.4715 69.4034Z" fill="#FCDDB0"/>
<path d="M37.9847 76.1114C39.4001 76.1114 40.5475 74.964 40.5475 73.5486C40.5475 72.1332 39.4001 70.9858 37.9847 70.9858C36.5693 70.9858 35.4219 72.1332 35.4219 73.5486C35.4219 74.964 36.5693 76.1114 37.9847 76.1114Z" fill="#FCDDB0"/>
<path d="M28.8875 7.55724C30.3029 7.55724 31.4503 6.40984 31.4503 4.99444C31.4503 3.57905 30.3029 2.43164 28.8875 2.43164C27.4721 2.43164 26.3247 3.57905 26.3247 4.99444C26.3247 6.40984 27.4721 7.55724 28.8875 7.55724Z" fill="#795757"/>
<path d="M26.8404 59.5934L24.8508 37.8121C24.7777 37.0107 25.395 36.3184 26.1831 36.3184H17.6404C16.8523 36.3184 16.235 37.0107 16.3081 37.8121L18.2977 59.5934C18.3618 60.2961 18.9391 60.8332 19.63 60.8332H28.1727C27.4818 60.8332 26.9045 60.2961 26.8404 59.5934Z" fill="#795757"/>
</svg>
