<svg xmlns="http://www.w3.org/2000/svg" version="1.1" viewBox="-5.0 -10.0 110.0 135.0">
 <path d="m64.012 20.824c-5.1445 0.48438-9.9375 2.8125-13.5 6.5586-0.12891 0.14844-0.3125 0.23047-0.50781 0.23047-0.19531 0-0.38281-0.082031-0.51172-0.23047-3.5586-3.7461-8.3555-6.0742-13.5-6.5586-3.4219-0.29688-6.7266 1.3086-8.6094 4.1836-3.3438 4.8555-3.5195 13.125-0.42578 19.664 6.1797 13.051 18.078 18.844 21.574 20.309v-0.003907c0.94141 0.39844 2.0078 0.39844 2.9492 0 3.5-1.4648 15.398-7.2617 21.574-20.309 3.0938-6.5352 2.918-14.809-0.42578-19.664l0.003906 0.003906c-1.8828-2.8789-5.1953-4.4883-8.6211-4.1836zm6.2109 22.508c-5.7031 12.047-16.715 17.406-19.957 18.77-0.17188 0.070313-0.36328 0.070313-0.53125 0-3.2383-1.3594-14.254-6.7188-19.957-18.766-2.6055-5.5039-2.5312-12.621 0.17578-16.555l-0.003906-0.003906c1.1211-1.7969 3.0977-2.8789 5.2148-2.8555 0.19141 0 0.38672 0.007813 0.58203 0.023437 4.3867 0.42188 8.4727 2.4219 11.5 5.6211 0.73047 0.73047 1.7188 1.1406 2.75 1.1406 1.0352 0 2.0234-0.41016 2.75-1.1406 3.0312-3.1992 7.1172-5.1992 11.5-5.6211 2.3164-0.24219 4.5664 0.85938 5.8008 2.832 2.7109 3.9336 2.7812 11.051 0.17578 16.555zm-13.98-3.7227h-1.2188v-1.2188c0-2.7734-2.25-5.0234-5.0234-5.0234s-5.0234 2.25-5.0234 5.0234v1.2188h-1.2188c-1.3438-0.019531-2.6367 0.5-3.5938 1.4453-0.96094 0.94531-1.4961 2.2305-1.4961 3.5742 0 1.3477 0.53516 2.6328 1.4961 3.5781 0.95703 0.94141 2.25 1.4648 3.5938 1.4453h1.2188v1.2188c0 2.7734 2.25 5.0234 5.0234 5.0234s5.0234-2.25 5.0234-5.0234v-1.2188h1.2188c1.3438 0.019531 2.6367-0.50391 3.5938-1.4453 0.96094-0.94531 1.4961-2.2305 1.4961-3.5781 0-1.3438-0.53516-2.6289-1.4961-3.5742-0.95703-0.94531-2.25-1.4648-3.5938-1.4453zm0 6.918h-4.3438v4.3438c0 1.0469-0.84766 1.8984-1.8984 1.8984s-1.8984-0.85156-1.8984-1.8984v-4.3438h-4.3438c-0.52344 0.03125-1.0352-0.15234-1.418-0.51172-0.37891-0.35938-0.59766-0.85938-0.59766-1.3867 0-0.52344 0.21875-1.0234 0.59766-1.3828 0.38281-0.35938 0.89453-0.54297 1.418-0.51172h4.3438v-4.3438c0-1.0508 0.84766-1.8984 1.8984-1.8984s1.8984 0.84766 1.8984 1.8984v4.3438h4.3438c0.52344-0.03125 1.0352 0.15234 1.418 0.51172 0.38281 0.35938 0.59766 0.85938 0.59766 1.3828 0 0.52734-0.21484 1.0273-0.59766 1.3867-0.38281 0.35938-0.89453 0.54297-1.418 0.51172zm34.422-8.4102h-0.003906c-2.5742-0.47656-5.1094 1.0117-5.9453 3.4922l-6.3008 18.742-2.4688 3v0.003907c-0.41016-1.207-1.1602-2.2656-2.1641-3.0508-2.8125-2.1211-6.7695-1.793-9.1992 0.75781l-7.6172 7.6211-4.6992 5.082c-0.91406 1.0117-1.6758 2.1523-2.2656 3.3828-0.58984-1.2305-1.3516-2.3711-2.2656-3.3828l-4.7422-5.125-7.5742-7.5781c-2.4297-2.5508-6.3828-2.875-9.1992-0.75781-1 0.78516-1.75 1.8438-2.1641 3.0508l-2.4688-3-6.3008-18.742v-0.003906c-0.63281-1.8867-2.2852-3.2539-4.2578-3.5312-1.9727-0.27344-3.9336 0.58984-5.0625 2.2344-0.79297 1.1445-1.0898 2.5625-0.82812 3.9336l3.8438 20.691c0.21094 1.1445 0.71094 2.2148 1.4492 3.1133l14.188 17.227c0.26953 0.32422 0.73047 1.0234 1.1602 1.6914 0.54688 0.85156 0.83984 1.8477 0.83594 2.8633v5.1445c0.003907 2.7734 2.25 5.0195 5.0234 5.0234h14.898c1.293 0 2.5352-0.50391 3.4648-1.3984 0.92969 0.89453 2.168 1.3984 3.4609 1.3984h14.898c2.7734-0.003906 5.0195-2.25 5.0234-5.0234v-5.1445c-0.003906-1.0156 0.28906-2.0117 0.83594-2.8633 0.42969-0.66797 0.89062-1.3672 1.1602-1.6914l14.191-17.223c0.73828-0.89844 1.2383-1.9727 1.4492-3.1172l3.8438-20.691h0.003907c0.25781-1.3672-0.042969-2.7852-0.83203-3.9336-0.78516-1.1523-2-1.9414-3.3711-2.1953zm-42.227 56.859c0 1.0469-0.85156 1.8984-1.9023 1.8984h-14.898c-1.0508 0-1.8984-0.85156-1.8984-1.8984v-5.1445c0-1.6172-0.46484-3.2031-1.3398-4.5586-0.51172-0.78516-1.0625-1.6055-1.3711-1.9805l-14.184-17.23c-0.40625-0.48828-0.67969-1.0742-0.79297-1.6992l-3.8516-20.688c-0.10156-0.55859 0.019531-1.1328 0.33984-1.5977 0.32031-0.46875 0.8125-0.78906 1.3711-0.89062 1.043-0.19141 2.0664 0.41406 2.4102 1.418l6.3945 19.02 6.1289 7.6016 0.007812-0.007812c0.015626 0.019531 0.019532 0.046875 0.039063 0.0625l6.6797 7.3789h-0.003906c0.58203 0.64062 1.5703 0.69141 2.2109 0.10938 0.64062-0.57812 0.6875-1.5664 0.10938-2.207l-6.5312-7.2148-0.003907-0.003906c-0.91797-1.5156-0.57812-3.4766 0.80078-4.5938 1.5781-1.1094 3.7305-0.88672 5.0508 0.51953l7.5312 7.5352 4.6992 5.082c1.9297 2.082 3.0039 4.8125 3 7.6523zm39.512-30.613c-0.11719 0.625-0.38672 1.2109-0.79297 1.6992l-14.184 17.227c-0.3125 0.37891-0.86328 1.1992-1.3711 1.9844-0.87891 1.3555-1.3438 2.9414-1.3398 4.5586v5.1445c0 1.0469-0.85156 1.8984-1.9023 1.8984h-14.898c-1.0508 0-1.9023-0.85156-1.9023-1.8984v-11.438c0-2.8359 1.0703-5.5703 3-7.6523l4.6562-5.0391 7.5742-7.5781 0.003907 0.003907c1.3203-1.4062 3.4688-1.625 5.0508-0.51953 1.375 1.1133 1.7188 3.0781 0.79688 4.5938l-6.5312 7.2148c-0.57812 0.64062-0.53125 1.6289 0.10938 2.2109 0.64062 0.57812 1.6289 0.53125 2.2109-0.10938l6.6797-7.3789c0.019531-0.019531 0.023437-0.042968 0.039063-0.0625l0.007812 0.007813 5.8555-7.1094 6.668-19.512-0.003907-0.003906c0.34766-1 1.3711-1.6016 2.4141-1.418 0.55859 0.10156 1.0508 0.42188 1.3711 0.89062 0.32031 0.46484 0.44141 1.0391 0.33984 1.5977zm-68.711-30.727c0.69531 0.49219 0.86719 1.4492 0.39062 2.1523-0.47656 0.70313-1.4297 0.89844-2.1406 0.4375l-10.016-6.7734c-0.35156-0.22656-0.59766-0.58984-0.68359-1-0.082031-0.41406 0.003907-0.83984 0.23828-1.1875 0.23438-0.35156 0.60156-0.58984 1.0156-0.66406 0.41406-0.074218 0.83984 0.019532 1.1836 0.26172zm0.27344-10.102-18.973-16.551c-0.625-0.57031-0.67969-1.5352-0.125-2.1758 0.55469-0.64062 1.5195-0.71875 2.1758-0.17969l18.973 16.547c0.49219 0.42969 0.66797 1.1172 0.4375 1.7266-0.22656 0.60938-0.80859 1.0156-1.4609 1.0156-0.37891 0-0.74219-0.13672-1.0273-0.38672zm-2.8008-21.012 0.003906 0.003906c-0.26562-0.32812-0.38672-0.74609-0.33984-1.1641 0.050781-0.41797 0.26172-0.79688 0.59375-1.0547 0.33203-0.25781 0.75391-0.37109 1.168-0.31641 0.41797 0.058594 0.79297 0.27734 1.043 0.61328l10.602 13.68c0.52734 0.6875 0.40234 1.668-0.28516 2.1992-0.68359 0.52734-1.668 0.40234-2.1953-0.28516zm18.254 3.8008h0.003906c-0.36719-0.78125-0.027344-1.7109 0.75391-2.0742 0.78125-0.36719 1.7109-0.027344 2.0781 0.75391l3.918 8.418c0.17578 0.375 0.19531 0.80469 0.050781 1.1953-0.14062 0.38672-0.43359 0.70703-0.80859 0.87891-0.20313 0.097656-0.42969 0.14844-0.65625 0.14844-0.60938 0-1.1602-0.35156-1.418-0.90234zm46.672 30.168c-0.6875 0-1.293-0.44531-1.4961-1.1016-0.19922-0.65625 0.050781-1.3672 0.62109-1.7539l10.012-6.7734c0.34375-0.24219 0.76953-0.33594 1.1836-0.26172 0.41406 0.074219 0.78125 0.3125 1.0156 0.66406 0.23438 0.34766 0.32031 0.77344 0.23828 1.1875-0.085938 0.41016-0.33203 0.77344-0.68359 1l-10.016 6.7734c-0.25781 0.17578-0.5625 0.26563-0.875 0.26563zm17.824-29.508-18.973 16.547c-0.65234 0.56641-1.6367 0.5-2.2031-0.15234-0.56641-0.64844-0.5-1.6367 0.15234-2.2031l18.973-16.547c0.3125-0.28125 0.72656-0.42969 1.1445-0.40625 0.42187 0.023438 0.8125 0.21484 1.0898 0.53516 0.27734 0.31641 0.41406 0.73438 0.37891 1.1523-0.035157 0.41797-0.23828 0.80859-0.5625 1.0742zm-28.961 9.4961c-0.67969-0.53125-0.80469-1.5117-0.27734-2.1953l10.598-13.68c0.25-0.33594 0.625-0.55469 1.043-0.61328 0.41406-0.054688 0.83594 0.058594 1.1641 0.31641 0.33203 0.25391 0.54688 0.63281 0.59766 1.0508 0.046875 0.41406-0.070312 0.83594-0.33594 1.1602l-10.59 13.68c-0.53125 0.67969-1.5117 0.80469-2.1914 0.27734zm-22.066-2.3984v-12.52c0.023437-0.84766 0.71484-1.5234 1.5625-1.5234s1.543 0.67578 1.5625 1.5234v12.52c0.011718 0.42188-0.14844 0.82812-0.44141 1.1289-0.29297 0.30078-0.69922 0.47266-1.1211 0.47266s-0.82422-0.17188-1.1172-0.47266c-0.29297-0.30078-0.45312-0.70703-0.44531-1.1289zm9.8477-0.66016 3.918-8.418c0.36328-0.78125 1.293-1.1211 2.0781-0.75391 0.78125 0.36328 1.1172 1.293 0.75391 2.0742l-3.9141 8.4141c-0.25781 0.55078-0.80859 0.90234-1.418 0.90234-0.22656 0-0.45312-0.050781-0.65625-0.14844-0.78125-0.36328-1.1211-1.2891-0.75781-2.0703z"/>
<text x="0.0" y="117.5" font-size="5.0" font-weight="bold" font-family="Arbeit Regular, Helvetica, Arial-Unicode, Arial, Sans-serif" fill="#000000">by meilia miftah choirun niswah</text><text x="0.0" y="122.5" font-size="5.0" font-weight="bold" font-family="Arbeit Regular, Helvetica, Arial-Unicode, Arial, Sans-serif" fill="#000000">from Noun Project</text></svg>