<svg width="80" height="80" viewBox="0 0 80 80" fill="none" xmlns="http://www.w3.org/2000/svg">
<path d="M38.2595 78.2214C40.5427 77.1185 42.6489 75.7646 44.8561 74.7169C45.9526 74.172 47.0684 73.6732 48.1952 73.1841L51.6256 71.7559C52.7781 71.2731 53.9026 70.7203 54.9934 70.1004C56.0782 69.4684 57.1099 68.7414 58.0772 67.927C60.0292 66.316 61.6956 64.3339 63.1704 62.2365L63.724 61.4527L64.2686 60.6649L65.3417 59.0883L67.4766 55.9488C68.8822 53.8462 70.3252 51.7251 71.5553 49.3924C72.1788 48.2222 72.7126 47.002 73.1516 45.7435C73.5743 44.4672 73.8785 43.1513 74.0599 41.8141C74.2421 40.4755 74.2927 39.1209 74.2109 37.7715C74.1507 37.0994 74.0865 36.4291 73.994 35.7661C73.8686 35.1061 73.7798 34.4446 73.6218 33.7976C73.4638 33.1507 73.3325 32.5032 73.1491 31.8705C72.9756 31.2351 72.808 30.603 72.612 29.981C72.4362 29.3527 72.2478 28.7314 72.0467 28.1169C71.8638 27.4953 71.6631 26.8818 71.4613 26.2679C70.6418 23.7986 69.6563 21.3931 68.5119 19.0694C66.1808 14.411 62.5689 10.2714 58.0752 7.85861C55.8568 6.6169 53.6 5.55424 51.3454 4.50417C50.787 4.24566 50.2266 3.98439 49.6511 3.71726L48.7989 3.33191L47.9439 2.94897C46.8013 2.44091 45.6438 1.95973 44.4644 1.53439C42.1067 0.694047 39.6507 0.193337 37.1638 0.0460559C34.6831 -0.104398 32.1975 0.138431 29.7571 0.418312L22.4671 1.26278C20.0399 1.53491 17.5719 1.84598 15.2097 2.6808C14.0226 3.09769 12.8721 3.62054 11.7707 4.24359L10.9431 4.72287C10.6704 4.88728 10.4074 5.08082 10.141 5.25713C9.61089 5.62959 9.09945 6.03029 8.60867 6.45766C8.12041 6.90346 7.66589 7.38816 7.24919 7.90739C6.83024 8.43826 6.47735 9.02256 6.19897 9.64631C5.92627 10.2738 5.77406 10.9511 5.75098 11.6399C5.75153 12.185 5.85728 12.7242 6.06189 13.2255C6.08281 13.3325 6.09731 13.4392 6.12664 13.5467C6.17278 13.7161 6.23061 13.8723 6.28119 14.0365C6.70849 16.4173 7.74761 18.6314 9.28701 20.4412C10.9406 22.4362 13.0092 23.9796 15.0391 25.3772C17.0822 26.7758 19.1204 28.0546 20.9519 29.4576C22.775 30.8566 24.4425 32.2707 25.7466 33.9384C26.4163 34.7626 27.0289 35.6357 27.5796 36.5511C27.8895 36.9982 28.1156 37.5004 28.3927 37.9845C28.6166 38.4936 28.9002 38.9925 29.0691 39.5376L29.3442 40.3532L29.6041 41.1816C29.8194 41.7331 29.8183 42.3089 29.9127 42.8804C29.9456 43.1697 29.9778 43.4569 30.0092 43.7421C30.0181 44.0306 30.0097 44.3194 29.9843 44.6069C29.9321 45.182 29.9412 45.7616 29.8011 46.3272C29.6611 46.8928 29.5111 47.4508 29.3411 47.9989C29.1299 48.5442 28.8542 49.0674 28.6196 49.5932C28.0658 50.6338 27.4567 51.6215 26.8008 52.6378C25.4487 54.7447 24.3471 57.016 23.5204 59.4016C22.6628 61.9984 22.2352 64.7292 22.256 67.4765C22.2932 68.1748 22.3295 68.8592 22.3649 69.5296C22.3682 70.2095 22.5444 70.873 22.6131 71.5403C22.731 72.8882 23.1117 74.1537 23.3451 75.4616C23.3759 75.6524 23.416 75.8415 23.4652 76.0281C23.5476 76.2521 23.6176 76.4837 23.7068 76.7069C23.9185 77.1427 24.1957 77.5401 24.528 77.8838C25.153 78.4953 25.8949 78.9612 26.7047 79.2507C28.0307 79.744 29.4275 79.9973 30.8349 79.9997C33.4957 80.0178 35.9787 79.3167 38.2595 78.2214Z" fill="#FAD390" fill-opacity="0.5"/>
<path d="M72.212 41.0932C72.3389 43.4295 72.4489 47.4931 72.5133 49.8295C72.5414 51.0044 72.5692 52.1726 72.5967 53.3341C72.6165 54.5039 72.6363 55.6765 72.6559 56.8388C72.6735 59.1855 72.6908 61.5147 72.7084 63.8481L72.705 67.3526C72.7067 69.4605 72.0419 71.5099 70.8141 73.1814C69.5862 74.8529 67.8643 76.0528 65.9166 76.594C65.278 76.7744 64.6214 76.8766 63.9602 76.8984L63.4659 76.9156L63.0461 76.9082L62.2084 76.8925L58.8579 76.8264L45.4554 76.5815C36.5203 76.4781 27.5856 76.5263 18.6507 76.5918L16.9754 76.6039C16.3481 76.6113 15.7214 76.5599 15.103 76.4501C13.8388 76.2123 12.6412 75.6825 11.5974 74.8994C10.5511 74.1179 9.68045 73.1069 9.04618 71.9371C8.41192 70.7673 8.02934 69.4668 7.92513 68.1264C7.87817 67.4224 7.89003 66.8649 7.88806 66.28L7.88525 64.5285L7.90536 61.0236L7.95165 54.0143L8.11411 39.9957L8.15234 36.4912C8.12764 35.2618 8.23301 34.0334 8.46655 32.8282C8.71267 31.6112 9.10421 30.4313 9.63193 29.3165L11.1527 26.1799C12.2038 24.042 13.2346 21.8936 14.2452 19.7346L17.524 12.6806L31.1417 12.3655L37.8427 12.2966L44.5441 12.2871L57.9464 12.303L60.9412 12.3193L67.0855 22.9714L70.5291 29.0421C71.6954 31.2806 72.2853 33.7978 72.241 36.3468C72.241 36.3468 71.7923 35.7446 71.363 35.5466C71.0263 35.3792 70.6434 35.3437 70.2837 35.4465C70.1345 35.486 69.9921 35.55 69.8619 35.636C69.8298 33.6218 69.3064 31.6494 68.3413 29.906C67.305 28.0684 66.2729 26.2381 65.1345 24.2198C64.0042 22.2048 62.8691 20.1817 61.7425 18.1734L59.7228 14.5923L57.9458 14.5579L44.5434 14.446L37.8421 14.4171C35.6084 14.4265 33.375 14.4233 31.1411 14.4733L24.6328 14.6423L21.3795 14.7509L19.7527 14.8048L19.0277 14.831L18.8013 14.8565L18.7603 14.9672C18.7881 14.9512 18.4454 15.6962 18.2281 16.1798L17.5079 17.7624C17.0189 18.8183 16.5319 19.8698 16.0471 20.9171C15.0642 23.0155 14.0639 25.1046 13.0462 27.1843L11.5342 30.2916C11.0824 31.2362 10.747 32.2369 10.5358 33.2698C10.3264 34.3292 10.2308 35.4097 10.2506 36.4914L10.1986 39.9957C10.1315 44.6677 10.0644 49.3492 9.99755 54.0143C9.98546 56.3543 9.97355 58.6908 9.96179 61.0237L9.9669 64.5285L9.9753 66.2806C9.97811 66.864 9.97662 67.4712 10.016 67.9524C10.1024 68.9694 10.4029 69.9539 10.8959 70.8352C11.3889 71.7165 12.0623 72.4728 12.8676 73.0499C13.6585 73.6266 14.5645 74.0075 15.517 74.1637C16.0002 74.2367 16.4886 74.2644 16.9765 74.2462L18.6519 74.1989L25.353 74.0408L32.0542 73.9097C36.5215 73.8428 40.9891 73.8483 45.4566 73.8835C49.924 73.9364 54.3915 74.0494 58.8591 74.1635L62.2096 74.2483C63.3905 74.2807 64.31 74.3264 65.2441 74.0662C66.6717 73.6872 67.9378 72.8213 68.8423 71.6054C69.7467 70.3895 70.238 68.893 70.2383 67.3524L70.248 63.8479C70.2315 61.5149 70.216 59.1852 70.1999 56.8386C70.1799 55.6769 70.1598 54.5041 70.1397 53.3339C70.1112 52.1748 70.0823 51.0067 70.0531 49.8293C69.9859 47.4929 69.9002 45.1563 69.7649 42.8201C69.7649 42.8201 70.4141 42.8919 71.4163 42.1097C71.7443 41.8304 72.015 41.4847 72.212 41.0932Z" fill="#503D3F"/>
<path d="M61.1353 14.1563C60.989 14.8086 60.6341 15.8949 60.4309 16.52C60.3198 16.8474 60.2126 17.1628 60.1145 17.452C60.0032 17.76 59.898 18.0707 59.7758 18.3733C59.3181 19.5988 58.7799 20.7861 58.2392 21.9713C57.1275 24.3282 55.8511 26.606 54.702 28.945C54.1123 30.1532 53.6155 31.2082 53.3562 32.402C53.0879 33.597 52.9885 34.8266 53.0613 36.0517L53.1074 38.0219L53.1168 39.9921L53.1209 40.9774C53.1143 41.3026 53.1076 41.6343 53.101 41.9625L53.0545 43.9328L52.8922 47.8733C52.838 49.1868 52.7934 50.5002 52.8016 51.8138C52.7522 54.4408 53.0926 57.0678 53.259 59.695C53.3017 60.3518 53.3084 61.0084 53.3249 61.6652L53.334 63.6354C53.3288 64.9515 53.3237 66.2622 53.3188 67.576L53.2255 71.5165C53.1993 72.1542 53.1715 72.8317 53.1445 73.4867L53.0998 74.4718L53.038 75.4571C52.7592 75.36 52.4735 75.2859 52.1836 75.2355C51.6854 75.1549 51.1783 75.1549 50.6801 75.2355C50.8519 73.9221 50.8404 72.8301 50.9384 71.5167C50.9803 70.8618 51.0239 70.1774 51.0641 69.5463L51.163 67.5761C51.2006 66.2627 51.2619 64.9491 51.2698 63.6355L51.2978 61.6653C51.2886 61.0086 51.2917 60.3519 51.2439 59.6951C51.1709 58.3816 50.9968 57.068 50.8671 55.7546C50.7255 54.4465 50.6632 53.1303 50.6806 51.814C50.6741 51.1572 50.6956 50.5004 50.7135 49.8438C50.7447 49.2072 50.7778 48.5287 50.8097 47.8734C50.8766 46.5636 50.9452 45.2223 51.0109 43.933C51.1025 41.3034 51.0237 38.6703 50.7751 36.0519C50.7087 35.3506 50.6833 34.6457 50.699 33.9412C50.713 33.2117 50.7913 32.485 50.9332 31.7706C51.1848 30.3324 51.827 28.9338 52.359 27.8214C53.4972 25.4775 54.8452 23.2337 55.9901 20.8933C56.5426 19.7133 57.0868 18.5293 57.5439 17.3034C57.6668 17.0011 57.7711 16.6899 57.8818 16.3817C57.9925 16.0736 58.096 15.7613 58.1949 15.4483C58.4014 14.8196 58.5759 14.1798 58.7177 13.5317C59.2247 13.7697 59.7547 13.9501 60.2986 14.07C60.5724 14.1387 60.8539 14.1678 61.1353 14.1563Z" fill="#503D3F"/>
<path d="M17.0934 13.7067C16.9667 13.1552 16.8566 12.1935 16.7922 11.6412C16.7592 11.3654 16.7281 11.0897 16.7086 10.8126C16.6892 10.5354 16.6592 10.2611 16.6497 9.98411C16.6419 9.83711 16.6301 9.7275 16.6294 9.54999C16.6342 9.36041 16.639 9.17429 16.6436 8.98988C16.6766 8.61519 16.7437 8.24465 16.8439 7.88328C17.0527 7.16154 17.3947 6.48964 17.8508 5.90567C18.7683 4.75762 20.0838 4.03732 21.5086 3.90289C21.8374 3.87111 22.1681 3.86926 22.4972 3.89738L23.2892 3.96339L24.8736 4.0742C26.9861 4.17761 29.0985 4.12935 31.211 4.06386L32.7952 4.01561L34.3794 4.00578L35.1716 4.00147L35.9638 4.02233L37.5482 4.07075L40.7168 4.24068C41.7729 4.29738 42.8293 4.34409 43.8854 4.3353C45.9979 4.387 48.1103 4.03112 50.2228 3.85705C50.75 3.81224 51.2789 3.80535 51.807 3.78812L53.3914 3.77881L56.56 3.79466L59.7286 3.89221L61.313 3.977L62.105 4.02371L62.8972 4.08833C62.8188 4.38171 62.7593 4.68024 62.7191 4.98192C62.6543 5.50399 62.6543 6.03263 62.7191 6.5547C61.6628 6.37495 60.7847 6.38702 59.7286 6.28447L58.1442 6.1528L56.56 6.0494C55.5038 6.01028 54.4475 5.946 53.3914 5.93772L51.807 5.9086C51.2797 5.91825 50.7508 5.91497 50.2228 5.96495C49.1665 6.0413 48.1103 6.22433 47.054 6.3591C46.0042 6.5071 44.9452 6.57254 43.8861 6.55488C43.3588 6.56142 42.8299 6.53902 42.3018 6.52041L40.7175 6.41959L37.5488 6.20933C35.4335 6.11357 33.3143 6.19598 31.2116 6.45578L29.6273 6.61382C29.0992 6.66552 28.5711 6.72342 28.0429 6.74497C26.9867 6.81184 25.9306 6.80632 24.8743 6.77116C24.3462 6.7448 23.8181 6.70326 23.2899 6.65414L22.4978 6.57556C22.2988 6.5484 22.0982 6.53435 21.8974 6.53351C21.5012 6.53528 21.1096 6.623 20.7474 6.7911C20.3853 6.9592 20.0603 7.20405 19.7932 7.51016C19.5242 7.83576 19.3223 8.21587 19.2001 8.62676C19.1429 8.8333 19.1053 9.0452 19.0877 9.25942C19.0815 9.50088 19.0877 9.74251 19.1065 9.98325C19.1152 10.259 19.1444 10.5356 19.1665 10.8117C19.1861 11.0874 19.2184 11.3642 19.2531 11.6403C19.3161 12.1985 19.4124 12.752 19.5415 13.2975C18.9872 13.3013 18.4344 13.3575 17.8899 13.4654C17.6161 13.5121 17.3486 13.5931 17.0934 13.7067Z" fill="#503D3F"/>
<path d="M64.5784 13.2835C64.7753 13.1474 65.0755 13.0019 65.2304 12.8932C65.3026 12.8361 65.3793 12.7856 65.4597 12.742C65.5279 12.686 65.6004 12.636 65.6765 12.5926C65.9545 12.3892 66.2343 12.2236 66.4951 12.0066C67.0271 11.6154 67.6239 11.0748 67.8444 10.2863C67.9405 9.89437 67.95 9.48467 67.8721 9.0883C67.7943 8.69193 67.6312 8.3193 67.3952 7.99868C67.2863 7.83701 67.1624 7.68693 67.0255 7.55059C66.8998 7.40555 66.7633 7.27111 66.6173 7.14852L66.391 6.97618C66.3119 6.92448 66.2382 6.86433 66.1618 6.80625C66.0041 6.6973 65.8379 6.60241 65.665 6.52258C65.314 6.33555 64.9351 6.21252 64.5446 6.15877C64.1393 6.09842 63.7261 6.14632 63.3433 6.29802C62.5322 6.55533 62.082 7.44116 61.8991 8.16068C61.8497 8.34422 61.7741 8.51002 61.7353 8.68925C61.6762 8.86021 61.633 9.03677 61.6065 9.21644C61.5795 9.39619 61.5678 9.57732 61.5556 9.76069L61.5391 10.5428L61.4459 12.1252C61.4328 12.3889 61.391 12.6526 61.365 12.9164L61.3201 13.3128L61.2585 13.7092C61.2585 13.7092 60.8163 13.6458 60.404 13.6201C59.9033 13.5878 59.4011 13.5878 58.9004 13.6201C59.0724 13.0926 59.0607 12.6541 59.1587 12.1268C59.1999 11.8629 59.254 11.5992 59.2846 11.3355L59.3835 10.5443C59.4047 10.2869 59.4276 10.012 59.4494 9.74794C59.4764 9.44145 59.5182 9.13658 59.5748 8.83453C59.6344 8.5349 59.7205 8.2417 59.832 7.9587C59.9178 7.66572 60.0516 7.3948 60.1554 7.10371C60.3729 6.49361 60.6703 5.91802 61.039 5.3934C61.4384 4.84854 61.983 4.43956 62.6043 4.21804C62.9102 4.09623 63.2297 4.01562 63.555 3.97814C63.8772 3.94536 64.2018 3.94611 64.5238 3.98038C65.1517 4.05073 65.7645 4.22757 66.3381 4.50395C67.4854 5.02011 68.5129 5.78879 69.3506 6.75765C69.5654 7.01978 69.7555 7.30292 69.9184 7.60316C70.0915 7.90674 70.2275 8.23184 70.3233 8.57085C70.5096 9.25644 70.5345 9.97903 70.3957 10.6769C70.1013 12.094 69.1271 13.1796 68.1526 13.9293C67.6666 14.3218 67.1494 14.6702 66.6066 14.9706C66.4654 15.0355 66.3298 15.12 66.189 15.1965C66.044 15.2582 65.9003 15.3321 65.7536 15.4078L64.824 15.8324C64.824 15.8324 64.7929 15.1541 64.682 14.1104C64.6303 13.5979 64.5784 13.2835 64.5784 13.2835Z" fill="#503D3F"/>
<path d="M40.8647 30.9978C40.571 30.9163 40.2911 30.788 40.0347 30.6175C39.8905 30.5268 39.7743 30.3947 39.6998 30.237C39.6019 29.9945 39.5981 29.7216 39.6891 29.4762C39.7913 29.2288 39.8779 28.9747 39.9486 28.7155C39.9746 28.5903 39.9915 28.4631 39.9992 28.3352C40.0117 28.2083 40.0248 28.0815 40.0284 27.9546C40.0391 27.7011 40.0549 27.4476 40.0869 27.1939C40.1277 26.9365 40.1855 26.6823 40.2599 26.4332C40.3318 26.1746 40.4181 25.9205 40.5182 25.6723C40.6141 25.4096 40.7298 25.1552 40.8642 24.9116C41.2841 25.3312 41.5964 25.8544 41.7724 26.4332C41.8569 26.6771 41.9001 26.9345 41.9001 27.1939C41.8834 27.4536 41.8324 27.7096 41.7485 27.9546C41.71 28.0815 41.6817 28.2083 41.653 28.3352C41.6309 28.4609 41.616 28.5879 41.6083 28.7155C41.6015 28.9692 41.6074 29.2232 41.6258 29.4762C41.6352 29.7341 41.6006 29.9917 41.5236 30.237C41.4758 30.3768 41.4031 30.5059 41.3094 30.6175C41.1848 30.7718 41.0341 30.9008 40.8647 30.9978Z" fill="#503D3F"/>
<path d="M31.0307 39.2032C30.5481 39.6564 29.9621 39.972 29.329 40.1197C28.7183 40.2769 28.0846 40.3116 27.4616 40.2219C26.2184 40.0402 24.8912 39.5882 23.8377 38.5558C22.806 37.5013 22.2925 36.1138 22.0668 34.7974C21.9575 34.1424 21.9017 33.4788 21.9001 32.8138C21.8966 32.4846 21.9068 32.1575 21.9294 31.8295C21.9747 31.2422 22.0488 30.6577 22.1515 30.0784C22.7059 29.9748 23.2649 29.9011 23.8265 29.8575C24.1396 29.8376 24.4526 29.8306 24.7667 29.8376C25.4009 29.8466 26.0333 29.9117 26.657 30.032C27.9092 30.2799 29.2191 30.8264 30.2047 31.8969C31.1696 32.9889 31.5912 34.3599 31.7558 35.649C31.8424 36.2941 31.8173 36.9502 31.6817 37.5861C31.5568 38.2395 31.2801 38.8507 30.876 39.3658C30.7735 38.7594 30.7009 38.1639 30.6228 37.5878C30.5417 37.0105 30.4669 36.4452 30.3614 35.897C30.1517 34.8007 29.7169 33.7925 29.0359 33.1195C28.3393 32.4646 27.3792 32.0946 26.3464 31.9424C25.822 31.8681 25.2927 31.838 24.7637 31.8525C24.4968 31.8571 24.2284 31.8738 23.9628 31.9011C23.9124 31.9116 23.9298 31.9183 23.9189 31.9271C23.9208 31.949 23.9254 31.9304 23.9262 31.9753C23.9097 32.253 23.9039 32.533 23.9087 32.8105C23.9128 33.3587 23.9577 33.9058 24.0432 34.4467C24.2159 35.5078 24.5905 36.4693 25.1965 37.1352C25.8165 37.7855 26.7348 38.2143 27.7565 38.4106L29.3315 38.7282C29.9073 38.8471 30.475 39.0058 31.0307 39.2032Z" fill="#503D3F"/>
<path d="M32.7933 39.3646C32.3601 38.8597 32.0584 38.2468 31.9171 37.5847C31.7668 36.9459 31.7337 36.2831 31.8194 35.6314C31.9931 34.331 32.4252 32.9428 33.4122 31.8409C34.4204 30.7617 35.7469 30.2249 37.0056 29.9886C37.632 29.8741 38.2667 29.8158 38.9027 29.8142C39.2174 29.8105 39.5303 29.8212 39.8437 29.8448C40.4051 29.8923 40.9639 29.9699 41.5178 30.0772C41.6169 30.657 41.6874 31.2418 41.7292 31.8292C41.7482 32.1566 41.7549 32.4841 41.748 32.8126C41.7396 33.476 41.6774 34.1374 41.5622 34.7898C41.3252 36.0996 40.8029 37.4697 39.7792 38.5007C38.7354 39.5099 37.4246 39.9509 36.1921 40.1233C35.5753 40.2137 34.948 40.1874 34.3402 40.0455C33.7155 39.9148 33.1311 39.6254 32.6386 39.2028C33.2186 39.0956 33.7877 39.0196 34.3387 38.9379C34.8906 38.8531 35.4309 38.775 35.955 38.6647C37.0031 38.445 37.9671 37.9905 38.6105 37.2783C39.2367 36.5494 39.5902 35.5452 39.7357 34.465C39.8068 33.9164 39.8356 33.3628 39.8217 32.8094C39.8175 32.5304 39.8013 32.2495 39.7753 31.9717C39.7654 31.919 39.7588 31.9372 39.7504 31.9259C39.7295 31.9278 39.7473 31.9326 39.7044 31.9334C39.4388 31.9162 39.1711 31.9102 38.9058 31.9152C38.3817 31.9195 37.8587 31.9665 37.3415 32.0558C36.3272 32.2364 35.4078 32.6283 34.7712 33.2622C34.1497 33.9107 33.7397 34.8712 33.5519 35.9398L33.2479 37.5873C33.1342 38.1896 32.9823 38.7833 32.7933 39.3646Z" fill="#503D3F"/>
<path d="M32.1207 32.9782C31.4731 32.9417 30.8454 32.7315 30.2979 32.3678C29.7597 32.0271 29.2881 31.5826 28.9083 31.058C28.152 30.0102 27.5191 28.709 27.472 27.1998C27.4555 25.691 28.0304 24.3303 28.7607 23.2323C29.1263 22.688 29.5357 22.1773 29.9844 21.7057C30.2043 21.4705 30.4329 21.2466 30.6705 21.0315C31.0996 20.6498 31.5471 20.2913 32.0113 19.9575C32.4732 20.2943 32.9184 20.6556 33.3451 21.04C33.58 21.2578 33.8064 21.4841 34.0233 21.7216C34.4658 22.1969 34.869 22.7106 35.2285 23.2572C35.9461 24.3582 36.5033 25.7137 36.4765 27.1998C36.4206 28.6856 35.7917 29.9667 35.0367 31.0003C34.6618 31.5203 34.2005 31.9656 33.6748 32.3149C33.1448 32.6846 32.5359 32.9122 31.9019 32.9775C32.2395 32.4729 32.5906 31.9981 32.9249 31.533C33.2578 31.0647 33.5871 30.6099 33.883 30.1442C34.4762 29.2136 34.8501 28.1796 34.8235 27.1998C34.7733 26.2218 34.3447 25.2498 33.7175 24.3782C33.3969 23.9378 33.0429 23.5251 32.659 23.1441C32.4672 22.9499 32.266 22.7632 32.0599 22.5861C32.0172 22.5561 32.0247 22.5735 32.0105 22.5719C31.997 22.5892 32.0128 22.5792 31.983 22.6114C31.7839 22.796 31.5902 22.9893 31.4063 23.1891C31.0386 23.5798 30.7006 23.9999 30.3953 24.4456C29.8002 25.3235 29.4149 26.2805 29.3925 27.1998C29.3914 28.1182 29.7509 29.1004 30.3408 29.9947L31.2399 31.3842C31.5668 31.8947 31.861 32.4272 32.1207 32.9782Z" fill="#503D3F"/>
<path d="M31.0307 48.1889C30.5481 48.6421 29.9621 48.9577 29.329 49.1054C28.7183 49.2627 28.0846 49.2973 27.4616 49.2076C26.2184 49.0259 24.8912 48.5739 23.8377 47.5416C22.806 46.487 22.2925 45.0995 22.0668 43.7832C21.9574 43.1278 21.9016 42.4639 21.9001 41.7987C21.8966 41.4695 21.9068 41.1422 21.9294 40.8144C21.9747 40.2271 22.0488 39.6426 22.1515 39.0633C22.7059 38.9597 23.2649 38.8859 23.8265 38.8423C24.1396 38.8225 24.4526 38.8154 24.7667 38.8225C25.4009 38.8315 26.0333 38.8965 26.657 39.0169C27.9092 39.2647 29.2191 39.8112 30.2047 40.8818C31.1696 41.9736 31.5912 43.3447 31.7558 44.6338C31.8424 45.279 31.8173 45.9351 31.6817 46.5709C31.5568 47.2243 31.2801 47.8356 30.876 48.3507C30.7735 47.7442 30.7009 47.1488 30.6228 46.5725C30.5417 45.9953 30.4669 45.4302 30.3614 44.8818C30.1517 43.7856 29.7169 42.7774 29.0359 42.1044C28.3393 41.4495 27.3792 41.0795 26.3464 40.9273C25.822 40.8529 25.2927 40.8229 24.7637 40.8373C24.4968 40.842 24.2284 40.8587 23.9628 40.8859C23.9124 40.8964 23.9298 40.9032 23.9189 40.912C23.9208 40.9338 23.9254 40.9152 23.9262 40.9602C23.9097 41.2379 23.9039 41.5179 23.9087 41.7954C23.9128 42.3436 23.9577 42.8907 24.0432 43.4316C24.2159 44.4927 24.5905 45.4542 25.1965 46.1201C25.8165 46.7703 26.7348 47.199 27.7565 47.3954L29.3315 47.713C29.9073 47.8322 30.475 47.9912 31.0307 48.1889Z" fill="#503D3F"/>
<path d="M32.7933 48.3509C32.3601 47.8461 32.0584 47.2331 31.9171 46.571C31.7668 45.9322 31.7337 45.2694 31.8194 44.6177C31.9931 43.3174 32.4252 41.9292 33.4122 40.8272C34.4204 39.748 35.7469 39.2112 37.0056 38.9749C37.632 38.8605 38.2667 38.8021 38.9027 38.8005C39.2174 38.7969 39.5303 38.8076 39.8437 38.8312C40.4051 38.8787 40.9639 38.9562 41.5178 39.0635C41.6169 39.6433 41.6874 40.2281 41.7292 40.8155C41.7482 41.143 41.7549 41.4704 41.748 41.7989C41.7396 42.4623 41.6774 43.1237 41.5622 43.7761C41.3252 45.0859 40.8029 46.4561 39.7792 47.487C38.7354 48.4962 37.4246 48.9372 36.1921 49.1096C35.5753 49.2 34.948 49.1737 34.3402 49.0319C33.7155 48.9012 33.1311 48.6117 32.6386 48.1891C33.2186 48.0819 33.7877 48.0059 34.3387 47.9242C34.8906 47.8394 35.4309 47.7614 35.955 47.6511C37.0031 47.4313 37.9671 46.9769 38.6105 46.2646C39.2367 45.5357 39.5902 44.5315 39.7357 43.4513C39.8068 42.9028 39.8356 42.3491 39.8217 41.7958C39.8175 41.5168 39.8013 41.2358 39.7753 40.958C39.7654 40.9053 39.7588 40.9236 39.7504 40.9122C39.7295 40.9141 39.7473 40.9189 39.7044 40.9198C39.4388 40.9025 39.1711 40.8965 38.9058 40.9015C38.3817 40.9057 37.8587 40.9527 37.3415 41.0421C36.3272 41.2227 35.4078 41.6147 34.7712 42.2485C34.1497 42.897 33.7397 43.8575 33.5519 44.9262L33.2481 46.5736C33.1343 47.1759 32.9824 47.7697 32.7933 48.3509Z" fill="#503D3F"/>
<path d="M31.0307 57.1748C30.5481 57.628 29.962 57.9436 29.329 58.0913C28.7183 58.2486 28.0846 58.2833 27.4616 58.1935C26.2184 58.0118 24.8912 57.5598 23.8377 56.5275C22.806 55.4729 22.2925 54.0854 22.0668 52.7691C21.9574 52.1137 21.9016 51.4498 21.9001 50.7846C21.8966 50.4554 21.9068 50.1281 21.9294 49.8003C21.9747 49.213 22.0488 48.6285 22.1515 48.0492C22.7059 47.9456 23.2649 47.8718 23.8265 47.8282C24.1396 47.8084 24.4526 47.8012 24.7667 47.8084C25.4009 47.8174 26.0333 47.8824 26.657 48.0028C27.9092 48.2506 29.2191 48.7971 30.2047 49.8677C31.1696 50.9595 31.5912 52.3306 31.7558 53.6197C31.8424 54.2649 31.8173 54.921 31.6817 55.5569C31.5568 56.2103 31.2801 56.8215 30.876 57.3366C30.7735 56.7301 30.7009 56.1347 30.6228 55.5584C30.5417 54.9811 30.4669 54.4161 30.3614 53.8677C30.1517 52.7715 29.7169 51.7633 29.0359 51.0903C28.3393 50.4354 27.3792 50.0654 26.3464 49.9132C25.822 49.8389 25.2927 49.8089 24.7637 49.8234C24.4968 49.8281 24.2284 49.8448 23.9628 49.872C23.9124 49.8825 23.9298 49.8893 23.9189 49.898C23.9208 49.9199 23.9254 49.9013 23.9262 49.9461C23.9097 50.2239 23.9039 50.504 23.9087 50.7815C23.9128 51.3297 23.9577 51.8768 24.0432 52.4177C24.2159 53.4788 24.5905 54.4403 25.1965 55.1062C25.8165 55.7564 26.7348 56.185 27.7565 56.3815L29.3315 56.6991C29.9073 56.8183 30.475 56.9772 31.0307 57.1748Z" fill="#503D3F"/>
<path d="M32.7933 57.3378C32.3601 56.8329 32.0584 56.2199 31.9171 55.5578C31.7668 54.919 31.7337 54.2562 31.8194 53.6045C31.9931 52.3042 32.4252 50.916 33.4122 49.814C34.4204 48.7348 35.7469 48.198 37.0056 47.9617C37.632 47.8473 38.2667 47.7889 38.9027 47.7873C39.2174 47.7837 39.5303 47.7944 39.8437 47.818C40.4051 47.8654 40.9639 47.9429 41.5178 48.0503C41.6168 48.6301 41.6874 49.2148 41.7292 49.8021C41.7482 50.1296 41.7549 50.457 41.748 50.7857C41.7396 51.4491 41.6774 52.1106 41.5622 52.763C41.3252 54.0728 40.8029 55.4429 39.7792 56.4738C38.7354 57.4822 37.4246 57.9237 36.1918 58.0961C35.575 58.1865 34.9477 58.1602 34.3398 58.0183C33.7152 57.8876 33.1308 57.5982 32.6383 57.1756C33.2183 57.0684 33.7874 56.9924 34.3383 56.9107C34.8903 56.8259 35.4306 56.7478 35.9547 56.6375C37.0028 56.4178 37.9668 55.9633 38.6102 55.2511C39.2363 54.5222 39.5899 53.518 39.7354 52.4378C39.8065 51.8892 39.8352 51.3356 39.8214 50.7823C39.8171 50.5031 39.801 50.2223 39.7749 49.9445C39.7651 49.8918 39.7585 49.91 39.7501 49.8987C39.7291 49.9006 39.7469 49.9054 39.7041 49.9062C39.4385 49.889 39.1707 49.883 38.9055 49.888C38.3813 49.8922 37.8583 49.9392 37.3412 50.0286C36.3269 50.2092 35.4075 50.6011 34.7709 51.235C34.1494 51.8835 33.7394 52.844 33.5516 53.9127C33.4692 54.3568 33.3809 54.838 33.2478 55.5601C33.1341 56.1625 32.9823 56.7564 32.7933 57.3378Z" fill="#503D3F"/>
<path d="M23.1338 30.9978C22.8401 30.9163 22.5601 30.788 22.3037 30.6175C22.1596 30.5267 22.0434 30.3947 21.9689 30.237C21.871 29.9945 21.8671 29.7216 21.9582 29.4762C22.0603 29.2288 22.147 28.9747 22.2177 28.7155C22.2437 28.5903 22.2606 28.4631 22.2683 28.3352C22.281 28.2083 22.294 28.0815 22.2974 27.9546C22.3081 27.7011 22.3241 27.4476 22.3561 27.1939C22.3968 26.9365 22.4545 26.6823 22.5289 26.4332C22.601 26.1746 22.6873 25.9206 22.7873 25.6723C22.8832 25.4096 22.9989 25.1552 23.1333 24.9116C23.5532 25.3312 23.8655 25.8544 24.0416 26.4332C24.1259 26.6772 24.1691 26.9345 24.1693 27.1939C24.1525 27.4536 24.1015 27.7096 24.0178 27.9546C23.979 28.0815 23.9509 28.2083 23.922 28.3352C23.8999 28.4609 23.885 28.5879 23.8774 28.7155C23.8706 28.9692 23.8764 29.2232 23.8948 29.4762C23.9043 29.7341 23.8697 29.9917 23.7928 30.237C23.7449 30.3767 23.6722 30.5058 23.5787 30.6175C23.454 30.7718 23.3031 30.9007 23.1338 30.9978Z" fill="#503D3F"/>
<path d="M32.9696 32.7559C33.0991 33.1723 33.1997 33.5979 33.2706 34.0295C33.3036 34.1999 33.3349 34.3702 33.3542 34.5404C33.3735 34.7107 33.4036 34.8812 33.4133 35.0514C33.4712 35.731 33.4833 36.414 33.4497 37.0954C33.3779 38.4579 33.1248 39.8205 33.012 41.1832C32.9347 42.5447 32.938 43.9099 33.022 45.2709L33.0681 46.2929L33.0775 47.3149L33.0817 47.8257C33.0805 47.9961 33.068 48.1664 33.0617 48.3367L33.0153 49.3587L32.853 51.4026C32.7988 52.0839 32.7541 52.7652 32.7623 53.4464C32.7129 54.8089 33.0533 56.1716 33.2197 57.5342C33.2626 57.8749 33.2692 58.2154 33.2856 58.5562L33.2945 59.5781C33.3077 60.2594 33.2856 60.9407 33.2794 61.6219L33.1861 63.6659C33.1729 64.0066 33.1311 64.3472 33.1051 64.6879L33.0604 65.1989L32.9986 65.7099C32.9986 65.7099 32.5566 65.6278 32.1441 65.5947C31.6438 65.553 31.141 65.553 30.6407 65.5947C30.8125 64.9135 30.801 64.3472 30.899 63.6659C30.94 63.3252 30.9941 62.9846 31.0249 62.6439L31.1238 61.6219C31.1613 60.9407 31.2226 60.2594 31.2307 59.5781L31.2585 58.5562C31.2598 58.2147 31.2418 57.8734 31.2047 57.5342C31.1317 56.8529 30.9575 56.1716 30.8278 55.4904C30.687 54.8194 30.6243 54.1331 30.6412 53.4464C30.6349 53.1059 30.6563 52.7652 30.6741 52.4246C30.6949 52.0839 30.74 51.7432 30.7705 51.4026C30.8356 50.7212 30.9163 50.0399 30.9715 49.3587C31.0628 47.9912 30.9836 46.617 30.7357 45.2709L30.5848 44.2489C30.5354 43.9084 30.48 43.5677 30.4593 43.2269C30.4022 42.5473 30.3939 41.8641 30.4344 41.1832C30.5354 39.8205 30.867 38.4579 30.9753 37.0954C31.0221 36.4147 31.0163 35.7312 30.958 35.0514C30.9493 34.8812 30.9201 34.7109 30.8979 34.5404C30.8784 34.3702 30.846 34.1999 30.8112 34.0295C30.7467 33.68 30.6502 33.3378 30.523 33.0076C31.0749 33.0054 31.6263 32.9709 32.1745 32.9042C32.4428 32.8767 32.7087 32.8271 32.9696 32.7559Z" fill="#503D3F"/>
</svg>
