<svg width="40" height="40" viewBox="0 0 40 40" fill="none" xmlns="http://www.w3.org/2000/svg">
<path d="M8.33329 12.4998C10.6345 12.4998 12.5 10.6344 12.5 8.33317C12.5 6.03198 10.6345 4.1665 8.33329 4.1665C6.03211 4.1665 4.16663 6.03198 4.16663 8.33317C4.16663 10.6344 6.03211 12.4998 8.33329 12.4998ZM8.33329 12.4998V27.4998C8.33329 16.1665 19.1666 8.33317 27.5 8.33317M7.49996 35.8332H9.16662C11.0076 35.8332 12.5 34.3408 12.5 32.4998V30.8332C12.5 28.9922 11.0076 27.4998 9.16662 27.4998H7.49996C5.65901 27.4998 4.16663 28.9922 4.16663 30.8332V32.4998C4.16663 34.3408 5.65901 35.8332 7.49996 35.8332ZM30.8333 12.4998H32.4999C34.3409 12.4998 35.8333 11.0075 35.8333 9.1665V7.49984C35.8333 5.65889 34.3409 4.1665 32.4999 4.1665H30.8333C28.9923 4.1665 27.5 5.65889 27.5 7.49984V9.1665C27.5 11.0075 28.9923 12.4998 30.8333 12.4998Z" stroke="black" stroke-width="2" stroke-linecap="round" stroke-linejoin="round"/>
</svg>
