<svg width="40" height="40" viewBox="0 0 40 40" fill="none" xmlns="http://www.w3.org/2000/svg">
<path d="M23.0987 28.9507V31.942C23.0987 33.6309 21.7296 35.0001 20.0407 35.0001C18.3678 35.0001 17.0055 33.656 16.9828 31.9833L16.9418 28.9507M23.0987 28.9507H16.9418M23.0987 28.9507C23.0987 27.9088 23.7611 27.0038 24.635 26.4366C26.8652 24.9892 28.3332 22.5268 28.3332 19.7326C28.3332 15.2779 24.6022 11.6667 19.9998 11.6667C15.3975 11.6667 11.6665 15.2779 11.6665 19.7326C11.6665 22.5266 13.1343 24.9889 15.3642 26.4363C16.2422 27.0062 16.9171 27.9043 16.9418 28.9507M19.9998 7.50008V4.16675M32.4998 20.0001H35.8332M28.8383 28.8389L31.1953 31.196M4.1665 20.0001H7.49984M8.80411 8.8042L11.1611 11.1612M11.1606 28.8385L8.80355 31.1955M31.1956 8.80435L28.8385 11.1614" stroke="black" stroke-width="2" stroke-linecap="round" stroke-linejoin="round"/>
</svg>
