<svg width="40" height="40" viewBox="0 0 40 40" fill="none" xmlns="http://www.w3.org/2000/svg">
<path d="M14.4368 32.5C11.1378 32.5032 7.90669 31.547 5.11828 29.7439C5.08875 29.7248 5.10529 29.6788 5.14026 29.6826C5.58166 29.7299 6.02521 29.7533 6.46908 29.7526C9.2106 29.7571 11.8748 28.8272 14.0431 27.1107C14.0675 27.0914 14.0542 27.052 14.0231 27.0509C12.7709 27.0073 11.5605 26.5736 10.5539 25.8065C9.53741 25.0318 8.77877 23.9554 8.38053 22.724C8.37274 22.6999 8.39375 22.6764 8.41863 22.6811C8.78204 22.7497 9.1508 22.7842 9.52038 22.7845C10.0229 22.7845 10.5234 22.7219 11.0108 22.5979C11.0447 22.5893 11.0434 22.541 11.0094 22.5331C9.66967 22.2238 8.46777 21.4641 7.5964 20.3728C6.69602 19.2453 6.20399 17.8331 6.20374 16.3761C6.20374 16.3684 6.20374 16.3609 6.20374 16.3535C6.20374 16.3279 6.2314 16.3118 6.25374 16.3243C7.06203 16.7754 7.95887 17.0339 8.87757 17.0812C8.91086 17.0829 8.92517 17.0399 8.89803 17.0205C7.64404 16.1275 6.75725 14.7876 6.41233 13.2602C6.06256 11.7112 6.29613 10.0846 7.06522 8.70518C7.07673 8.68454 7.10552 8.68231 7.12025 8.70079C8.6595 10.6325 10.5755 12.2137 12.7457 13.3429C14.9172 14.4728 17.295 15.125 19.7265 15.258C19.7486 15.2592 19.7657 15.2389 19.7609 15.2173C19.4621 13.8755 19.5992 12.4699 20.1522 11.2148C20.7111 9.94626 21.6633 8.90257 22.8609 8.24613C24.0584 7.58969 25.434 7.35732 26.7738 7.58515C28.1075 7.81191 29.331 8.48203 30.2561 9.49186C30.264 9.50051 30.2759 9.50442 30.2874 9.50205C31.6279 9.22677 32.9143 8.72592 34.095 8.01998C34.1214 8.00419 34.1533 8.02937 34.1436 8.05859C33.6901 9.4338 32.7899 10.6072 31.5946 11.3834C31.5645 11.4029 31.5815 11.4504 31.617 11.4455C32.7464 11.291 33.8496 10.9771 34.8953 10.5127C34.9258 10.4991 34.9553 10.5337 34.9369 10.5614C34.1237 11.7838 33.1104 12.8532 31.9416 13.7221C31.9326 13.7288 31.9276 13.7395 31.9281 13.7506C31.9411 14.0147 31.9467 14.2807 31.9467 14.5486C31.9467 22.8844 25.7524 32.5 14.429 32.5" stroke="black" stroke-width="2" stroke-linecap="round" stroke-linejoin="round"/>
</svg>
