<svg width="203" height="367" viewBox="0 0 203 367" fill="none" xmlns="http://www.w3.org/2000/svg">
<path d="M177.432 348.906C177.021 348.906 176.609 348.995 176.224 349.167C174.687 349.854 173.995 351.693 174.672 353.261C175 354.026 175.604 354.609 176.365 354.906C177.109 355.193 177.917 355.172 178.646 354.844C180.177 354.156 180.875 352.323 180.198 350.755C179.87 349.99 179.266 349.406 178.505 349.109C178.156 348.974 177.797 348.906 177.432 348.906ZM177.437 356.813C176.865 356.813 176.297 356.708 175.745 356.495C174.557 356.031 173.615 355.125 173.104 353.938C172.057 351.516 173.146 348.677 175.526 347.615C176.672 347.099 177.948 347.063 179.125 347.521C180.312 347.984 181.255 348.891 181.766 350.078C182.812 352.495 181.724 355.333 179.344 356.401C178.734 356.677 178.083 356.813 177.437 356.813Z" fill="black"/>
<path d="M153.813 338.344C153.391 338.344 153.026 338.031 152.969 337.599L152.396 333.245C152.333 332.776 152.661 332.349 153.13 332.286C153.594 332.224 154.026 332.552 154.083 333.021L154.661 337.38C154.719 337.844 154.391 338.276 153.927 338.339C153.885 338.344 153.849 338.344 153.813 338.344Z" fill="black"/>
<path d="M155.146 348.5C154.729 348.5 154.359 348.187 154.302 347.76L153.729 343.396C153.667 342.932 153.995 342.505 154.464 342.443C154.927 342.38 155.359 342.708 155.422 343.177L155.995 347.536C156.057 348.005 155.729 348.432 155.26 348.49C155.224 348.495 155.188 348.5 155.146 348.5Z" fill="black"/>
<path d="M146.927 342.193C146.505 342.193 146.141 341.885 146.083 341.453C146.021 340.984 146.354 340.562 146.818 340.5L151.182 339.927C151.651 339.865 152.078 340.193 152.141 340.661C152.203 341.125 151.87 341.557 151.406 341.615L147.042 342.187C147.005 342.193 146.964 342.193 146.927 342.193Z" fill="black"/>
<path d="M157.094 340.859C156.672 340.859 156.307 340.552 156.25 340.12C156.188 339.651 156.516 339.224 156.984 339.161L161.349 338.589C161.818 338.531 162.245 338.859 162.307 339.323C162.365 339.792 162.036 340.219 161.573 340.281L157.208 340.854C157.167 340.859 157.13 340.859 157.094 340.859Z" fill="black"/>
<path d="M71.8334 283.375C71.7813 283.375 71.7344 283.37 71.6823 283.36C71.2188 283.276 70.9115 282.834 70.9896 282.37L79.2813 235.417C79.3646 234.953 79.8073 234.641 80.2709 234.724C80.7344 234.807 81.0417 235.245 80.9636 235.714L72.6719 282.667C72.599 283.084 72.2396 283.375 71.8334 283.375Z" fill="black"/>
<path d="M141.391 72.073H130.635C128.474 72.073 126.854 70.323 127.016 68.1667L127.036 67.8751C127.198 65.7136 129.078 63.9636 131.24 63.9636H141.995C144.156 63.9636 145.776 65.7136 145.615 67.8751L145.589 68.1667C145.432 70.323 143.547 72.073 141.391 72.073Z" fill="#CADDFF"/>
<path d="M160.385 172.474H122.281C120.349 172.474 118.896 170.906 119.042 168.974L119.057 168.708C119.203 166.776 120.891 165.208 122.823 165.208H160.927C162.865 165.208 164.318 166.776 164.172 168.708L164.151 168.974C164.005 170.906 162.323 172.474 160.385 172.474Z" fill="#B27B92"/>
<path d="M162.328 155.505H123.552C121.615 155.505 120.161 153.938 120.307 152L120.328 151.74C120.474 149.807 122.156 148.24 124.094 148.24H162.87C164.807 148.24 166.26 149.807 166.115 151.74L166.094 152C165.948 153.938 164.266 155.505 162.328 155.505Z" fill="#CADDFF"/>
<path d="M0.0170869 168.533L19.209 105.654C19.4569 104.84 22.3349 104.178 25.6387 104.174L183.453 104C186.752 103.996 189.231 104.654 188.983 105.467L169.791 168.346C169.543 169.159 166.665 169.822 163.361 169.826L5.54669 170C2.24833 170.003 -0.230828 169.346 0.0170869 168.533Z" fill="#850E42"/>
<path d="M103.281 22.2084C97.0208 15.4427 87.7083 14.0156 80.7135 15.9219C71.8594 18.3438 67.3906 25.9948 64.2448 31.3906C58.6771 40.9375 61.3646 44.3906 56.9896 49.9323C49.2396 59.75 30.4427 53.25 21.2917 60.7917C-0.697914 78.9063 11.2865 108.849 30.7813 122.984C43.7813 132.411 61.4635 126.958 66.276 125.474C80.875 120.974 105.068 112.156 107.411 91.0938C108.984 76.9323 94.5156 65.5729 102.292 53.7709C104.271 50.7656 105.911 49.9531 107.38 46.1927C109.766 40.0886 110.307 29.8073 103.281 22.2084Z" fill="black"/>
<path d="M80.4271 23.8802C83.75 21.1823 81.6458 13.2292 79.5156 8.94271C78.7188 7.33334 75.151 0.14063 70.4531 0.416672C65.6302 0.70313 61.0104 8.79688 62.7344 15.2031C64.8854 23.2135 76.526 27.0417 80.4271 23.8802Z" fill="black"/>
<path d="M128.724 173.484L118.568 115.068L128.271 109.516C128.271 109.516 116.385 76.6198 103.057 73.4584V73.4636C102.568 73.2605 102.073 73.0677 101.563 72.9063C85.5365 67.8073 71.8073 68.9844 61.9063 71.5573V71.5469C61.9063 71.5469 53.0938 72.7136 52.3125 72.9011C47.3594 74.0834 34.6458 77.8177 28.5156 94.5157C26.7188 99.3959 24.6615 106.141 23.026 111.745C21.2135 117.974 23.3542 124.677 28.4479 128.703L33.9479 131.906L45.9896 126.979C45.474 137.385 43.9948 147.734 41.5469 157.885L38.5156 170.474C37.7969 178.531 42.1198 186.276 49.4583 189.693C49.6354 189.776 49.8073 189.854 49.974 189.927C55.6823 192.422 72.6719 192.505 86.7396 192.505C99.8646 192.505 109.13 190.307 115.26 187.984C121.13 185.766 129.458 179.708 128.724 173.484Z" fill="white"/>
<path d="M39.3594 170.615C38.6927 178.344 42.8906 185.693 49.8177 188.922C49.9896 189 50.1563 189.073 50.3177 189.146C56.0417 191.651 74.5156 191.651 86.7396 191.651C97.6458 191.651 107.141 190.146 114.958 187.188C120.557 185.068 128.531 179.287 127.88 173.604L117.729 115.214C117.667 114.854 117.833 114.505 118.146 114.323L127.219 109.13C125.448 104.485 114.615 77.2033 102.948 74.3075C102.875 74.3023 102.797 74.2814 102.724 74.2502C102.193 74.0262 101.74 73.8544 101.307 73.7189C88.0833 69.5106 74.901 69.0575 62.1198 72.3804C62.0417 72.4012 61.9688 72.4012 61.8906 72.4064C58.4948 72.8596 53.0417 73.5992 52.5104 73.7294C41.2708 76.4117 33.4635 83.5054 29.3125 94.8075C27.849 98.7919 25.9583 104.735 23.849 111.979C22.1302 117.886 24.125 124.167 28.9323 128L34.0156 130.959L45.6667 126.188C45.9323 126.084 46.2448 126.115 46.4792 126.287C46.7188 126.453 46.8542 126.729 46.8385 127.021C46.3229 137.485 44.8229 147.932 42.3802 158.084L39.3594 170.615ZM86.7396 193.354C70.375 193.354 55.224 193.151 49.6354 190.709C49.4583 190.63 49.2813 190.552 49.099 190.464C41.5052 186.932 36.9115 178.865 37.6667 170.396C37.6719 170.354 37.6771 170.313 37.6875 170.276L40.7188 157.682C43.0365 148.073 44.4948 138.188 45.0625 128.281L34.2708 132.693C34.026 132.797 33.75 132.776 33.5208 132.641L28.0208 129.443C27.9844 129.422 27.9479 129.401 27.9167 129.375C22.5313 125.115 20.2865 118.099 22.2083 111.505C24.3594 104.115 26.2135 98.2971 27.7135 94.2189C32.0729 82.3492 40.2813 74.896 52.1146 72.0679C52.9167 71.8804 60.8854 70.8179 61.7917 70.6981C61.7969 70.6981 61.8021 70.6981 61.8125 70.6981C74.8698 67.3283 88.3333 67.7971 101.823 72.0939C102.281 72.2398 102.75 72.4117 103.292 72.6356C116.896 75.9169 128.583 107.865 129.073 109.224C129.214 109.615 129.057 110.047 128.693 110.255L119.51 115.505L129.563 173.339C129.568 173.354 129.568 173.365 129.573 173.38C130.359 180.047 121.854 186.401 115.563 188.781C107.552 191.818 97.8542 193.354 86.7396 193.354Z" fill="black"/>
<path d="M44.5156 169.328C44.3802 169.328 44.2448 169.297 44.1198 169.229C43.7031 169.005 43.5417 168.495 43.7604 168.073C48.5 159.094 58.0312 152.922 71.3333 150.235C82.401 148 93.6198 148.641 99.8646 149.875C108.641 151.61 117.406 157.245 117.776 157.485C118.172 157.745 118.286 158.271 118.026 158.667C117.771 159.057 117.245 159.172 116.849 158.917C116.76 158.86 107.984 153.219 99.5365 151.552C86.1979 148.917 55.3802 149.688 45.2708 168.87C45.1198 169.162 44.8229 169.328 44.5156 169.328Z" fill="black"/>
<path d="M63.9479 95.7448C63.9479 95.7448 37.7344 110.505 32.3281 115.13C26.9219 119.76 21.0573 123.276 28.7031 133.37C35.2031 141.948 46.6459 134.281 66.8177 105.37C67.7604 104.016 69.3073 103.177 70.9219 102.818C72.9427 102.365 75.8802 100.766 77.2344 95.4635C77.2344 95.4635 86.7969 96.8177 87.6406 92.1614L73.2813 89.875C71.3542 89.5364 69.3854 90.1666 68.0209 91.5677L63.9479 95.7448Z" fill="white"/>
<path d="M72.25 90.6408C70.8958 90.6408 69.5938 91.1772 68.6354 92.1616L64.5625 96.3439C64.5052 96.4012 64.4375 96.4533 64.3698 96.4897C64.1094 96.6408 38.1667 111.261 32.8854 115.781C32.4635 116.141 32.0417 116.495 31.6198 116.844C26.7031 120.948 22.8229 124.188 29.3854 132.854C30.9271 134.896 32.6979 135.865 34.8021 135.828C41.4375 135.698 51.6771 125.573 66.1198 104.886C67.1146 103.458 68.7552 102.427 70.7344 101.985C72.651 101.557 75.1875 100.042 76.4063 95.2501C76.5156 94.8283 76.9219 94.5574 77.3542 94.6147C79.5521 94.9272 85.0104 95.1199 86.474 92.8387L73.1458 90.7189C72.8438 90.6668 72.5469 90.6408 72.25 90.6408ZM34.6771 137.531C32.0937 137.531 29.8594 136.307 28.0208 133.886C20.4792 123.927 25.5833 119.662 30.526 115.537C30.9427 115.193 31.3594 114.844 31.7708 114.49C37.0625 109.958 61.3437 96.2397 63.4219 95.0678L67.4115 90.9741C68.974 89.3699 71.224 88.646 73.4271 89.0366L87.776 91.3178C88 91.3543 88.2031 91.4793 88.3385 91.6668C88.4688 91.8543 88.5208 92.0887 88.4792 92.3126C87.6458 96.9168 80.276 96.6147 77.8646 96.3908C76.2604 101.729 72.974 103.229 71.1094 103.646C69.5417 103.995 68.2708 104.781 67.5156 105.86C52.5365 127.323 42.151 137.386 34.8385 137.531C34.7865 137.531 34.7292 137.531 34.6771 137.531Z" fill="black"/>
<path d="M90.8438 56.9324C92.2604 57.6408 93.9635 57.3491 95.0781 56.2293C96.3333 54.9637 97.349 53.6252 98.1771 52.2658L99.7813 52.3022C100.292 52.3127 100.719 51.9116 100.74 51.396L101.016 45.146C102.25 43.1356 102.745 41.4429 102.859 40.0731C103.052 37.7502 100.979 33.5783 98.8802 32.5522C96.0417 31.1668 90.9167 30.4168 88.2344 34.4429C87.0885 36.1668 85.2188 37.4064 84.0885 37.2085C83.026 37.021 82.5885 36.1095 82.0625 35.1668C81.0833 33.4116 78.651 31.7606 76.3177 34.5366C73.9479 37.3491 75.5885 39.9324 77.0573 42.0887C77.651 42.9585 77.0104 45.3752 76.7708 46.4012L73.3073 61.1408C72.4167 64.9324 69.7031 68.0366 66.0677 69.4272L62.3594 70.8491C62.3594 70.8491 66.4531 83.2606 82.8542 82.9064C95.3698 82.6408 94.4115 72.3804 94.4115 72.3804L92.7656 71.6564C88.4635 69.7606 86.1094 65.0835 87.1458 60.5002L88.25 55.6356L90.8438 56.9324Z" fill="white"/>
<path d="M63.4739 71.3387C64.6406 73.9585 69.4271 82.3387 82.8333 82.0574C86.6927 81.9741 89.5729 80.9012 91.3958 78.8647C93.3177 76.7241 93.5573 74.0314 93.5729 72.9428L92.4219 72.4376C87.7552 70.3803 85.1875 65.2814 86.3125 60.3126L87.4167 55.448C87.4739 55.1928 87.6458 54.9793 87.8854 54.8647C88.1198 54.7553 88.3958 54.7553 88.6302 54.8751L91.2292 56.172C92.3073 56.7137 93.6094 56.4949 94.4739 55.6303C95.5989 54.5001 96.5989 53.2189 97.4479 51.8283C97.6042 51.5678 97.8906 51.4064 98.1927 51.4168L99.7969 51.448C99.8646 51.4532 99.8854 51.4116 99.8854 51.3647L100.161 45.1147C100.172 44.9689 100.214 44.8283 100.292 44.7033C101.307 43.0418 101.885 41.4585 102.01 40.0001C102.182 37.9012 100.219 34.1564 98.5104 33.3178C96.2865 32.2397 91.4375 31.1772 88.9479 34.9168C87.7864 36.6564 85.6354 38.3491 83.9375 38.0522C82.5417 37.8022 81.9427 36.7189 81.4167 35.7605L81.3177 35.5835C80.9219 34.8699 80.1146 34.0053 79.1458 33.9116C78.4167 33.8439 77.6823 34.2397 76.9687 35.0887C75.0989 37.3074 76.1719 39.271 77.7656 41.6095C78.4687 42.646 78.0989 44.5262 77.6562 46.3647L77.5989 46.5939L74.1354 61.3387C73.1823 65.4064 70.276 68.7293 66.3698 70.2241L63.4739 71.3387ZM82.1823 83.7658C65.9114 83.7658 61.5937 71.2449 61.5469 71.1147C61.4062 70.6824 61.6302 70.2137 62.0573 70.0522L65.7604 68.6355C69.1406 67.3387 71.651 64.4689 72.4739 60.9533L75.9948 45.9637C76.5729 43.5678 76.5104 42.797 76.3542 42.5678C75.0312 40.6251 72.8125 37.3751 75.6614 33.9897C77.026 32.3647 78.3958 32.1303 79.3073 32.2189C80.9323 32.3699 82.1823 33.6303 82.8073 34.7553L82.9114 34.9376C83.375 35.7866 83.6719 36.271 84.2344 36.3699C84.8594 36.4793 86.4427 35.5991 87.526 33.9689C90.2552 29.8699 95.5208 29.9637 99.2552 31.7866C101.755 33.0053 103.922 37.6043 103.708 40.1408C103.573 41.8126 102.948 43.5835 101.859 45.4064L101.594 51.4376C101.547 52.422 100.734 53.1772 99.7604 53.1512L98.6458 53.1303C97.7812 54.4793 96.7864 55.7189 95.6823 56.8335C94.2969 58.2189 92.2031 58.5678 90.4635 57.698L88.8385 56.8855L87.9792 60.6876C87.0312 64.8647 89.1927 69.1512 93.1094 70.8751L94.7552 71.5991C95.0364 71.7293 95.2292 71.9949 95.2604 72.3022C95.276 72.4793 95.6302 76.6824 92.6823 79.9845C90.5312 82.4012 87.2292 83.6668 82.8698 83.7605C82.6406 83.7658 82.4062 83.7658 82.1823 83.7658Z" fill="black"/>
<path d="M163.422 126.057H109.818L149.557 64.995C150.802 63.0887 152.964 61.9272 155.286 61.9272H198.797C201.557 61.9272 203.24 64.8856 201.76 67.1512L163.422 126.057Z" fill="black"/>
<path d="M174.859 83.3438C173.12 86.0157 169.37 88.1876 166.495 88.1876C163.615 88.1876 162.693 86.0157 164.432 83.3438C166.177 80.6667 169.922 78.4949 172.802 78.4949C175.677 78.4949 176.599 80.6667 174.859 83.3438Z" fill="#B27B92"/>
<path d="M158.078 131.156H68.8281C65.7708 131.156 63.2865 128.677 63.2865 125.62H163.62C163.62 128.677 161.135 131.156 158.078 131.156Z" fill="black"/>
<path d="M160.635 126.964H114.599C114.125 126.964 113.745 126.583 113.745 126.115C113.745 125.641 114.125 125.26 114.599 125.26H160.635C161.109 125.26 161.49 125.641 161.49 126.115C161.49 126.583 161.109 126.964 160.635 126.964Z" fill="white"/>
<path d="M152.38 131.865C177.01 134.094 167.927 126.724 166.88 122.031L151.865 129.297C150.604 129.906 150.984 131.74 152.38 131.865Z" fill="white"/>
<path d="M166.359 123.234L152.234 130.063C151.943 130.208 151.938 130.448 151.964 130.583C151.979 130.672 152.063 130.984 152.458 131.021C164.031 132.063 167.438 130.859 168.26 129.667C168.953 128.656 168.104 126.932 167.281 125.26C166.948 124.589 166.615 123.906 166.359 123.234ZM160.13 133.125C158.026 133.125 155.458 133.005 152.307 132.719C151.276 132.625 150.464 131.885 150.281 130.885C150.099 129.896 150.578 128.969 151.495 128.526L166.505 121.266C166.745 121.151 167.016 121.151 167.25 121.266C167.484 121.38 167.656 121.594 167.714 121.849C167.885 122.63 168.339 123.542 168.813 124.505C169.802 126.521 170.927 128.802 169.667 130.63C168.828 131.854 166.901 133.125 160.13 133.125Z" fill="black"/>
<path d="M89.9896 313.901L81.2969 339.813C81.2969 339.813 90.7656 339.005 91.6719 339.182C92.5781 339.365 103.651 315.552 103.651 315.552L89.9896 313.901Z" fill="white"/>
<path d="M90.5781 314.833L82.5208 338.859C85.1719 338.641 89.776 338.281 91.375 338.318C92.7448 336.484 98.5677 324.417 102.38 316.26L90.5781 314.833ZM81.2969 340.667C81.0365 340.667 80.7917 340.552 80.625 340.344C80.4479 340.12 80.3958 339.818 80.4896 339.547L89.1823 313.635C89.3125 313.25 89.6875 313.01 90.0937 313.057L103.755 314.708C104.026 314.74 104.266 314.901 104.396 315.141C104.531 315.38 104.542 315.667 104.427 315.912C104.396 315.974 101.62 321.943 98.7708 327.807C92.7187 340.255 92.3385 340.188 91.5104 340.021C90.901 339.938 85.875 340.281 81.3698 340.667C81.349 340.667 81.3229 340.667 81.2969 340.667Z" fill="black"/>
<path d="M83.2917 334.12C83.2917 334.12 96.3594 328.766 98.7813 335.485C101.854 344.031 106.661 357.073 106.661 357.073C107.479 359.344 105.911 361.766 103.505 361.958C98.7292 362.339 91.6042 362.651 88.2813 361.49C83.0417 359.651 74.3438 343.078 74.3438 343.078L77.026 328.979C77.026 328.979 81.7656 328.313 83.2917 334.12Z" fill="#B27B92"/>
<path d="M75.2396 342.948C77.7396 347.661 84.6042 359.297 88.5625 360.687C90.9896 361.536 96.2708 361.687 103.437 361.109C104.318 361.036 105.094 360.573 105.578 359.828C106.052 359.094 106.156 358.193 105.859 357.365C105.812 357.24 101.016 344.229 97.974 335.776C97.599 334.729 96.9062 333.995 95.8594 333.526C91.651 331.661 83.6927 334.875 83.6146 334.911C83.3854 335.005 83.125 334.995 82.9062 334.885C82.6875 334.776 82.526 334.578 82.4635 334.339C81.4427 330.443 78.901 329.865 77.7396 329.807L75.2396 342.948ZM95.8073 363.156C92.7187 363.156 89.8385 362.937 88 362.292C82.599 360.401 74.4948 345.203 73.5885 343.474C73.5 343.307 73.474 343.109 73.5052 342.922L76.1875 328.823C76.2552 328.464 76.5469 328.187 76.9062 328.135C76.9635 328.125 81.8958 327.5 83.8385 333C86.1615 332.167 92.5469 330.187 96.5521 331.969C98.026 332.625 99.0469 333.714 99.5833 335.198C102.62 343.646 107.411 356.651 107.464 356.781C107.943 358.12 107.776 359.562 107.01 360.755C106.24 361.943 104.99 362.693 103.573 362.807C101.177 363 98.4167 363.156 95.8073 363.156Z" fill="black"/>
<path d="M103.313 357.167H89.8854C89.4167 357.167 89.0312 356.787 89.0312 356.313C89.0312 355.844 89.4167 355.458 89.8854 355.458H103.313C103.786 355.458 104.167 355.844 104.167 356.313C104.167 356.787 103.786 357.167 103.313 357.167Z" fill="black"/>
<path d="M65.3438 320.271L68.2969 346.333L80.1771 343.078L79.2656 319.594L65.3438 320.271Z" fill="white"/>
<path d="M66.2917 321.078L69.0313 345.25L79.3021 342.437L78.4427 320.49L66.2917 321.078ZM68.2969 347.187C68.1302 347.187 67.9584 347.135 67.8177 347.042C67.6146 346.901 67.474 346.677 67.4479 346.432L64.4948 320.37C64.4688 320.13 64.5417 319.896 64.6927 319.719C64.849 319.536 65.0677 319.427 65.3021 319.417L79.224 318.745C79.4479 318.729 79.6719 318.812 79.8386 318.969C80.0104 319.12 80.1094 319.333 80.1146 319.562L81.0313 343.047C81.0469 343.443 80.7865 343.797 80.4063 343.901L68.5209 347.156C68.4479 347.177 68.3698 347.187 68.2969 347.187Z" fill="black"/>
<path d="M67.1771 365.542H85.9739C88.5208 365.542 90.4739 363.287 90.0989 360.766C89.4739 356.526 87.4271 349.49 81.2969 339.813C80.6302 338.76 79.4583 338.12 78.2083 338.12H72.4896C71.5052 338.12 70.6771 338.859 70.5781 339.839L70.1458 343.964L68.4167 342.182C67.7344 341.484 66.5521 341.755 66.25 342.682C65.151 346.01 63.1562 353.151 63.0052 361.297C62.9635 363.625 64.8437 365.542 67.1771 365.542Z" fill="#B27B92"/>
<path d="M67.4844 342.646C67.4375 342.646 67.401 342.651 67.3802 342.656C67.2865 342.677 67.125 342.74 67.0573 342.948C65.9271 346.391 64.0052 353.354 63.8594 361.313C63.8437 362.208 64.1771 363.052 64.8073 363.693C65.4375 364.333 66.276 364.688 67.1771 364.688H85.974C86.9427 364.688 87.8594 364.266 88.4896 363.536C89.1146 362.807 89.3958 361.844 89.2552 360.896C88.6458 356.771 86.6458 349.849 80.5781 340.271C80.0677 339.469 79.1615 338.969 78.2083 338.969H72.4896C71.9427 338.969 71.4844 339.38 71.4271 339.932L70.9948 344.052C70.9583 344.38 70.7344 344.661 70.4219 344.766C70.1146 344.875 69.7656 344.792 69.5312 344.557L67.8021 342.781C67.6927 342.672 67.5729 342.646 67.4844 342.646ZM85.974 366.391H67.1771C65.8177 366.391 64.5417 365.854 63.5885 364.885C62.6354 363.917 62.125 362.641 62.151 361.281C62.3021 353.099 64.276 345.948 65.4375 342.417C65.6719 341.698 66.2552 341.167 66.9948 340.995C67.7344 340.823 68.4948 341.047 69.026 341.589L69.4844 342.063L69.7292 339.755C69.875 338.333 71.0625 337.266 72.4896 337.266H78.2083C79.7656 337.266 81.1875 338.047 82.0208 339.359C88.2448 349.193 90.3073 356.359 90.9427 360.646C91.1562 362.089 90.7344 363.547 89.7812 364.651C88.8229 365.755 87.4375 366.391 85.974 366.391Z" fill="black"/>
<path d="M85.9948 361.901H66.9531C66.4844 361.901 66.099 361.521 66.099 361.052C66.099 360.578 66.4844 360.198 66.9531 360.198H85.9948C86.4636 360.198 86.8438 360.578 86.8438 361.052C86.8438 361.521 86.4636 361.901 85.9948 361.901Z" fill="black"/>
<path d="M109.964 163.734C109.474 162.531 108.479 161.609 107.234 161.224C100.365 159.068 76.3958 153.391 51.7239 169.198C50.5573 169.943 49.8125 171.198 49.7187 172.573C48.8229 185.099 45.5 250.578 66.2292 328.115L80.1979 327.115L83.0469 194.552C83.0469 194.552 103.734 243.151 86.9114 320.495L101.437 323.172C101.437 323.172 122.698 295.25 126.5 252.573C129.87 214.823 113.734 172.906 109.964 163.734Z" fill="black"/>
<path d="M69.7917 266.802C69.7812 266.802 69.7656 266.802 69.7552 266.802C56.5833 266.234 55.0937 248.385 55.0781 248.208C55.0469 247.74 55.3958 247.328 55.8646 247.292C56.3385 247.26 56.7448 247.609 56.7812 248.078C56.7917 248.245 58.1719 264.594 69.8281 265.099C70.2969 265.12 70.6615 265.516 70.6406 265.99C70.625 266.443 70.2448 266.802 69.7917 266.802Z" fill="#CADDFF"/>
<path d="M84.2604 207.563C83.8021 207.563 83.4219 207.193 83.4062 206.729L83.0365 194.136C82.9531 191.354 84.2656 188.735 86.5469 187.13L91.9844 183.313C92.3698 183.037 92.901 183.13 93.1719 183.516C93.4427 183.901 93.3542 184.432 92.9635 184.709L87.526 188.526C85.7135 189.797 84.6771 191.88 84.7396 194.089L85.1146 206.682C85.125 207.151 84.7552 207.542 84.2865 207.563C84.276 207.563 84.2708 207.563 84.2604 207.563Z" fill="#CADDFF"/>
</svg>
