<svg width="99" height="99" viewBox="0 0 99 99" fill="none" xmlns="http://www.w3.org/2000/svg">
<circle cx="49.5" cy="49.5" r="49.5" fill="#96D5E4"/>
<path d="M82.4519 64.2557V42.4375H86.699V64.2557H82.4519ZM84.5968 39.071C83.8581 39.071 83.2237 38.8248 82.6934 38.3324C82.1725 37.8305 81.9121 37.2339 81.9121 36.5426C81.9121 35.8419 82.1725 35.2453 82.6934 34.7528C83.2237 34.2509 83.8581 34 84.5968 34C85.3354 34 85.9651 34.2509 86.486 34.7528C87.0163 35.2453 87.2814 35.8419 87.2814 36.5426C87.2814 37.2339 87.0163 37.8305 86.486 38.3324C85.9651 38.8248 85.3354 39.071 84.5968 39.071Z" fill="white"/>
<path d="M71.7466 64.6964C69.6349 64.6964 67.8167 64.2182 66.2921 63.2618C64.7769 62.2959 63.6122 60.9654 62.7978 59.2703C61.9834 57.5752 61.5762 55.6339 61.5762 53.4464C61.5762 51.2305 61.9928 49.275 62.8262 47.5799C63.6595 45.8754 64.8337 44.5449 66.3489 43.5885C67.8641 42.632 69.6491 42.1538 71.704 42.1538C73.3612 42.1538 74.8385 42.4616 76.1358 43.0771C77.4332 43.6832 78.4796 44.5354 79.275 45.6339C80.08 46.7324 80.5582 48.0155 80.7097 49.4834H76.5762C76.3489 48.4606 75.8281 47.5799 75.0137 46.8413C74.2087 46.1027 73.1292 45.7334 71.775 45.7334C70.5913 45.7334 69.5544 46.0459 68.6642 46.6709C67.7836 47.2864 67.097 48.1671 66.6046 49.3129C66.1122 50.4493 65.8659 51.794 65.8659 53.347C65.8659 54.9379 66.1074 56.311 66.5904 57.4663C67.0733 58.6216 67.7551 59.5165 68.6358 60.151C69.526 60.7854 70.5724 61.1027 71.775 61.1027C72.58 61.1027 73.3091 60.9559 73.9625 60.6623C74.6254 60.3593 75.1794 59.9284 75.6245 59.3697C76.079 58.811 76.3962 58.1387 76.5762 57.3527H80.7097C80.5582 58.7637 80.0989 60.0231 79.3319 61.1311C78.5648 62.239 77.5373 63.1102 76.2495 63.7447C74.9711 64.3792 73.4701 64.6964 71.7466 64.6964Z" fill="white"/>
<path d="M59.6427 35.165V64.2559H55.3955V35.165H59.6427Z" fill="white"/>
<path d="M43.2847 64.6964C41.2393 64.6964 39.4542 64.2277 37.9296 63.2902C36.405 62.3527 35.2213 61.0411 34.3785 59.3555C33.5357 57.6699 33.1143 55.7002 33.1143 53.4464C33.1143 51.1832 33.5357 49.204 34.3785 47.5089C35.2213 45.8138 36.405 44.4976 37.9296 43.5601C39.4542 42.6226 41.2393 42.1538 43.2847 42.1538C45.3302 42.1538 47.1152 42.6226 48.6398 43.5601C50.1644 44.4976 51.3482 45.8138 52.191 47.5089C53.0338 49.204 53.4552 51.1832 53.4552 53.4464C53.4552 55.7002 53.0338 57.6699 52.191 59.3555C51.3482 61.0411 50.1644 62.3527 48.6398 63.2902C47.1152 64.2277 45.3302 64.6964 43.2847 64.6964ZM43.2989 61.1311C44.6247 61.1311 45.7232 60.7807 46.5944 60.0799C47.4656 59.3792 48.1095 58.4464 48.5262 57.2816C48.9523 56.1169 49.1654 54.8337 49.1654 53.4322C49.1654 52.0402 48.9523 50.7618 48.5262 49.597C48.1095 48.4227 47.4656 47.4805 46.5944 46.7703C45.7232 46.0601 44.6247 45.7049 43.2989 45.7049C41.9637 45.7049 40.8557 46.0601 39.9751 46.7703C39.1038 47.4805 38.4552 48.4227 38.029 49.597C37.6124 50.7618 37.404 52.0402 37.404 53.4322C37.404 54.8337 37.6124 56.1169 38.029 57.2816C38.4552 58.4464 39.1038 59.3792 39.9751 60.0799C40.8557 60.7807 41.9637 61.1311 43.2989 61.1311Z" fill="white"/>
<path d="M20.0226 64.6821C18.2613 64.6821 16.6893 64.2323 15.3067 63.3327C13.9336 62.4236 12.8541 61.1309 12.0681 59.4548C11.2916 57.7692 10.9033 55.7474 10.9033 53.3895C10.9033 51.0315 11.2963 49.0145 12.0823 47.3383C12.8778 45.6622 13.9668 44.3791 15.3493 43.4889C16.7319 42.5988 18.2992 42.1537 20.051 42.1537C21.4052 42.1537 22.4942 42.3809 23.3181 42.8355C24.1514 43.2806 24.7954 43.8014 25.2499 44.398C25.7139 44.9946 26.0738 45.5202 26.3295 45.9747H26.5851V35.165H30.8323V64.2559H26.6846V60.8611H26.3295C26.0738 61.3251 25.7045 61.8554 25.2215 62.452C24.748 63.0486 24.0946 63.5694 23.2613 64.0145C22.4279 64.4595 21.3484 64.6821 20.0226 64.6821ZM20.9601 61.0599C22.1817 61.0599 23.2139 60.738 24.0567 60.094C24.909 59.4406 25.5529 58.5363 25.9885 57.3809C26.4336 56.2256 26.6562 54.8809 26.6562 53.3469C26.6562 51.8317 26.4384 50.5059 26.0028 49.3696C25.5671 48.2332 24.9279 47.3478 24.0851 46.7133C23.2423 46.0789 22.2007 45.7616 20.9601 45.7616C19.6817 45.7616 18.6164 46.0931 17.7641 46.7559C16.9118 47.4188 16.2679 48.3232 15.8323 49.469C15.4062 50.6149 15.1931 51.9075 15.1931 53.3469C15.1931 54.8052 15.4109 56.1167 15.8465 57.2815C16.2821 58.4463 16.926 59.3696 17.7783 60.0514C18.6401 60.7238 19.7007 61.0599 20.9601 61.0599Z" fill="white"/>
</svg>
