<svg width="59" height="80" viewBox="0 0 59 80" fill="none" xmlns="http://www.w3.org/2000/svg">
<path d="M57.5636 6.32188C56.678 5.28421 55.3796 4.68664 54.0127 4.6875H49.9915C49.9476 4.29344 49.8995 3.91125 49.8477 3.545C49.5488 1.51322 47.8027 0.00551377 45.7421 0H12.9356C10.875 0.00560287 9.12893 1.51337 8.83008 3.54516C8.77834 3.91141 8.73036 4.29359 8.6863 4.6875H4.66498C2.08809 4.68799 -0.000495364 6.7702 8.813e-08 9.33824C4.78028e-05 9.58579 0.0199339 9.83294 0.0594659 10.0773L0.940619 15.5177C2.47366 25.024 9.46263 32.7484 18.7927 35.2484C20.3772 36.9397 22.1066 38.4902 23.9611 39.8823C22.0771 40.9424 21.4121 43.3239 22.4759 45.2014C22.9506 46.0393 23.719 46.6729 24.6338 46.9808C24.4564 48.692 24.0084 50.3644 23.3064 51.9361C21.4182 56.1472 18.1292 58.558 16.1712 59.6875H15.6982C14.1836 59.6892 12.9561 60.9124 12.9544 62.4219V72.1875H10.9945C9.4799 72.1892 8.25247 73.4124 8.25074 74.9219V77.2656C8.25247 78.7751 9.4799 79.9983 10.9945 80H47.6831C49.1978 79.9983 50.4252 78.7751 50.4269 77.2656V74.9219C50.4252 73.4124 49.1978 72.1892 47.6831 72.1875H45.7233V62.4219C45.7215 60.9124 44.4941 59.6892 42.9795 59.6875H42.5064C40.5483 58.5578 37.2595 56.1472 35.3713 51.9359C34.6693 50.3643 34.2213 48.6919 34.0439 46.9808C36.0938 46.2909 37.1943 44.0756 36.502 42.0328C36.1931 41.1212 35.5573 40.3554 34.7165 39.8823C36.5711 38.4902 38.3004 36.9397 39.8849 35.2484C49.2149 32.7485 56.2039 25.0242 57.737 15.518L58.6182 10.077C58.8367 8.73174 58.4511 7.35871 57.5636 6.32188ZM3.2625 15.1445L2.38135 9.70422C2.17812 8.44672 3.03629 7.26313 4.29812 7.06059C4.41943 7.04112 4.54211 7.03131 4.66498 7.03125H8.49596C8.17096 13.0643 9.27649 19.0888 11.723 24.6167C12.8351 27.1199 14.2165 29.4954 15.8428 31.7016C9.14788 28.6102 4.43283 22.4047 3.2625 15.1445ZM47.6831 74.5312C47.8995 74.5315 48.0748 74.7062 48.0751 74.9219V77.2656C48.0748 77.4813 47.8995 77.656 47.6831 77.6562H10.9945C10.7782 77.656 10.6028 77.4813 10.6026 77.2656V74.9219C10.6028 74.7062 10.7782 74.5315 10.9945 74.5312H47.6831ZM42.1908 62.0312L42.1944 62.0314L42.1979 62.0312H42.9795C43.1958 62.0315 43.3712 62.2062 43.3714 62.4219V72.1875H15.3062V62.4219C15.3065 62.2062 15.4818 62.0315 15.6982 62.0312H16.4798L16.4833 62.0314L16.4869 62.0312H42.1908ZM38.4288 59.6875H20.2488C22.4797 57.8463 24.2598 55.5222 25.4538 52.8922C26.2631 51.0835 26.7781 49.1577 26.9793 47.1875H31.6983C31.8996 49.1577 32.4145 51.0835 33.2239 52.8922C34.4178 55.5222 36.1979 57.8463 38.4288 59.6875ZM32.7882 44.8438H25.8895C25.0236 44.8438 24.3216 44.1442 24.3216 43.2812C24.3216 42.4183 25.0236 41.7188 25.8895 41.7188H26.9321C26.9688 41.7203 27.0055 41.7205 27.0419 41.7188H31.6559C31.6678 41.7191 31.6797 41.7209 31.6918 41.7209C31.7024 41.7209 31.7131 41.7191 31.7237 41.7188H32.7882C33.6541 41.7188 34.3561 42.4183 34.3561 43.2812C34.3561 44.1442 33.6541 44.8438 32.7882 44.8438ZM31.3479 39.375H27.3297C23.7979 37.0859 17.6308 32.1322 13.8735 23.6686C10.4155 15.8784 10.4884 8.60375 11.1587 3.87281C11.2894 2.99507 12.045 2.34481 12.9354 2.34375H45.7421C46.6325 2.34475 47.388 2.99506 47.5186 3.87281C48.1891 8.60375 48.262 15.8784 44.804 23.6686C41.0467 32.1322 34.8797 37.0858 31.3479 39.375ZM56.2965 9.70375L55.4153 15.1448C54.2448 22.4049 49.5297 28.6103 42.8349 31.7016C44.4612 29.4954 45.8425 27.1199 46.9547 24.6167C49.4012 19.0888 50.5067 13.0643 50.1817 7.03125H54.0127C55.2907 7.03173 56.3263 8.06458 56.3259 9.3382C56.3258 9.46064 56.316 9.58287 56.2965 9.70375Z" fill="black"/>
</svg>
